<svg xmlns="http://www.w3.org/2000/svg" id="Layer_1" viewBox="0 0 1366 4725.3">
  <style>
    .st0{fill:#016848}.st1{fill:#c5e8f3}.st2{fill:#d0df63}.st3{fill:#1a3a44}
  </style>
  <g id="bottomleft">
    <path d="M540.7 4651.3c.1 0 .1 0 .2-.1 0 0 .1 0 .1-.1.1 0 .1-.1.2-.1l.1-.1c0-.1.1-.1.1-.2 0 0 0-.1.1-.1 0-.1.1-.2 0-.3 0-.1 0-.2-.1-.3 0 0 0-.1-.1-.1 0-.1-.1-.1-.1-.2l-.1-.1-.1-.1-82.4-52.8c-.1-.1-.2-.1-.4-.1h-.5l-57.6 19.5c-.1 0-.1.1-.2.1 0 0-.1 0-.1.1 0 0-.1 0-.1.1v.1l-.1.1-.1.1c0 .1 0 .1-.1.2v.4c0 .1.1.2.1.3l26.5 45.1.3.3c.1.1.2.1.4.1h.2l113.8-11.8zm-113.4 9.1l-23.8-40.4 35.7 22.1 3.4 2.1-7.2 7.5-8.1 8.7zm18.3-17.3l13.2-44.1 78 50-91.2-5.9zm-1.9-.6l-40.7-25.3 53.7-18.2-13 43.5zm-1.9 5.7l2.9-3.1 84 5.5-98.9 10.2 12-12.6zM557.4 4712.7l59.3-86.1 3.9 31.2 6.9 54.9h2l-7.3-58.4-3.7-29.4 157.9 1.6-142.7 86.2h3.9l140.5-84.9-28.4 84.9h2.1l29.1-86.9V4625.5 4625.2c0-.1-.1-.2-.1-.2-.1-.1-.1-.2-.2-.2s-.1-.1-.2-.1h-.4l-162.6-1.7c-.1 0-.3 0-.4.1h-.1c-.1 0-.2.1-.3.2l-.1.1-61.5 89.4 2.4-.1zM202.6 4712.7l45.6-51.8 110.1-19.8-100.3 53.8-33.1 17.8h4.2l132.1-70.9-42.7 64.6-28.1 6.3h9.1l19.9-4.5c.3-.1.5-.2.6-.4l45.1-68.3v-.1s0-.1.1-.1V4639 4638.7c0-.1-.1-.1-.1-.2 0 0 0-.1-.1-.1 0-.1-.1-.1-.2-.1l-.1-.1c-.1 0-.2-.1-.2-.1h-.4l-116.6 21c-.2 0-.4.2-.6.3l-47 53.4 2.7-.1zM0 4472.1l20.5-11.5 22.9 150.7L0 4578.9v2.5l42.4 31.7L0 4623.2v2.1l44.2-10.5 48.6 98H95l-48.1-97.1 92.2 41-15.4 56.1h2.1l15.5-56.4v-.1V4656c0-.1 0-.1-.1-.2 0 0 0-.1-.1-.1v-.1l-119-197c-.1-.1-.1-.2-.2-.2s-.1-.1-.2-.1h-.1-.1c-.1 0-.2 0-.3-.1-.1 0-.2 0-.3.1h-.1L0 4469.8v2.3zm137.8 181.7l-1.2-.5-90.9-40.4-22.7-149 114.8 189.9zM0 4672.3l56.2 40.4h3.5L0 4669.9z" class="st0"/>
  </g>
  <g id="Bottom-right">
    <path id="Path_1796" d="M1173.9 4245.1l139.7-86-65.5 76.2-74.2 9.8z" class="st1"/>
    <path id="Path_1797" d="M1157.3 4188.8l-64.4 29.4-10-23.4 74.4-6z" class="st0"/>
    <path id="Path_1798" d="M1067 4194.7l15.9.1 21.6-34.1-37.5 34z" class="st2"/>
    <path id="Path_1799" d="M1157.3 4188.8l-52.8-28.1-21.6 34.1 74.4-6z" class="st1"/>
    <path id="Path_1800" d="M1092.9 4218.2l-25.9-23.5 15.9.1 10 23.4z" class="st3"/>
    <path d="M1366 4185.3l-52.4-26.2 52.4 66.2z" class="st1"/>
    <path d="M1366 4225.3l-52.4-66.2-65.4 76.2 117.8 34.6z" class="st2"/>
    <path d="M1366 4269.9l-117.8-34.6 117.8 88.8z" class="st0"/>
    <path d="M1366 4324.1l-117.8-88.8-74.3 9.8 192.1 82.2z" class="st3"/>
  </g>
  <g id="Under-mockup-two-two">
    <path d="M1250.6 3781.7v-.3c0-.1 0-.2-.1-.3v-.1c0-.1-.1-.1-.1-.2-.1-.1-.1-.1-.2-.1h-.1l-95.7-40H1153.6c-.1 0-.1.1-.1.1s-.1 0-.1.1l-.1.1-.1.1-49.2 69.7c-.1.1-.1.2-.1.4v.5c0 .1.1.2.2.3l74 76h.1c.1.1.1.1.2.1 0 0 .1 0 .1.1h.4c.1 0 .2 0 .4-.1.1 0 .2-.1.2-.1l.2-.2 70.9-105.6c-.1-.2-.1-.3 0-.5 0 .1 0 .1 0 0zm-30 18.8l-44.1 30.7-21.2-88.1 92.2 38.6-26.9 18.8zm-43.7 32.9l60.7-42.3 8.2-5.7-66.2 98.7-2.7-50.7zm-23.4-89.5l21 87.6-68.1-20.8 47.1-66.8zm-45.3 69.4l66.7 20.4 2.7 50.9-69.4-71.3zM1139.6 3386.8v.1c0 .1 0 .2.1.2 0 0 0 .1.1.1 0 .1.1.1.2.2l61 53 .1.1c.1.1.2.1.3.2.1 0 .2.1.2.1l48.9 3.4h.1c.1 0 .2 0 .3-.1 0 0 .1 0 .1-.1.1 0 .1-.1.2-.2h.1v-.1l.1-.1c0-.1.1-.1.1-.2v-.1-.2-.1-.2c0-.1 0-.1-.1-.2 0 0 0-.1-.1-.1l-26.3-36-.2-.2c-.1 0-.1-.1-.2-.1h-.1-.1l-83.7-20.4h-.4c-.1 0-.2 0-.2.1 0 0-.1 0-.1.1-.1 0-.1.1-.2.1l-.1.1v.1s0 .1-.1.1c0 0 0 .1-.1.1v.1c0 .1 0 .1.1.2 0-.1 0-.1 0 0zm61.5 29.4l45.2 25.6-43.7-3-1.5-22.6zm1.4-1.5l21.4-6.4 23.1 31.7-44.5-25.3zm-3.5.4l1.5 22.4-53.8-46.8 52.3 24.4zm1-1.7l-49.8-23.3 70.3 17.1-20.5 6.2zM1366 3733.9l-153-41.6 37.8-40.9 37.7-40.8 77.5 81.2v-2.9l-75.7-79.3 75.7-23.4v-2.1l-77.3 23.9-152-118.5 229.3 73.9v-2.1l-234.1-75.4h-.6c-.1 0-.1.1-.2.1h-.1l-.1.1-.1.1v.1c0 .1 0 .1-.1.2v.5l79.5 206v.2l.1.1.1.1.1.1s.1 0 .1.1c0 0 .1 0 .1.1h.1l155.1 42.2.1-2zm-232.2-244l153.2 119.3-75.5 81.8-77.7-201.1z" class="st0"/>
  </g>
  <g id="Under-mockup-two">
    <path id="Path_1855" d="M585.3 3573.1l-29.4 34.6v-34.6h29.4z" class="st2"/>
    <path id="Path_1856" d="M534.2 3543.1l51.1 30h-29.4l-21.7-30z" class="st1"/>
    <path id="Path_1857" d="M555.9 3607.7l-21.7-18 21.7-16.5v34.5z" class="st3"/>
    <path id="Path_1858" d="M534.2 3543.1v46.6l21.7-16.5-21.7-30.1z" class="st0"/>
    <path id="Path_1859" d="M458.4 3537.8l-66.5 49.6-26.1-29.1 92.6-20.5z" class="st3"/>
    <path id="Path_1860" d="M401.8 3471.4l56.6 66.4-92.6 20.4 36-86.8z" class="st1"/>
    <path id="Path_1861" d="M391.9 3587.4l-125.3-34.6 99.2 5.4 26.1 29.2z" class="st0"/>
    <path id="Path_1862" d="M401.8 3471.4l-135.1 81.4 99.2 5.4 35.9-86.8z" class="st2"/>
    <path id="Path_1867" d="M267 3471.3L89.2 3356.6l7.2 74.9 170.6 39.8z" class="st2"/>
    <path id="Path_1868" d="M78.9 3584.8L267 3471.3l-170.6-39.9-17.5 153.4z" class="st0"/>
    <path d="M0 3322.5l96.4 108.9-7.2-74.8L0 3302.5z" class="st1"/>
    <path d="M0 3322.5v56.5l78.9 205.8 17.5-153.4z" class="st3"/>
    <path d="M0 3379v159.4l78.9 46.4z" class="st2"/>
    <path d="M0 3538.4v103.1l78.9-56.7z" class="st3"/>
  </g>
  <g id="Video-section">
    <path id="Path_2488" d="M1046.5 2671l-5.7-122.6 97.3 69.9-91.6 52.7z" class="st0"/>
    <path id="Path_2489" d="M1242.5 2650.2l-107.5-114 3.1 82.1 104.4 31.9z" class="st2"/>
    <path id="Path_2490" d="M1046.5 2671.1l196.1-20.8-104.5-31.8-91.6 52.6z" class="st3"/>
    <path id="Path_2491" d="M1135 2536.3l-94.3 12.2 97.3 69.9-3-82.1z" class="st1"/>
    <path id="Path_2503" d="M1205.6 2522l142.4 3.8-86.3-25.7-56.1 21.9z" class="st3"/>
    <path id="Path_2504" d="M1309.5 2399.2l-103.6 122.7 55.6-21.9 48-100.8z" class="st2"/>
    <path d="M1366 2446.1l-105.6 54 87.4 25.7 18.2-35z" class="st0"/>
    <path d="M1366 2419l-57.5-19.8-48.1 100.9 105.6-54z" class="st1"/>
  </g>
  <g id="Middle-right">
    <path id="Path_2476" d="M1250.6 1658.4l82 42.2-79.3 149-2.7-191.2z" class="st2"/>
    <path id="Path_2479" d="M1249.9 1558.1l58.7-63.2-69.7-17.3 11 80.5z" class="st3"/>
    <path id="Path_2480" d="M1192.9 1518.1l57 40-11.1-80.5-45.9 40.5z" class="st0"/>
    <path id="Path_2481" d="M1224.8 1433l-31.9 85 46-40.5-14.1-44.5z" class="st1"/>
    <path id="Path_2482" d="M1308.6 1494.9l-83.8-61.8 14.1 44.5 69.7 17.3z" class="st2"/>
    <path d="M1366 1609.2l-33.4 91.3 33.4-3.1z" class="st0"/>
    <path d="M1366 1697.4l-33.4 3.1-79.2 149.1 112.6-102.3z" class="st3"/>
    <path d="M1366 1563.1l-115.4 95.3 82 42.1 33.4-91.3z" class="st1"/>
  </g>
  <g id="Behind-mockup">
    <path id="Path_2453" d="M90.5 680.7l-76.3-23.6L147 786.3 90.5 680.7z" class="st0"/>
    <path id="Path_2454" d="M23.2 760.2L147 786.3 14.2 657.1l9 103.1z" class="st2"/>
    <path d="M0 723.8l23.2 36.4-9-103.1L0 678z" class="st1"/>
    <path id="Path_2448" d="M1334.8 578.2L1147 597.6l165.8 69.4 22-88.8z" class="st1"/>
    <path id="Path_2449" d="M1208.3 782.4L1147 597.6l165.8 69.4-104.5 115.4z" class="st2"/>
    <path d="M1366 638.8l-31.2-60.6-22 88.8 53.2 62.1z" class="st0"/>
    <path d="M1366 729.1l-53.2-62.1-104.5 115.4 157.7 47.7z" class="st3"/>
    <g>
      <path d="M1205.2 1178v-.1c0-.1 0-.1-.1-.1l-.1-.1-45.4-45.3h-.1l-.1-.1c-.1 0-.1-.1-.2-.1h-.8-.1l-99.9 44.1s-.1 0-.1.1c0 0-.1 0-.1.1-.1 0-.1.1-.1.1l-.1.1c0 .1-.1.1-.1.2v.9c0 .1.1.1.1.2 0 0 0 .1.1.1.1.1.1.1.2.1l.1.1 86.2 44.9h.2c.1 0 .2.1.3.1.1 0 .3 0 .4-.1h.1s.1 0 .1-.1l59-43.7.2-.2s0-.1.1-.1l.1-.1v-.1V1178.6c.2-.5.2-.5.1-.6zm-53-41l-8 6.4-45 35.9-36.1-2.8 89.1-39.5zm-88.3 41.4l35.2 2.8 39.8 36.3-75-39.1zm81.4 42.3l-43.2-39.5 99.1-1.9-55.9 41.4zm-42.8-41.5l56.4-44.9 43.1 43.1-99.5 1.8zM1366 1085.5l-71.2-23.9h-.5c-.1 0-.1 0-.2.1 0 0-.1 0-.1.1-.1 0-.1.1-.1.1s-.1 0-.1.1-.1.1-.1.2v.1l-51.4 119.4c-.1.2-.1.4-.1.6v.1c0 .1.1.2.1.3v.1c.1.2.3.3.5.4h.1l123.2 44.5v-2.1l-118.1-42.7 106.4-7.4 11.7 10.9v-2.7l-10.1-9.4 10.1-22.8v-4.9l-11.4 25.7-19.7-36.6-38.3-71 69.4 23.3v-2.5h-.1zm-55.1 9.6l42.1 78.1-108.4 7.6 49.9-116 16.4 30.3z" class="st0"/>
    </g>
    <g>
      <path id="Path_2441" d="M155.9 982.1L46.5 1167l104.7-81.1 4.7-103.8z" class="st1"/>
      <path id="Path_2442" d="M228.1 1140.6l-76.9-54.7 4.6-103.8 72.3 158.5z" class="st2"/>
      <path id="Path_2443" d="M228.1 1140.6l-76.9-54.7L46.5 1167l181.6-26.4z" class="st0"/>
      <path id="Path_2455" d="M19.9 1183.7l158.6 58.9-106.6-8-52-50.9z" class="st2"/>
      <path id="Path_2458" d="M178.5 1242.6L79 1307.5l-7.1-72.9 106.6 8z" class="st3"/>
      <path id="Path_2459" d="M187.4 1337.5l-23-10.3-35.1 12.4 58.1-2.1z" class="st2"/>
      <path id="Path_2460" d="M171.4 1363.1l15.9-25.6-77.2 43.6 61.3-18z" class="st0"/>
      <path id="Path_2461" d="M129.3 1339.6l-19.2 41.5 77.2-43.6-58 2.1z" class="st1"/>
      <path d="M0 1253.2l71.9-18.6-52-50.9L0 1213.1z" class="st1"/>
      <path d="M0 1275.2l79 32.3-7.1-72.9L0 1253.2z" class="st0"/>
    </g>
  </g>
  <g id="Title">
    <path d="M224.3 191v-.4c0-.1-.1-.1-.1-.2l-69.7-89.7c-.2-.2-.5-.4-.8-.4-.3 0-.6.1-.8.4l-35.8 45c-.1.1-.1.2-.2.4v.2l-5.3 87.8c0 .3.1.7.4.9.2.1.4.2.6.2.1 0 .2 0 .4-.1L223.8 192h.1c.1-.1.2-.1.3-.3.1-.2.1-.4.1-.7zm-70.7-88l66.5 85.7-44.2-18.7-56.5-23.9 34.2-43.1zm-39.9 129.6l5.1-84.8 60.8 25.7 41.1 17.4-107 41.7zM244.1 20.9c0-.1 0-.1-.1-.2v-.1c0-.1-.1-.2-.2-.2-.1-.1-.2-.1-.3-.2l-53.4-22h-5.3l51.3 21.1-73.3-8.1-12.4-13.1h-2.8l12.8 13.4-25.5 5.6-50.5 11.2 22.1-30.2H104L81.2 29.3v.1l-.1.1v.6s0 .1.1.1c0 0 0 .1.1.1 0 .1.1.1.2.2s.2.1.2.2l83.7 37.7c.1 0 .2.1.4.1h.4c.1 0 .1 0 .2-.1l77.3-46.6.1-.1.1-.1s0-.1.1-.1c0-.1.1-.1.1-.2v-.1-.1-.2c0 .1 0 .1 0 0zM85.2 30.3l76.2-16.9 3.2 52.7-79.4-35.8zM166.7 66l-3.2-52.7 76.6 8.4L166.7 66zM103.8 90.5v-.3l-.1-.1-.1-.1-.1-.1-.1-.1h-.5L.2 97.8v2L100.5 92l-40.9 44.2-59.5-13v2l59 12.9 20.7 99.5L0 173.2v2.6l80.6 65c.2.1.4.2.6.2.1 0 .2 0 .3-.1h.2s.1 0 .1-.1l.1-.1.1-.1.1-.1c0-.1 0-.1.1-.2v-.1l21.6-149.4v-.3zM81 234.2l-20.1-96.8 18.8-20.3 21.7-23.4L81 234.2z" class="st0"/>
  </g>
</svg>
