<svg xmlns="http://www.w3.org/2000/svg" id="Layer_1" viewBox="0 0 306.9 210.9">
  <style>
    .st0{fill:#d0df63}.st1{fill:#c5e8f3}.st2{fill:#1a3a44}.st3{fill:#016848}
  </style>
  <path id="Path_1855" d="M306.9 141.6l-13.6 15.8v-15.8h13.6z" class="st0"/>
  <path id="Path_1856" d="M283.2 127.8l23.7 13.7h-13.6l-10.1-13.7z" class="st1"/>
  <path id="Path_1857" d="M293.3 157.3l-10.1-8.2 10.1-7.5v15.7z" class="st2"/>
  <path id="Path_1858" d="M283.2 127.8V149l10.1-7.5-10.1-13.7z" class="st3"/>
  <path id="Path_1859" d="M256.6 134.7l-30.8 22.6-12-13.3 42.8-9.3z" class="st2"/>
  <path id="Path_1860" d="M230.4 104.4l26.2 30.3-42.8 9.3 16.6-39.6z" class="st1"/>
  <path id="Path_1861" d="M225.9 157.3l-58-15.8 45.9 2.5 12.1 13.3z" class="st3"/>
  <path id="Path_1862" d="M230.4 104.4l-62.5 37.1 45.9 2.5 16.6-39.6z" class="st0"/>
  <path id="Path_1867" d="M167.8 104.3L65.5 39.2l4.1 42.5 98.2 22.6z" class="st0"/>
  <path id="Path_1868" d="M59.6 168.7l108.2-64.4-98.2-22.6-10 87z" class="st3"/>
  <path d="M0 15.5v118.7l59.6 34.5z" class="st0"/>
  <path d="M0 134.2v76.7l59.6-42.2zM0 4.1v11.4l59.6 153.2 10-87z" class="st2"/>
  <path d="M0 4.1l69.6 77.6-4.1-42.5L0 0z" class="st1"/>
</svg>
