<svg xmlns="http://www.w3.org/2000/svg" id="Layer_1" viewBox="0 0 228.6 185.1">
  <style>
    .st0{fill:#1a3a44}.st1{fill:#c5e8f3}.st2{fill:#016848}.st3{fill:#d0df63}
  </style>
  <path id="Path_1921" d="M228.2 169.5l-53.4 15.6-12.9-21.9 66.3 6.3z" class="st0"/>
  <path id="Path_1922" d="M200.7 120.2l27.6 49.4-66.4-6.3 38.8-43.1z" class="st1"/>
  <path id="Path_1923" d="M174.8 185.1l-79.5-44.4 66.6 22.5 12.9 21.9z" class="st2"/>
  <path id="Path_1924" d="M200.7 120.2L95.3 140.8l66.6 22.5 38.8-43.1z" class="st3"/>
  <path id="Path_1925" d="M117.8 45.9L37.5 0l1 102 79.3-56.1z" class="st1"/>
  <path id="Path_1926" d="M54.3 148.8l63.5-102.9L38.5 102l15.8 46.8z" class="st2"/>
  <path d="M0 105.8l38.6-3.8-1-102L0 31.3z" class="st3"/>
  <path d="M0 137.1l54.4 11.7L38.6 102 0 105.7z" class="st0"/>
</svg>
