<svg xmlns="http://www.w3.org/2000/svg" id="Layer_1" viewBox="0 0 239.3 144.8">
  <style>
    .st0{fill:#1a3a44}.st1{fill:#c5e8f3}.st2{fill:#016848}.st3{fill:#d0df63}
  </style>
  <path id="Path_1794" d="M76.6 28.3l128.6 116.5-70.6-104.7-58-11.8z" class="st0"/>
  <path id="Path_1796" d="M76.6 28.3L203.1 0l-68.5 40.1-58-11.8z" class="st1"/>
  <path id="Path_1797" d="M69 53.9l-55.7 5.4-1.4-20L69 53.9z" class="st2"/>
  <path id="Path_1798" d="M0 35.1l11.9 4.1 24.9-19.9L0 35.1z" class="st3"/>
  <path id="Path_1799" d="M69 53.9L36.8 19.3 11.9 39.2 69 53.9z" class="st1"/>
  <path id="Path_1800" d="M13.3 59.3L0 35.1l11.9 4.1 1.4 20.1z" class="st0"/>
  <path d="M239.3 37L203.1 0l36.2 103.1z" class="st1"/>
  <path d="M239.3 121.8l-34.1 23 34.1-1.6z" class="st0"/>
  <path d="M239.3 114.5L134.6 40.1l70.6 104.7 34.1-23z" class="st2"/>
  <path d="M239.3 103.1L203.1 0l-68.5 40.1 104.7 74.4z" class="st3"/>
</svg>
