<svg xmlns="http://www.w3.org/2000/svg" id="Layer_1" viewBox="0 0 221.3 219.8">
  <style>
    .st0{fill:#016848}
  </style>
  <path d="M221.3 4.2V4v-.1s0-.1-.1-.1c0 0 0-.1-.1-.1 0-.1-.1-.1-.1-.2l-.1-.1c-.1-.1-.2-.1-.3-.2-.1 0-.2-.1-.3-.1L162.6 0h-.2c-.1 0-.1 0-.2.1h-.1l-.1.1s-.1 0-.1.1l-.1.1-.1.1v.2L154 27.9V28.2c0 .1 0 .2.1.3 0 .1.1.1.1.2.1.1.2.2.3.2l42.8 22.9h.5c.1 0 .2 0 .3-.1h.1c.1 0 .1-.1.2-.1h.1l.1-.1.1-.1 22.7-46.9c0-.1 0-.1.1-.2-.2 0-.2 0-.2-.1zm-23.6 44.4l-8.6-21.3 28.6-20.1-20 41.4zm-9.7-23L165.1 2.1 217.4 5 188 25.6zM163.1 2.9l22.6 23-29.4 1.2 6.8-24.2zm24.1 25l8.5 21L158.6 29l28.6-1.1zM162.8 181.8c0-.1 0-.2-.1-.2v-.1c0-.1-.1-.2-.1-.2l-.2-.2-39.4-20.9c-.1 0-.1-.1-.2-.1h-.5-.1c-.1 0-.2.1-.2.1l-23.4 16.4-.1.1c-.1 0-.1.1-.2.1 0 0 0 .1-.1.1l-.1.1V177.7c0 .1 0 .1.1.2l.1.1.1.1 41.3 40.5c.2.2.4.3.7.3.2 0 .3 0 .5-.1.3-.1.4-.4.5-.6l21.3-35.9s0-.1.1-.1v-.1-.3zM141 215l-5.9-36.5 25.1 4.1L141 215zm-6.5-38.7l-8.7-12.4 30.1 15.9-21.4-3.5zm-12.2-13.8l9.7 13.8-14.7.1-15 .1 20-14zm-20.7 16l16.5-.1 15-.1 5.9 36.9-37.4-36.7zM172.4 69.4v-.2-.2-.1l-.1-.1-.1-.1-.1-.1s-.1-.1-.2-.1L40.1 12.7c-.1 0-.2-.1-.4-.1h-.1c-.1 0-.2 0-.3.1h-.1L0 33.6v2.3l38.1-20.3L17 91.1l-17-.8v2l17.2.8 2.9 4.2L65.5 162 0 131.3v2.2l68 32h.2c.1 0 .1 0 .2.1h.1c.1 0 .2 0 .3-.1l.1-.1c.1 0 .1-.1.2-.1l103-95.1.1-.1.1-.1v-.1c0-.1 0-.1.1-.2v-.3zm-132-54.5l127.4 54L19.1 91l21.3-76.1zm28.2 148.2L19.5 92.9l148.9-22-99.8 92.2z" class="st0"/>
</svg>
