<svg xmlns="http://www.w3.org/2000/svg" id="Layer_1" viewBox="0 0 201.4 328.7">
  <style>
    .st0{fill:#016848}
  </style>
  <path d="M96.5 259v-.3c0-.1 0-.2-.1-.3v-.1c0-.1-.1-.1-.1-.2l-.2-.2-62.5-26.1h-.1H33.2h-.1c-.1 0-.1 0-.2.1h-.1c-.1 0-.1.1-.2.1h-.1l-.1.1-.1.1L.2 277.5c-.1.1-.1.2-.1.4v.5c0 .1.1.2.2.3l48.3 49.6h.1c.1.1.1.1.2.1 0 0 .1 0 .1.1h.4c.1 0 .2 0 .4-.1.1 0 .1-.1.2-.1l.2-.2 46.3-69v-.1c-.1.2 0 .1 0 0zm-3 0L48 290.7l-13.5-56.3 59 24.6zm-60.9-24L46 290.8 2.6 277.6l30-42.6zM4.4 280.2l42 12.9 1.7 32.1-43.7-45zm45.7 44.5l-1.7-31.9 43.3-30.2-41.6 62.1zM23.4 1.1v.1c0 .1 0 .1.1.2 0 0 0 .1.1.1 0 .1.1.1.2.2l39.8 34.6h.1c.1.1.1.1.2.1H64.2l31.9 2.2h.1c.1 0 .3 0 .4-.1h.1c.1 0 .2-.1.2-.2h.1s.1-.1.1-.2c0 0 0-.1.1-.1v-.1-.2-.2-.2c0-.1-.1-.1-.1-.2 0 0 0-.1-.1-.1L79.9 13.7c0-.1-.1-.1-.2-.2l-.1-.1s-.1-.1-.2-.1c0 0-.1 0-.1-.1L24.7 0h-.4-.1c-.1 0-.2 0-.2.1h-.1c-.1 0-.1.1-.2.1l-.1.1-.1.1s0 .1-.1.1c0 0 0 .1-.1.1V.9c.1.1.1.1.1.2zM63.3 18L34 4.4l41.2 10.1L63.3 18zm-1.1 1.7l.9 13.6L30.5 4.9l31.7 14.8zm3 15l-.9-13.8 27.6 15.7-26.7-1.9zm.5-15.3l13-3.9 14 19.2-27-15.3zM201.4 235.4l-129.1-35 48.6-52.7 80.5 84.3v-2.9l-78.7-82.4 71.6-22.1 7.1 58.9v-16.8l-5.2-43.5v-.1c0-.1-.1-.2-.1-.3v-.1l-.3-.3h-.1c-.1 0-.1-.1-.2-.1L18.9 65.4h-.4H18.2s-.1 0-.1.1c0 0-.1 0-.1.1l-.1.1-.1.1v.1c0 .1 0 .1-.1.2V66.8l51.9 134.5s0 .1.1.1v.1l.1.1.1.1.1.1h.1s.1 0 .2.1h.1l131.2 35.7v-2.2zm-9.5-112.1l-70.8 21.8-97.5-76 168.3 54.2zM20.8 69.4l98.7 76.9L70.8 199l-50-129.6z" class="st0"/>
</svg>
