<svg xmlns="http://www.w3.org/2000/svg" id="Layer_1" viewBox="0 0 1281.5 917.2">
  <style>
    .st0{fill:#016848}
  </style>
  <path d="M268.5 550.1c1.8 0 3.4-1.3 3.8-3.1l28.4-168.4c.3-2.9 2.7-5 5.6-5h24.1c.3 0 .5-.2.5-.5V257.3c0-7.1 5.5-12.9 12.6-13.3.1 0 .3-.1.4-.2.1-.1.1-.3.1-.4l-9.7-50.1c-.1-.3-.3-.4-.6-.4l-45.2 6.2c-1.9.2-3.6 1-5 2.2l-46.6 37.1c-1.3 1-2.7 1.9-4.1 2.6l-21.7 9.7c-1.4.6-2.3 2-2.3 3.5l-2.1 112.3c0 2.1 1.6 3.8 3.7 3.9l22.6.2c1.1 0 2.3-.2 3.4-.6l23.1-8.7c1.4-.6 3 .1 3.5 1.5l.2.7c.6 1.4-.1 3-1.5 3.5 0 0-.1 0-.2.1l-23 8.7c-1.7.7-3.6 1.1-5.5 1l-23.8-.2c-1.6 0-3 1-3.5 2.6l-.2.1.1.2-21.9 87.3v.3l6.2 12.4c.5 1 .6 2 .5 3.1l-9.5 65c-.1.8.1 1.6.6 2.3.5.7 1.3 1.1 2.2 1.1.6 0 1.2 0 1.8.2h.1c.1 0 .2 0 .3-.1.1-.1.2-.2.2-.4v-.4h82.4v-.2zm-82.8-1c-.3 0-.5.2-.5.5v.3c-.4-.1-.7-.1-1.1-.1h-.4c-.5 0-1-.2-1.3-.7-.3-.5-.5-1-.4-1.6l9.5-65c.2-1.3 0-2.5-.6-3.7l-6.1-12.2 21.6-86.1 37.8 71.7.9-.5-38.3-72.7c.4-1.1 1.4-1.8 2.6-1.8l23.7.2h.2c2 0 4-.4 5.8-1.1l22.9-8.6c.1 0 .1 0 .2-.1 1.9-.8 2.8-2.9 2-4.8l-.2-.5c0-.1 0-.1-.1-.2-.8-1.9-2.9-2.8-4.8-2l-23.1 8.6c-1 .3-2 .5-3 .5l-22.6-.2c-1.5-.1-2.7-1.3-2.7-2.8l2.1-112.3c0-1.1.6-2.1 1.6-2.5l21.7-9.7c1.5-.7 3-1.6 4.3-2.7l46.6-37.1c1.3-1.1 2.8-1.8 4.5-2l44.7-6.1 9.5 49.1c-7.3.7-13 6.8-13 14.2v115.3h-23.5c-3.5 0-6.3 2.5-6.7 5.9l-28.4 168.4c-.3 1.3-1.5 2.3-2.8 2.3h-82.6zM135 369.5l55.1.4c.3 0 .5-.2.5-.5v-.1l.1-.1-.1-.4 2.3-113.8v-.1-.1c0-.1 0-.1-.1-.1v-.1h-.1-.4l-48.7 21.9c-.1 0-.1.1-.2.2V277l.5 72c0 3.7-1 7.4-3.1 10.5l-6 9.4c-.1.2-.1.3 0 .5s.1.1.2.1zm37.1-50.3l19.7-60.9-2.2 107.9-17.5-47zm-27.4 28.2l-.5-68.9 26.7 40.6-26.2 28.3zm44.6-90.5l2.3-1-20.2 62.2-27-41 44.9-20.2zm-47.8 103c2.2-3.3 3.3-7.1 3.3-11l26.7-28.7 18.2 48.7-53.6-.3 5.4-8.7zM167.2 685.7c0 .2.1.5.3.6h.2c.2 0 .3-.1.4-.2L265 561.5c.6-.7.8-1.6.7-2.6-.1-.9-.6-1.7-1.3-2.3-.6-.4-1.3-.7-2.1-.7l-69.4.2c-.2 0-.3.1-.4.2-.1.1-.1.3-.1.4.3 1.3.4 2.7.2 4l-25.4 125zm26.4-124.8c.2-1.3.2-2.6-.1-3.8l68.7-.2c.5 0 1 .2 1.5.5.5.4.9 1 .9 1.6.1.7-.1 1.3-.5 1.8l-95.6 122.9 25.1-122.8zM551.5 123.5l-43.2 9c-.2 0-.3.2-.4.3-.1.2 0 .4.1.5l45.9 46.1c.1.1.2.1.4.1h.2c.2-.1.3-.2.3-.4l2.8-30c0-.5 0-1.1-.2-1.6l-5.3-23.7c-.1-.2-.3-.3-.6-.3zm5.1 25.5l-2.7 28.9-44.5-44.7 41.9-8.7 5.2 23.2c0 .5.1.9.1 1.3zM552.6 88.6c0-.2-.2-.3-.3-.4-.2-.1-.3 0-.5.1l-23.7 17.1c-.2.1-.3.4-.2.6.1.2.3.3.5.3h.1l26.3-5.5c.1 0 .2-.1.3-.2.1-.1.1-.2.1-.4l-2.6-11.6zm-21.9 16.3l21.1-15.3 2.4 10.4-23.5 4.9z" class="st0"/>
  <path d="M209.1 244.4c.1.1.2.1.3.1h.2l21-9.4c.8-.4 1.5-.8 2.2-1.3l49.2-39.2c.8-.6 1.8-1 2.8-1.1l47.7-6.5c.1 0 .3-.1.3-.2.1-.1.1-.2.1-.4l-2.8-15.2c0-.1-.1-.2-.2-.3-.1-.1-.2-.1-.4-.1l-123.6 25.8c-.2 0-.3.2-.4.3-.1.2 0 .4.1.5 2.6 2.8 4 6.4 3.9 10.2l-.7 36.4c0 .2.1.4.3.4zm-2.2-47l122.2-25.5 2.6 14.2-47.1 6.5c-1.2.2-2.3.6-3.2 1.3L232.2 233c-.6.5-1.3.9-2 1.2l-20.3 9 .7-35.6c0-3.7-1.3-7.3-3.7-10.2zM645.3 439.6l52.2 4.2c.2 0 .4-.1.5-.3.1-.2 0-.4-.1-.6l-48.5-48.4c-.1-.1-.3-.2-.5-.1s-.3.2-.3.4l-3.7 44.1c0 .1 0 .3.1.4s.1.3.3.3zm4.1-43.5l46.8 46.6-50.4-4.1 3.6-42.5zM643.5 379.5c.2-.1.3-.2.3-.4L654.3 258c0-.2-.1-.4-.3-.5l-45.4-15.1-107.8-108.2c-.1-.1-.3-.2-.5-.1l-52.1 10.8c-.1 0-.2.1-.3.2-.1.1-.1.3-.1.4l13.3 56-5.9 1.4-13.3-56.2c-.1-.3-.3-.4-.6-.4l-88.2 18.4c-.3.1-.4.3-.4.6l27.7 144.2c0 .2.2.4.5.4l21.9.7c.8 0 1.7-.3 2.3-.8.6-.6.9-1.3.9-2.1 0-5 4-9 9-9h41.2v9.7c0 .8.2 1.5.8 2.1.5.6 1.2.9 2 .9l50.1 3.4c.2 0 .4-.1.5-.3.1-.2.1-.4-.1-.5l-83.2-100 4.7-3.9L518.4 315c.1.1.2.2.4.2l61.1 4.2c2.2.2 4.3 1.2 5.9 2.7l57.4 57.4c.1.1.2.1.4.1-.2 0-.1-.1-.1-.1zm-.5-1.6l-56.6-56.6c-1.8-1.7-4.1-2.7-6.5-3l-60.9-4.2-87.6-105.4c-.1-.1-.2-.2-.3-.2-.1 0-.3 0-.4.1l-5.5 4.6c-.2.2-.2.5-.1.7l82.7 99.5-48.9-3.3c-.5 0-1-.2-1.3-.6-.3-.4-.5-.8-.5-1.4V298c0-.3-.2-.5-.5-.5h-41.7c-5.5 0-10 4.5-9.9 10.1 0 .5-.2 1-.5 1.4-.4.4-1 .6-1.6.6l-21.5-.7-27.5-143.3 87.3-18.2 13.3 56.2c.1.3.3.4.6.4l6.9-1.6c.1 0 .2-.1.3-.2s.1-.2.1-.4l-13.3-56 51.3-10.6 107.7 108c.1.1.1.1.2.1l45.2 15.1L643 377.9z" class="st0"/>
  <path d="M638.2 439c.3 0 .5-.2.5-.5l4.4-50.1c0-.1 0-.3-.1-.4l-61.4-61.4c-.5-.6-1.3-1-2.1-1l-54.4-3.7c-.2 0-.4.1-.5.3-.1.2-.1.4.1.5l5.8 7.1c3.7 4.3 3.1 10.8-1.2 14.5-.5.4-1.1.8-1.7 1.2-.1.1-.2.2-.2.3 0 .1 0 .3.1.4l53.5 88.1c.1.1.2.2.4.2l56.8 4.5zm-56.5-5.5L528.6 346c.5-.3.9-.6 1.4-1 4.7-4 5.3-11.2 1.3-15.9l-5.1-6.2 53.2 3.6c.6.1 1.1.3 1.5.7l61.3 61.3-4.3 49.4-56.2-4.4zM339.6 250.4v62.8c0 .3.2.5.5.5l19.4.5c.1 0 .3-.1.4-.2.1-.1.1-.3.1-.4l-12.2-63.4c0-.2-.3-.4-.5-.4h-7.2c-.2.1-.5.3-.5.6zm1 .5h6.3l12 62.3-18.3-.5v-61.8zM563.8 154.9c-.3 0-.5.2-.5.5l-2.6 30.2c0 .1 0 .3.1.4l51 51.2c.1.1.1.1.2.1l42.4 14.1h.2c.1 0 .2 0 .3-.1.1-.1.2-.2.2-.4l7.6-88.3c0-.1 0-.3-.1-.4-.1-.1-.2-.2-.3-.2l-98.5-7.1zm90.2 95.3l-41.6-13.9-50.8-50.9 2.6-29.5 97.3 7.2-7.5 87.1zM662.8 155.9c.3 0 .5-.2.5-.5l3.5-40.9c0-.1 0-.3-.1-.4-.1-.1-.2-.2-.3-.2l-50.7-3.5c-1.2 0-2.3.1-3.4.4l-53.7 11.1c-.1 0-.2.1-.3.2s-.1.2-.1.4l4.9 22.2.3 1.8c.1.6.2 1.1.3 1.8 0 .2.2.4.5.4l98.6 7.2zm-98.2-8.2c-.1-.5-.1-.9-.2-1.4-.1-.6-.2-1.1-.3-1.8l-4.8-21.7 53.2-11c1.1-.2 2.2-.3 3.2-.3l50.1 3.5-3.4 40-97.8-7.3zM708.3 444.7l46.6 6.5h.1c.1 0 .2 0 .2-.1l.1-.1h.1l143.8-176.5c.1-.1.1-.3.1-.5s-.2-.3-.4-.3l-2-.3-123.2-103c-.1-.1-.2-.1-.3-.1l-104.1-7.6c-.2 0-.5.2-.5.5l-19.2 222.6c0 .1 0 .3.1.4l58.4 58.4c-.1 0 0 .1.2.1zm47.7 3.9l49.8-187.4 91.2 13.5h.1c.1 0 .3-.1.4-.2l.5.1-142 174zm49.8-188.4l-24.3-68.1-7.1-19.7L895 273.2l-89.2-13zm-136.2-96.5l103.3 7.5 5.6 15.6 26.4 73.8-50.3 189.5-46-6.4-58.1-58.1 19.1-221.9zM280.7 551.8l118.4 40.1c1.1.3 2.3.6 3.5.7l50.5 2.5c.1 0 .3-.1.4-.2.1-.1.1-.3.1-.4l-15.5-148.1c-1.3-11.3-8.5-21.2-18.8-25.8l-7.2-3.2c-4.6-2.1-8.5-5.4-11.3-9.5L372 364.7c-2.1-3-3.5-6.3-4.2-9.9l-6.5-33.9c0-.2-.2-.4-.5-.4L340 320c-.1 0-.3 0-.4.1-.1.1-.2.2-.2.4v56.7a2.732 2.732 0 0 1-2.7 2.7h-21.4c-3.6 0-6.6 2.6-7.2 6.1l-27.9 165.4c.1.1.2.3.5.4zM309.2 386c.5-3 3.1-5.2 6.2-5.2h21.4c1 0 1.9-.4 2.6-1.1.7-.7 1.1-1.6 1.1-2.6V321l19.9.5 6.5 33.5c.7 3.7 2.2 7.1 4.3 10.2l28.8 43.2c2.9 4.3 7 7.7 11.7 9.9l7.2 3.2c10 4.5 17 14.1 18.2 25L452.5 594l-49.9-2.4c-1.1-.1-2.2-.4-3.3-.7l-118-39.9 27.9-165z" class="st0"/>
  <path d="M571.7 434.5c.2 0 .3-.1.4-.2.1-.2.1-.4 0-.5l-56.6-93.2c5.9 2.8 8.6.5 9.3-.4 1.4-1.6 1.4-4 .1-5.6l-10.2-12.2c-.1-.1-.2-.2-.3-.2l-65.4-4.6v-11.2c.1-.1.2-.2.2-.4 0-.3-.2-.5-.5-.5h-37.4c-.2 0-.3.1-.4.2s-.1.3-.1.4c.8 3.2-.1 6.7-2.5 9a9.19 9.19 0 0 1-6.7 2.5l-20.3-.5c-.2 0-.3.1-.4.2-.1.1-.1.3-.1.4L387 350c.5 2.8 1.6 5.4 3.3 7.8l28.8 43.1c2.2 3.3 5.3 5.8 8.9 7.4l7.1 3.2c6.3 2.8 11.8 7.3 15.7 13.1.1.1.2.2.4.2l120.5 9.7zm-120.4-10.7c-4-5.8-9.5-10.4-16-13.2l-7.1-3.2c-3.4-1.5-6.3-4-8.4-7.1L391 357.2c-1.6-2.2-2.6-4.7-3.1-7.4l-6.1-31.7 19.7.5c2.8.1 5.4-.9 7.4-2.8 2.5-2.4 3.6-6 2.9-9.4H448V318c0 .3.2.5.5.5l65.6 4.6 10.1 12c1 1.3 1 3.1-.1 4.4-.7.8-3.3 3-9.7-.7-.2-.1-.4-.1-.6.1-.2.2-.2.4-.1.6l57 93.9-119.4-9.6zM586 440.9c-.2 0-.4.1-.5.2-.1.2-.1.4 0 .5l45.5 74.8c.1.2.3.2.4.2h.1c.2 0 .4-.2.4-.4l6-70.6c0-.1 0-.3-.1-.4-.1-.1-.2-.2-.3-.2l-51.5-4.1zm45.2 73.7L587 441.9l50.1 4.1-5.9 68.6zM635.4 599.1c.1 0 .3-.1.4-.2.1-.1.1-.2.1-.4l-5.6-56.8c0-2.4 0-4.9.2-7.4l.2-6.9c0-.1 0-.2-.1-.3l-52.8-86.8c-.1-.1-.2-.2-.4-.2l-121.3-9.9c-.2 0-.3.1-.4.2-.1.1-.1.3-.1.5 1.4 3.3 2.3 6.7 2.6 10.3l15.5 149.3c0 .2.2.4.5.4l161.2 8.2zM474.7 590l-15.5-148.9c-.3-3.4-1.1-6.7-2.4-9.8l120.2 9.8 52.6 86.5-.2 6.7c-.2 2.5-.2 5-.2 7.5l5.6 56.3-160.1-8.1zM344.7 580.9L276 557.6c-.2-.1-.5 0-.6.2-.1.2-.2.3-.3.5-.2.2-.3.4-.3.5l-77.3 99.4c-.1.2-.1.4 0 .6.1.2.4.3.6.2 1.1-.4 2.3-.5 3.5-.3L322.9 684c.5.1.9.2 1.3.2 2.7 0 5.1-1.8 5.7-4.5 0-.2.1-.3.1-.4l18.7-91.4c.6-3.1-1.1-6.1-4-7zM323.1 683l-119.7-25 75.7-27.2 49.9 48.5v.1c-.6 2.6-3.3 4.3-5.9 3.6zm24.7-95.4l-18.5 90.5-49.6-48.3c-.1-.1-.3-.2-.5-.1l-77.6 27.9c-.3 0-.6-.1-1-.1-.5 0-.9 0-1.4.1l76.5-98.3c.1-.2.2-.3.3-.5.1-.1.1-.2.2-.2l68.3 23.2c2.3.8 3.8 3.3 3.3 5.8zM148.6 698.6l28.2-139.1c.2-.9-.1-1.7-.6-2.4-.6-.7-1.4-1-2.3-1.1-4.8 0-8.6-3.7-9-8.7v-.6l9.5-65.5v-.3l-5.6-11.1c-1-1.9-1.2-4.1-.7-6.2l21.9-87.2c0-.1 0-.3-.1-.4-.1-.1-.2-.2-.4-.2l-58.9-.4c-.2 0-.3.1-.4.2l-31.6 49.6c-3.5 5.5-9.7 8.9-16.2 8.9H61.6c-3.5 0-6.3 2.9-6.3 6.3V618c.1 4.3-1.4 8.5-4.1 11.9L25.6 664c-.1.1-.1.3-.1.4l13.6 48.7c.9 3.2 3.8 5.5 7.2 5.5h86.5c.2 0 .3-.1.4-.2l15.4-19.6v-.1c-.1 0 0 0 0-.1 0 .1 0 0 0 0zM167 463.5c-.6 2.3-.3 4.8.7 6.9l5.6 11-9.5 65.4v.8c.5 5.6 4.7 9.6 10 9.6.6 0 1.2.2 1.6.7.4.4.5 1 .4 1.5L148 696.2l-39.7-170.8L131 376.6l57.7.3-21.7 86.6zm-59.3 63.2l39.6 170.4-90.7-79.2 51.1-91.2zm-51.4 89.7V458.7l51 66.7-51 91zm5.3-181.1h20.5c6.9 0 13.5-3.5 17.2-9.4l30.5-48-22.3 146.2-51.2-67-.1.1v-16.5c.1-2.9 2.5-5.3 5.4-5.4zm70.9 282.3H46.3c-2.9 0-5.5-2-6.2-4.8l-13.5-48.5L52 630.4c2.7-3.3 4.2-7.4 4.3-11.6l91.2 79.6-15 19.2zM193.4 663.8c-.2-.1-.4 0-.6.2l-28.9 37.2c0 .1-.1.1-.1.2l-3.4 16.6c0 .1 0 .3.1.4.1.1.2.2.4.2h30c1.5 0 2.8-1.2 2.8-2.8v-51.5c.1-.2 0-.4-.3-.5zm-.6 52c0 1-.8 1.8-1.8 1.8h-29.4l3.2-15.9 28-36v50.1zM451.2 601.3h-.2l-.1-.1-.2.1-49.7-2.6c-2.8-.2-5.5-.7-8.2-1.6l-30.5-10.4c-1.6-.5-3.3-.4-4.8.3-1.5.8-2.6 2.1-3.2 3.7-.1.3-.2.5-.2.8l-18 89c-.7 3.4 1.4 6.7 4.8 7.5l121.8 25.4h.1c.1 0 .2 0 .3-.1.1-.1.2-.3.2-.4l-11.6-111c-.1-.4-.3-.6-.5-.6zm11 110.1l-71.4-77.5 60-31.5 11.4 109zM358 587.9c.8-.4 1.6-.6 2.4-.6.6 0 1.1.1 1.7.3l30.5 10.4c2.7.9 5.6 1.4 8.4 1.6l48 2.5-59 30.9-34.8-41.8c0-.1 0-.2.1-.3.4-1.3 1.4-2.4 2.7-3zm-2.9 4.8l34.1 41-51.8 45.5 17.7-86.5zm-18 88.1l52.8-46.3 71.5 77.6L341.1 687c-2.7-.7-4.5-3.4-4-6.2zM692 708.9L645.9 653c-3.3-4-5.4-8.9-5.9-14l-3.3-33c.1-.1.2-.3.1-.5 0-.2-.2-.4-.5-.4l-161.3-8c-.2 0-.4.1-.5.3 0 .1-.1.2 0 .2l11.6 111.7c0 .3.2.4.5.4h205.1c.2 0 .4-.1.5-.3.1-.2.1-.4-.1-.5h-.1zM480.6 598.3l153.8 7.8-106.3 54.4-52-62.4 4.5.2zm47.5 63.4l160.3 47.1H487.9l40.2-47.1zm117-8l45.2 54.6-161-47.3 106.4-54.4 3.3 32.5c.5 5.4 2.6 10.4 6.1 14.6zm-169.4-54.5l51.6 62-40.3 47.1-11.3-109.1z" class="st0"/>
  <path d="M791.6 777.2v-.1L745 611v-.1s0-.1-.1-.1h-.1-.1-.1l-101.1-5.1h-.2c-.1 0-.1.1-.1.1s-.1.1-.1.2v.2l3 30.5c.5 5.2 2.5 10.1 5.9 14l48.9 59h.1l90 68c.1.1.2.1.3.1h.2c.1 0 .2-.1.2-.2v-.1c-.1-.2-.1-.2-.1-.3 0 .1 0 .1 0 0zm-35.2-57l-17.8-28.7 6.1-77.5 44.9 160-33.2-53.8zm-13.5-108.6l-51 33.2-47.1-38.2 98.1 5zm1 .5l-6.2 78.4-45-45 51.2-33.4zm-6.6 79.4l-35.8 17.1-8.9-61.7 44.7 44.6zm-90.4-55l-2.9-29.3 47.5 38.5 8.9 61.9-47.8-57.6c-3.3-3.8-5.3-8.5-5.7-13.5zm91.1 55.8l17.9 28.9 33.4 54-87.3-65.8 36-17.1z" class="st0"/>
  <path d="M796.7 632.9l224.1-160.6.1-.1v-.1-.1-.2c0-.1 0-.1-.1-.2v-.1-.1L965.6 416l46.6-78v-.1-.1-.1-.1l-.1-.1s-.1 0-.1-.1h-.1-.1-.1-.1-.1L754.7 458.2h-.1l-109.9-12.7c-.1 0-.3 0-.4.1-.1.1-.2.2-.2.3l-7.8 89.7c-.2 1.6-.2 3.3 0 4.9l5.8 58.6c0 .2.2.4.5.4l102.4 5.1h.1l51 28.2h.2c.2.2.3.2.4.1zm128.6-215.3l13.1-.3 26.4-.7 52.9 53.1-92.4-52.1zm39.4-2l-12.5.3-27.3.7 84.8-76.3-45 75.3zM755.5 459l166.9-41-125.8 213.2-33.2-139-7.9-33.2zM722 517.2l22.4 86.4-100.6-5 78.2-81.4zm.8-.9l31.5-55.5-9.6 140.2-21.9-84.7zm32.4-54.3l40.4 169.5-50.1-27.7 9.7-141.8zM798 630.7l94.6-160.3 31-52.5 34.7 19.6 61.2 34.5L798 630.7zm210.9-291l-85.6 77.1-9.7 2.4L759.7 457l249.2-117.3zM637.3 540.5c-.2-1.5-.2-3.1 0-4.7l7.7-89.2 109 12.6-32.1 56.7-78.8 82-5.8-57.4z" class="st0"/>
  <path d="M995.6 415.9c-.1.1 0 .2-.1.2V416.4l42.9 46.8c.1.1.2.1.3.1h.1c.1 0 .1 0 .1-.1h.1l56.8-51.9v-.1c0-.1 0-.1.1-.2v-.1-.1s0-.1-.1-.1v-.1l-53-72.7-.1-.1c-.1 0-.1-.1-.2-.1h-.2c-.1 0-.1.1-.2.2l-46.5 78zm47.1-76.5l12.7 33.2 11.4 29.8-69.8 13 45.7-76zm23.9 64.2l-12.3 25.7-15.6 32.7-41.7-45.5 69.6-12.9zm-26.1 57.2l20.1-42.2 7.2-15.1 27 7.8-54.3 49.5zm54-50.7l-13.8-4-12.8-3.7-15-39.2-8.3-21.6 49.9 68.5zM881.6 849.6s0-.1 0 0c0-.1 0-.2-.1-.2 0 0 0-.1-.1-.1 0 0 0-.1-.1-.1L816.1 798h-.1-.1-.1-.1-.1-.1-.1-.1l-.1.1-.1.1v.4l28.2 100.6c0 .1 0 .1.1.2h.1c.1.1.2.1.3.1h.1l38.8-5.3h.1c.1 0 .1-.1.1-.1l.1-.1v-.1-.1l-1.4-44.2zm-25 10l-38.7-58.9 62.2 48.8-23.5 10.1zm25.7 32.6l-20.5-26-4.6-5.8 23.4-10 1.7 41.8zm-64.7-90.1l38.2 58.2-9.5 29.8-2.3 7.2-26.9-95.9.5.7zm30.6 85.4l8.4-26.3 25.3 32.1-37.2 5.1 3.5-10.9zM936.2 868.7s-.1 0 0 0c-.1-.1-.1-.1 0 0-.1-.1-.1-.1-.2-.1h-.2-.1-.1c-.1 0-.1.1-.1.1h-.1l-28.2 24.7c-.2.2-.2.5-.1.7L923 917s.1 0 .1.1v.1c.1.1.2.1.3.1H923.7l37.1-22.9c.1-.1.2-.2.2-.4s0-.3-.1-.4l-24.7-24.9zm-1.3 1.8l-11.7 45-15-21.7 26.7-23.3zm-10.6 45.1l11.8-45.6 23.6 23.6-35.4 22zM1065.2 879.6s0-.1 0 0c0-.1 0-.1 0 0 0-.1 0-.1 0 0-.1-.2-.1-.3-.2-.3l-.1-.1-49.4-19.4H1015.2h-.1-.1l-.1.1-21.2 33.5v.4c0 .1.1.1.1.2.1.1.1.1.2.1l30 8.8h.1c.1 0 .1 0 .2-.1l40.6-22.9.1-.1s0-.1.1-.1.1-.1.1-.1zm-40.8 22.2l-8.4-23.5 46.9 1.7-38.5 21.8zm37.4-22.8l-46-1.6V861l46 18zm-47-1.4L996 891.7l18.8-29.8v15.7zm-19.6 15.9l19.8-14.9 8.3 23.1-28.1-8.2zM886.9 71.2c0-.1 0-.1 0 0 0-.2-.1-.2-.1-.3-.1-.1-.2-.1-.3-.1h-.2l-128 23.7h-.1l-38.7 20.7c-3 1.6-6.4 2.3-9.8 2.1l-36.4-2.5c-.3 0-.5.2-.5.5l-3.5 40.9c0 .1 0 .3.1.4.1.1.2.2.3.2L825.4 167h.1c.1 0 .1 0 .2-.1 0 0 .1 0 .1-.1 0 0 .1 0 .1-.1l60.9-95.1c.1-.2.1-.3.1-.4zm-61.7 94.1l-65.5-69.8 76.3 3.6-10.8 66.2zm58.2-93l-47.1 25.8-73.5-3.5 120.6-22.3zm-213 83.4l3.4-40 35.9 2.4c3.6.3 7.2-.5 10.3-2.2l38.3-20.5 65.9 70.3-153.8-10zm156 8.4l10.5-65.2 48-26.3-58.5 91.5zM38.6 368.4c0 .1.1.2.2.2.1.1.2.1.3.1l87.7.7c.2 0 .4-.1.5-.3v-.2l8.2-13c1.4-2.2 2.1-4.7 2-7.3l-.4-68.8c0-.1 0-.2-.1-.3-.1-.1-.2-.2-.3-.2h-.2l-98.3 43.9c-.1 0-.2.1-.2.2v.1c0 .1-.1.1-.1.2l.7 44.5c-.1.1-.1.2 0 .2-.1 0-.1 0 0 0-.1 0 0 0 0 0zm2.1-.6l47-29.4 37.4 29.9-84.4-.5zm46.9-30.6l-47.8-13.5 95.1-42.5-47.3 56zm-48.1 30.2l-.7-42.9L86.5 338l-47 29.4zm95.1-11.9l-8.1 12.7-38.1-30.5 47.7-56.5.4 67.5c.1 2.4-.6 4.8-1.9 6.8zM1281.5 515.2v-.3c0-.1-.1-.2-.1-.2l-23-23h-.1l-.1-.1h-.1H1257.8h-.1-.1l-17 12-.1.1-.1.1c0 .1 0 .1-.1.2v31c0 .1 0 .2.1.3.1.1.1.1.2.1h.2c.1 0 .1 0 .2-.1l40-20c.4 0 .4 0 .5-.1zm-28.2-2.6l3.9 2.5-15.7 18.5v-28.7l11.8 7.7zm5.2-19.4l21.3 21.3h-21.3v-21.3zm-1 20.9l-15.6-10.1 15.6-11v21.1zm-14.5 19.4l15.3-18h20.7l-36 18zM1213.5 524.9c0-.1-.1-.2-.1-.2l-52-33c-.1-.1-.2-.1-.3-.1l-98 23h-.1-.1s-.1 0-.1.1v.6s0 .1.1.1h.2l105.7 54.2h.6s.1 0 .1-.1l44.3-44.2s0-.1.1-.1l.1-.1v-.1c-.5 0-.5-.1-.5-.1zm-30.6-6.1l-41.2-7.7 7.2-6.8 12.2-11.6 49.5 31.4-27.7-5.3zm-23.6-25.9l-18.9 18-72 3.3 90.9-21.3zm-94.4 22.5l75.4-3.5 27.3 56.2-102.7-52.7zm103.9 53l-27.4-56.3 70.5 13.2-43.1 43.1zM858.8 0l-5.3 13.2-20-8.3-12-5h-2.6L845.7 11l6.9 2.9-87.2 54 34-67.9h-1.2l-34.4 68.7L720.6 92c-1.8 1-3.8 1.5-5.9 1.3l-94.2-6.5c-1.8-.2-3.5 0-5.3.4L562 98.4l-3-13.7L664.5 9c1-.7 2.1-1.2 3.2-1.5L692.1 0h-3.4l-21.2 6.5c-1.2.4-2.4.9-3.5 1.7L558.2 84.1c-.2.1-.2.3-.2.5l3.2 14.5c.1.2.3.4.5.4h.1l53.7-11.3c1.6-.4 3.3-.5 5-.3l94.2 6.5c2.3.2 4.5-.3 6.5-1.5l43-23.1h.2c.1 0 .2 0 .3-.1L854 14.3c.1 0 .1-.1.1-.1v-.1L859.8 0h-1zM663.7 0c-1.4.5-2.8 1.3-4 2.2L557 75.9 539.8 0h-1l17.4 76.8c0 .2.2.3.3.4h.2c.1 0 .2 0 .3-.1L660.3 3c1.6-1.2 3.4-2.1 5.3-2.6l1.3-.4h-3.2zM506.5 0l-41.3 65.5c-.7 1.1-1.9 1.7-3.3 1.7h-17.8c-2.7 0-4.9 2.2-4.9 4.9l-.9 52-81.3 17L387.2 0h-1l-29.9 139.7-13-68c-1.3-7.4-4.7-14.1-9.8-19.5L283.6 0h-1.4l50.5 52.9c5 5.3 8.3 11.8 9.6 19l13.4 70.1c0 .1.1.2.2.3.1.1.2.1.3.1h.1l82.6-17.3c.2 0 .4-.2.4-.5l.9-52.4c0-2.2 1.8-3.9 3.9-3.9h17.8c1.7 0 3.2-.8 4.1-2.2l41.6-66h-1.1z" class="st0"/>
  <path d="M317.4 62.8L258.4 0H257l59.6 63.5c2.7 2.7 4.5 6.2 5.2 10l14 72.8c-20.3 4.1-176.4 35.4-177.5 35.7-3.7 1.2-7.8-.2-10-3.3-10.6-16-58-86.3-62.9-93.6l63-10.3c.2 0 .3-.1.4-.3l30-60.5L257 125.7c3.2 4.4 7.4 7.9 12.4 10l12.7 6c.2.1.5 0 .7-.2l3-6.4c.1-.1.1-.3 0-.4s-.1-.2-.3-.3l-12.9-6c-3.6-1.6-6.7-4.1-9-7.4L188.1 12.8l43.9 1.7c1.2-.2 2.3-.6 3.2-1.3 0 0 .1 0 .1-.1l11-13.1H245l-10.4 12.4c-.8.6-1.7 1-2.6 1.1l-44.8-1.8c-.2 0-.4.1-.5.3-.1.2-.1.4 0 .5l76.1 109.1c2.3 3.4 5.6 6.1 9.4 7.8l12.4 5.8-2.6 5.4-12.3-5.8c-4.8-2.1-8.9-5.5-12-9.7L179 12.7l-.1-.1-.1-.1c-.1 0-.2-.1-.2-.1H0v1h177.8L148 73.6 0 15.8v1.1L146.4 74 84.8 84c-3.5-5.1-9.1-8-15.2-8H0v1h69.4c6 0 11.5 2.9 14.8 7.9.5.8 52.2 77.5 63.4 94.3 1.9 2.7 4.9 4.2 8.1 4.2 1 0 2-.2 3-.5 1.9-.5 176.1-35.5 177.9-35.8.3-.1.4-.3.4-.6l-14.1-73.2c-.8-4-2.7-7.7-5.5-10.5zM25.3 99c-.1-.2-.3-.4-.5-.4H0v1h22.9L0 113v1.2l25-14.6c.2-.2.3-.4.3-.6z" class="st0"/>
  <path d="M80.2 89.7c-2.9-4.4-7.9-7-13.1-6.8L0 83.5v1l67.1-.6c4.9-.2 9.6 2.2 12.3 6.3l19.9 29.1c.4.6.6 1.2.6 1.9 0 .9-.4 1.8-1 2.5-.7.7-1.5 1-2.5 1l-96.4.6v1l96.4-.6c1.2 0 2.3-.5 3.2-1.3.9-.8 1.3-2 1.3-3.2 0-.9-.2-1.7-.7-2.5l-20-29zM139.9 181.5l-31.4-48c-.9-1.4-2.4-2.2-4-2.3-.1-.2-.3-.4-.5-.4l-104-.5v1.4l101.2.4L27.1 170 0 148.6v1.3l26.3 20.8L0 198.9v1.5l27.2-29.3 107.1 16L0 214.4v1l137.3-27.7c2.2-.4 3.6-2.6 3.2-4.8-.1-.5-.3-1-.6-1.4zm-2.5 5.1c-.1 0-.1-.1-.2-.1L28.6 170.3l74.8-38.2h.6c1.5 0 2.8.7 3.6 1.9l31.4 48c.2.3.4.7.4 1.1.4 1.5-.5 3-2 3.5zM185.4 198.9l-3.2.5c-.1-.1-.3-.1-.4-.1l-41.3 8.8c-3.5.4-5.9 3.6-5.7 7.7v36.7h-6.1v-35.3c-.1-3.1-2.6-5.5-5.7-5.5-.3 0-.6 0-.9.1L0 237.4v1L121.1 213l-40.6 51.8L0 252v1l80.6 12.9h.1c.2 0 .3-.1.4-.2l41.5-53c.2 0 .3 0 .5-.1 2.5-.1 4.7 2 4.7 4.5V253c0 .3.2.5.5.5h6.7c.4 0 .8-.4.8-.9v-15.8l31.2-9.4 24.6 19.6L0 332.7v1.1l192.8-86.1c.2-.1.3-.3.3-.4l.9-41.3v-.1c-.9-4.1-4.4-6.9-8.6-7zm-49.5 36.9v-20.1c-.1-3 1.3-6.2 4.7-6.7l25.5 17.7-30.2 9.1zm31.1-9.6l-25-17.3c6.6-1.2 33-6.9 38.9-8.2L167 226.2zm25.1 20l-24.3-19.4 14.4-26.4 3.3-.5c3.6.1 6.6 2.6 7.5 6.1l-.9 40.2zM31.7 326.7c-.1 0-.1 0 0 0l-.1-.1h-.1-.4L0 340.4v1.1l19.2-8.6 10.5-4.7L0 367.5v1.7l30.8-40.7 1.6 108.1c0 1.7-1.4 3-3 3H8.7L0 405.8v4l7.8 30.4v15.3H2.1c-.7 0-1.4.1-2.1.2v1c.7-.1 1.4-.2 2.1-.2h6.3c.3 0 .5-.2.5-.5v-15.4h20.5c2.2-.1 4-1.8 4-4L31.8 327c0-.1-.1-.2-.1-.3z" class="st0"/>
  <path d="M122.2 375.4l-83.2-.5c-.1 0-.3.1-.4.1-.1.1-.1.2-.1.4l.9 62.3c0 .4 0 .8-.2 1.3-1.2 4.5-5.3 7.7-9.9 7.7H15.4c-.3 0-.5.2-.5.5v15.4H0v1h14.9l1.2 70.6L0 516.6v1.5l15.9 17.4L0 554.2v1.5l16.4-19.4 32 84.2c0 1.2-.4 2.3-1.3 3.1L23.5 654l-1.7-5.8c-.1-.2-.3-.4-.5-.4H0v1h21l1.8 6.3c.1.2.2.3.4.4h.1c.2 0 .3-.1.4-.2l24.1-31c1-1 1.6-2.4 1.6-3.9V440.7c0-6.8 5.6-12.4 12.4-12.4h20.5c4.6 0 8.8-2.3 11.2-6.2l29.1-45.9c.1-.2.1-.3 0-.5s-.3-.3-.4-.3zM48.4 617.8l-31.3-82.4 31.3-91.8v174.2zm44.2-196.3c-2.2 3.6-6.1 5.8-10.3 5.8H61.8c-7.3 0-13.3 6-13.4 13.3l-31.4 92-1.2-69.5v-15.4h13.5c5.1-.1 9.6-3.6 10.9-8.5.2-.5.2-1.1.2-1.6l-.9-61.8 81.7.5-28.6 45.2zM1009.5 22.5c0-.1-.1-.1-.1-.1l-.1-.1L977.9 0h-1.7l28.2 19.9L961.5 0h-2.4l47.2 22-120.7-10.2L909.1 0h-2.2l-22.3 11.1L888.1 0h-1l-3.8 12V12.3c0 .1.1.1.1.2v.1c.1.1.2.1.3.1L1009 23.2c.1 0 .2 0 .3-.1l.1-.1v-.1-.1c.2-.2.2-.2.1-.3zM531.9 0l17.9 81.1-38.4 27.5-.2.2-64.9 13.5.9-47.1h18.9c1.5 0 2.8-.8 3.6-2L515.8 0h-1.2l-45.7 72.7c-.6.9-1.6 1.5-2.7 1.5h-19.4c-.3 0-.5.2-.5.5l-.9 48.2c0 .2.1.3.2.4.1.1.2.1.3.1h.1l66-13.8c.2 0 .3-.2.4-.3v-.2l38.3-27.4c.2-.1.2-.3.2-.5L532.9 0h-1z" class="st0"/>
</svg>
