<svg xmlns="http://www.w3.org/2000/svg" viewBox="0 0 1366 4333">
  <style>
    .st0{fill:none}.st1{fill:#c5e8f3}.st2{fill:#d0df63}.st3{fill:#016848}.st4{fill:#1a3a44}
  </style>
  <g id="group4_x5F_left">
    <path d="M199.3 3658.5l23.4 75.8-23.4-75.8z" class="st0"/>
    <path d="M83.9 4071.9l163.4-209.5-126-93.6z" class="st1"/>
    <path d="M76.4 3645.6l44.9 123.2 126 93.6z" class="st2"/>
    <path d="M121.3 3768.8L0 3806.2v77.7l83.9 188z" class="st3"/>
    <path d="M121.3 3768.8l-44.9-123.2L0 3767.1v39.1z" class="st1"/>
    <path d="M222.7 3734.3l27.9-62.3-51.3-13.5z" class="st3"/>
    <path d="M199.3 3658.5l-47.1 2.1 70.5 73.7zM199.3 3658.5l51.3 13.5-8.7-135.1-42.6 121.6z" class="st2"/>
    <path d="M241.9 3536.9l-89.7 123.7 47.1-2.1z" class="st1"/>
    <path d="M185.2 4132l33.8-10.4-31.3-36.9zM187.7 4084.7z" class="st2"/>
    <path d="M193.4 4205.6l25.6-84-33.8 10.4zM136.3 4117zM185.2 4132l2.5-47.3-51.4 32.3z" class="st1"/>
    <path d="M185.2 4132l-48.9-15 57.1 88.6z" class="st3"/>
  </g>
  <g id="group4_x5F_right">
    <path d="M1049.7 4102.8l172.9 165.6 80.6-172.8zM1048.4 4101.8l42.3-49.8 57.8-67.9-316.7 15.5 108.7 51.2zM1065.7 4101.4l236.8-6.8-152.8-110.4-100.1 117.6zM960.3 4125l-73.5 18.5 333.8 124.4-172.3-165zM970.1 4121.5l76.9-19.3-131.7-62.2-84.6-39.8 54.7 142.6z" class="st0"/>
    <path d="M1304.5 4095.2v-.2-.1-.1s-.1 0-.1-.1v-.1L1150 3983.1c-.1-.1-.2-.1-.3-.1l-319.8 15.6c-.1 0-.2.1-.2.1-.1.1-.1.1-.1.2v.2l55.3 144.2.1.1.1.1 337.6 125.8h.5l.1-.1.1-.1 81.3-174.1c-.2.3-.2.3-.2.2zm-2-.6l-236.9 6.8-16.1.5 100.1-117.6 152.9 110.3zm-79.9 173.8l-172.9-165.5 253.5-7.2-80.6 172.7zm-74.1-284.3l-57.8 67.9-42.3 49.7-107.9-50.9-108.6-51.3 316.6-15.4zM915.3 4040l131.8 62.2-76.9 19.3-84.7 21.3-54.7-142.7 84.5 39.9zm-28.5 103.5l73.5-18.5 88-22.1 172.3 165-333.8-124.4z" class="st3"/>
  </g>
  <g id="group3_x5F_left">
    <path d="M339.9 3248.1l28.5 35.8 91.4-41.2-119.9 5.4z" class="st4"/>
    <path d="M398.3 3161.6zM459.8 3242.7l-61.5-81.1-58.4 86.5z" class="st1"/>
    <path d="M339.9 3248.1l-124.4-23.4 152.9 59.2z" class="st3"/>
    <path d="M339.9 3248.1l58.4-86.5-182.8 63.1 124.4 23.4z" class="st2"/>
    <path d="M210.3 3021.9h-.1zM210.2 3021.9l-154.5-61.7 27.4 181.4zM55.6 2960.1v.1-.1z" class="st1"/>
    <path d="M122.9 3221.2l-.1-.1zM210.2 3021.9v-.1.1L83.1 3141.6v.1l39.8 79.4 87.3-199.2z" class="st3"/>
    <path d="M83.1 3141.7l-83.1 20v50.6l122.8 8.8.1.1h.1l-.1-.1-39.8-79.4z" class="st4"/>
    <path d="M0 3161.7l83.1-20v-.1l-27.4-181.4v-.1h-.1v.1L0 3021.5z" class="st2"/>
  </g>
  <g id="group3_x5F_right">
    <path d="M1055.6 3172.9l80.3 5.9-80.3-5.9zM1323.9 3246.9l42.1-56.5-42.1 56.5z" class="st0"/>
    <path d="M1135.9 3178.8l41.5 3.1-72.9-65.5-48.9 56.5z" class="st3"/>
    <path d="M1135.9 3178.8l-80.3-5.9-24.2 59 146-50z" class="st4"/>
    <path d="M1104.5 3116.4l-198.1-56.6 149.2 113.1z" class="st2"/>
    <path d="M1055.6 3172.9l-149.2-113.1 125 172.1 24.2-59zM1269.1 3104.2l-85 141.5 139.8 1.2z" class="st1"/>
    <path d="M1323.9 3246.9l42.1-56.5v-48.9l-96.9-37.3 54.8 142.7z" class="st2"/>
    <path d="M1366 3316.9v-126.5l-42.1 56.5z" class="st4"/>
    <path d="M1366 3316.9l-42.1-70-139.8-1.2 181.9 75.2z" class="st3"/>
  </g>
  <g id="group2_x5F_left">
    <path d="M308.1 2586.9l37.4-63.1-48.9-8zM176.5 2491l-90.2-128.8-86.3-4.1v49.9zM265.3 2515.9l-30.8.2 72.6 71.1-11.5-71.5zM361.9 2320.5l-235.3-99.8-34.1 121.5-5.3 19 137.9-20.5zM295.1 2514.7l-19.6-28-40.6 28.4 31.1-.2zM343.4 2522.4l-66.2-35 19.1 27.3zM86.2 2361.2l39.3-140.2L0 2287.9v69.2zM335.7 2246.8l74.3 39.7-16.9-42zM394 2244.2l17 42.2 39.5-81.8-4.3 3zM450.4 2203.5l-101.4-5.6 44.5 45.5zM348 2198.3l-13.5 47.6 57.7-2.3zM87.4 2362.1l90.7 129.4 184.1-170-193.4 28.6z" class="st0"/>
    <path d="M364.2 2320.5c0-.1-.1-.1-.1-.1l-.1-.1-237.4-100.7h-.1H126.2L0 2286.8v1.1l125.5-66.9-39.3 140.2-86.2-4.1v1l86.3 4.2 90.3 128.8L0 2408v1.1l177.8 83.7h.6s.1 0 .1-.1l185.7-171.5.1-.1.1-.1v-.1c-.2-.3-.2-.3-.2-.4zm-271.7 21.7l34.1-121.5 235.3 99.8-136.8 20.2-137.9 20.4 5.3-18.9zm85.6 149.3l-90.7-129.4 81.3-12 193.4-28.6-184 170zM452.2 2202.8c0-.1 0-.1 0 0-.1-.1-.1-.1 0 0-.1-.1-.2-.2-.3-.2l-104.1-5.7c-.2 0-.3 0-.4.1l-.1.1-13.8 49v.2c0 .1 0 .1.1.2l.1.1 77.1 41.2h.2c.1 0 .2 0 .2-.1v-.1s.1 0 .1-.1l40.9-84.5v-.2-.1c.1.2 0 .1 0 .1zm-1.8.7l-56.9 39.9L349 2198l101.4 5.5zm-102.4-5.2l44.3 45.2-57.7 2.3 13.4-47.5zm-12.3 48.5l57.3-2.3 16.9 42-74.2-39.7zm75.3 39.6l-17-42.2 52.2-36.6 4.4-3.1-39.6 81.9zM346.8 2523.2c0-.1-.1-.1-.1-.2l-70.7-37.4c-.1-.1-.2-.1-.3 0-.1 0-.1 0-.1.1l-42.3 29.6c-.1.1-.1.1-.1.2V2515.8s0 .1.1.1c0 0 0 .1.1.1l74.5 73c.1.1.2.1.4.1.1 0 .2 0 .2-.1.2-.1.3-.3.3-.5l38.4-65v-.1-.1-.1c-.4.1-.4.1-.4 0zm-3.4-.8l-47-7.7-19.1-27.3 66.1 35zm-67.9-35.7l19.6 28-29.1.2-31.1.2 40.6-28.4zm-41 29.4l30.8-.2 30.3-.2 11.5 71.6-72.6-71.2zm73.6 70.8l-11.5-71.2 48.9 8-37.4 63.2z" class="st3"/>
  </g>
  <g id="group2_x5F_right_x5F_top_1_">
    <g id="Group_506" transform="translate(1016.76 3456.801)">
      <g id="Group_502">
        <path id="Path_1909" d="M127.3-1200L0-1019.1l127.3-23.4V-1200z" class="st2"/>
      </g>
      <g id="Group_503" transform="translate(127.295)">
        <path id="Path_1910" d="M90.4-1019.1L0-1200v157.4l90.4 23.5z" class="st1"/>
      </g>
      <g id="Group_504" transform="translate(0 157.444)">
        <path id="Path_1911" d="M0-1176.6l63.6 87.1 63.7-110.5L0-1176.6z" class="st1"/>
      </g>
      <g id="Group_505" transform="translate(63.648 157.444)">
        <path id="Path_1912" d="M154.1-1176.6L0-1089.5 63.6-1200l90.5 23.4z" class="st3"/>
      </g>
    </g>
  </g>
  <g id="group2_x5F_right_x5F_top">
    <path d="M1267.7 1892.8zM1267.7 1892.8l-109 127L1366 2176l-207.3-156.2z" class="st0"/>
    <path d="M1035 2036.1zM1158.7 2019.8l-123.7 16.3 331 141.7v-1.8z" class="st4"/>
    <path d="M1366 1942.1l-98.3-49.3L1366 2017zM1267.7 1892.8L1035 2036.1l123.7-16.3z" class="st1"/>
    <path d="M883.3 1952.3l16.7 39 107.3-49-124 10z" class="st3"/>
    <path d="M919.3 1895.4l-62.5 56.8 26.5.1zM856.8 1952.2zM883.3 1952.3z" class="st2"/>
    <path d="M883.3 1952.3l124-10-88-46.9z" class="st1"/>
    <path d="M883.3 1952.3l-26.5-.1 43.2 39.1-16.7-39z" class="st4"/>
    <path d="M1267.7 1892.8l-109 127 207.3 61V2017l-98.3-124.2z" class="st2"/>
    <path d="M1366 2176v-95.2l-207.3-61z" class="st3"/>
  </g>
  <g id="group1_x5F_left">
    <path d="M557.9 1204.9zM557.9 1170.8v34.1l29.4-34.1z" class="st2"/>
    <path d="M587.3 1170.8l-51.1-29.6 21.7 29.6z" class="st1"/>
    <path d="M536.2 1187.1l21.7 17.8v-34.1z" class="st4"/>
    <path d="M557.9 1170.8l-21.7-29.6v45.9z" class="st3"/>
    <path d="M393.9 1184.9l66.5-48.9-92.6 20.1z" class="st4"/>
    <path d="M367.8 1156.1l92.6-20.1-56.6-65.5z" class="st1"/>
    <path d="M268.6 1150.8l125.3 34.1-26.1-28.8z" class="st3"/>
    <path d="M367.8 1156.1l36-85.6-135.2 80.3zM91.2 957.3l7.2 73.8 170.6 39.3z" class="st2"/>
    <path d="M98.4 1031.1l-17.5 151.2L269 1070.4z" class="st3"/>
    <path d="M98.4 1031.1l-7.2-73.8L0 902.7v18.7z" class="st1"/>
    <path d="M0 974.3l80.9 208 17.5-151.2L0 921.4zM0 1135.4v104.2l80.9-57.3zM80.9 1182.3z" class="st4"/>
    <path d="M0 1135.4l80.9 46.9L0 974.3z" class="st2"/>
  </g>
  <g id="group1_x5F_right_x5F_bottom">
    <path d="M1201.5 1096.6l-55.8-26.1 57.4 49.9zM1178.4 1515l2.8 52.4 68.5-102.1zM1250.6 1463.4l-94-39.3 21.6 89.8zM1164 1459l-8.3-34.5-48.1 68.2 69.6 21.3zM1108.5 1494l71.7 73.7-2.8-52.6zM1203.2 1096.4l47.6 27-24.7-33.9zM1202.5 1097.1l1.6 24 46.3 3.2zM1202 1095.7l22.4-6.7-77-18.8zM1289.7 1291l-155-120.8 78.6 203.5zM1290.6 1290.4l75.4-23.3V1244l-229.9-74zM1366 1369.3v-101.2l-74.6 23.1zM1214.1 1374.4l151.9 41.3v-44.9l-75.5-79.2z" class="st0"/>
    <path d="M1214.1 1374.4l76.4-82.8 75.5 79.2v-1.4l-74.6-78.2 74.6-23v-1l-75.4 23.3-154.5-120.5 229.9 74v-1.1l-232.2-74.8h-.1c-.1 0-.2 0-.3.1-.1 0-.1.1-.1.2v.4l79.5 206s0 .1.1.1c0 0 0 .1.1.1l.1.1h.1l153 41.6v-1l-152.1-41.3zm75.6-83.4l-76.4 82.8-78.6-203.6 155 120.8zM1252 1463.1c0-.1 0-.1 0 0 0-.1 0-.1 0 0l-.2-.2-95.7-40h-.1-.2s-.1 0-.1.1h-.1v.1l-49.2 69.7c0 .1-.1.2-.1.2v.2c0 .1.1.1.1.2l74 76c.1.1.1.1.2.1H1180.9c.1 0 .2-.1.2-.2l70.9-105.6v-.1c.1-.2.1-.4 0-.5zm-73.6 51.9l71.3-49.7-68.5 102.2-2.8-52.5zm72.2-51.6l-72.4 50.4-21.6-89.8 94 39.4zm-94.9-38.9l8.3 34.5 13.2 55-69.6-21.3 48.1-68.2zm-47.2 69.5l68.9 21.1 2.8 52.6-71.7-73.7zM1142.1 1068.6c0 .1 0 .1.1.2 0 .1.1.1.1.1l61 53c.1.1.2.2.3.2l48.9 3.4c.1 0 .2 0 .3-.1h.1v-.1l.1-.1v-.1c0-.1 0-.2-.1-.3l-26.3-36c0-.1-.1-.1-.2-.1 0 0-.1 0-.1-.1l-83.7-20.4H1142.3s-.1 0-.1.1V1068.6c-.1-.1-.1-.1-.1 0zm60.4 28.5l47.9 27.2-46.3-3.2-1.6-24zm.7-.7l22.9-6.9 24.7 33.9-47.6-27zm-1.7.2l1.6 23.9-57.4-49.9 55.8 26zm.5-.9l-54.6-25.5 77 18.8-22.4 6.7z" class="st3"/>
  </g>
  <g id="group1_x5F_right_x5F_top">
    <path d="M1314.9 629.3l-9.1 74.1 9.1-74.1-33.7-92.4 33.7 92.4zM1366 547l-27.9 1.2 27.9-1.2z" class="st0"/>
    <path d="M1314.9 629.3l-9.1 74.1-18.9 153.3 79.1-101.4v-88zM1286.9 856.7z" class="st1"/>
    <path d="M1366 667.3v-22.8l-84.8-107.6 33.7 92.4z" class="st2"/>
    <path d="M1314.9 629.3L1201 664.4l85.9 192.3 18.9-153.3z" class="st3"/>
    <path d="M1314.9 629.3l-33.7-92.4-80.2 127.5 113.9-35.1z" class="st1"/>
    <path d="M1338.1 548.2l27.9 29.2V547z" class="st2"/>
    <path d="M1366 509.7l-27.9 38.5 27.9-1.2z" class="st1"/>
    <path d="M1366 867.9l-1.3-1.5-1.9 35.4 3.2-.9z" class="st2"/>
    <path d="M1326.1 890.6zM1362.8 901.8l3.2 28.6v-29.5l-3.2.9 1.9-35.4-38.6 24.2z" class="st1"/>
    <path d="M1366 930.4l-3.2-28.6-36.7-11.2 39.9 61.8z" class="st3"/>
  </g>
  <g id="group0_x5F_top">
    <path d="M150 302.2l-20 51.6 290.4-149.3-247.3 38.2zM222.6 180.3l-48.7 61.3 246.6-38.2-185.9-38.3zM127.8 354.3l-66.7-70.9-61.1-65v126.9zM614.8 300.3l-154.7-52.8 8.5 45.1zM168.8 236.6l4 4.9 47.9-60.5 13-16.3L0 23.6v6.5zM459.1 247.7l-95.6 85.9 104.1-40.9zM63.2 284.1l65.7 69.8 15.6-40.1 27.6-71.2L0 198.1v18.8zM171.4 241.4L0 31.7v165.4zM362.4 335.2L487.2 395l-19.4-101.3zM861.1 298.6l-118.4-72.8-35 31.3zM667.1 250.6l55 62.1-15.8-54.9zM740.5 226.4l-72.7 23.3 38.7 7.1zM723.6 314.2l138-14.4-154.2-41.7zM488.2 395L617 301.4l-148.2-7.8z" class="st0"/>
    <path d="M423.6 203.9l.1-.1v-.1s0-.1.1-.1v-.1-.1-.1-.1c-.1-.2-.2-.3-.4-.3l-188.9-39L0 22.5v1.2l233.7 141-13 16.4-47.9 60.4-4-4.9L0 30.1v1.6l171.4 209.7L0 197.1v1l172.1 44.5-27.6 71.1-15.6 40.2-65.7-69.8L0 216.9v1.5l61.1 65 66.7 70.9-127.8-9v1l129 9H129.3l294.3-151.4c0 .1 0 0 0 0zM130 353.8l20-51.6 23.1-59.5 247.3-38.3L130 353.8zm43.9-112.2l48.6-61.3 12-15.2 185.9 38.4-246.5 38.1zM618.9 300.8c0-.1-.1-.2-.2-.2l-.1-.1-159-54.2h-.3-.1c-.1 0-.1 0-.2.1l-98.3 88.4s0 .1-.1.1c-.1.1-.1.2-.1.3 0 .1 0 .2.1.3l.2.2 126.7 60.7h.2c.1 0 .2 0 .3-.1l130.5-94.9.2-.2c.2-.2.2-.3.2-.4zm-4.1-.5l-146.3-7.7-8.5-45 154.8 52.7zm-155.7-52.6l8.5 45-104.1 40.9 95.6-85.9zm-96.7 87.5l105.4-41.4L487.2 395l-124.8-59.8zM488.2 395l-19.5-101.4 148.2 7.8L488.2 395zM864.6 299.6l-121.7-74.8c-.1 0-.2-.1-.2-.1h-.1l-76.9 24.7s-.1 0-.1.1c-.1 0-.1.1-.1.1v.1c0 .1-.1.2 0 .2 0 .1.1.2.1.3l57.5 64.8s.1 0 .1.1c.1 0 .1.1.2.1h.1l141.2-14.7c.1 0 .1 0 .2-.1s.2-.2.2-.4c-.2-.2-.3-.3-.5-.4zm-121.9-73.8l118.4 72.8-153.4-41.5 35-31.3zm-2.2.6l-34 30.4-38.7-7.1 72.7-23.3zm-73.4 24.2l39.2 7.2 15.8 54.9-55-62.1zm56.5 63.6l-16.2-56.1 154.2 41.7-138 14.4z" class="st3"/>
  </g>
</svg>
