<svg xmlns="http://www.w3.org/2000/svg" id="Group_258" data-name="Group 258" viewBox="0 0 139.2 222.1">
  <defs/>
  <path id="Path_1660" fill="#fff" d="M24 3.7h91.2A20.315 20.315 0 0 1 135.5 24v174.1a20.315 20.315 0 0 1-20.3 20.3H24a20.315 20.315 0 0 1-20.3-20.3V24A20.315 20.315 0 0 1 24 3.7z" data-name="Path 1660"/>
  <path id="Path_1661" d="M115.2 7.4A16.559 16.559 0 0 1 131.8 24v174.1a16.559 16.559 0 0 1-16.6 16.6H24a16.559 16.559 0 0 1-16.6-16.6V24A16.559 16.559 0 0 1 24 7.4h91.2m0-7.4H24A24.071 24.071 0 0 0 0 24v174.1a24.071 24.071 0 0 0 24 24h91.2a24.071 24.071 0 0 0 24-24V24a24.006 24.006 0 0 0-24-24z" class="cls-2" data-name="Path 1661"/>
  <path id="M_1_" d="M31.1 38.1l8.1 17.8 8.2-17.8h5.8v44.5h-6V51.8l-6.9 14.5h-2.5l-6.9-14.8v31.2h-6V38.1z" class="cls-2"/>
  <path id="I_1_" d="M65.2 38.1v44.5h-6V38.1z" class="cls-2"/>
  <path id="L_1_" d="M77.7 38.1v39.1h13.5v5.5H71.7V38.2z" class="cls-2"/>
  <path id="E_1_" d="M113.9 38.1v5.5h-12.7v14.2h8.9v5.3h-9v14.2H114v5.5H95.2V38.2z" class="cls-2"/>
  <path id="Path_1662" d="M45 126.1A29.1 29.1 0 0 1 69.7 114c12.7 0 23.3 6.3 23.3 20.2a17.253 17.253 0 0 1-7.4 14.8c-5.6 4.3-14.5 8.1-19.8 11.7-5.3 3.7-6.5 7-6.5 10.6h33.4V184H44v-4c0-10.3 2.1-18.8 8.5-24.5 5.6-5 15.9-9.3 20.8-12.1s6.6-5.1 6.6-8.6c0-5.5-4.1-7.9-9.7-7.9a20.228 20.228 0 0 0-16.1 8.5z" class="cls-2" data-name="Path 1662"/>
</svg>
