<svg xmlns="http://www.w3.org/2000/svg" id="Layer_1" viewBox="0 0 1367 359.5">
  <style>
    .st1{fill:#fff}
  </style>
  <path id="Rectangle_217-2" fill="#016948" d="M0 0h1367v359.5H0z"/>
  <path d="M384.7 132.8l-59.4 27.6-82.8 40.9c-.1.1-.2.1-.3.2v.1c-.1.1-.1.1-.1.2v.8c0 .1 0 .1.1.1l.1.1.1.1.1.1.1.1 87.6 40.4 57.8 31.9c.2.1.3.1.5.1.3 0 .6-.1.8-.3l77.2-88c.1-.1.1-.2.2-.2 0-.1.1-.2.1-.3v-.1-.2-.1c0-.1-.1-.1-.1-.2v-.1l-.2-.2-80.5-52.7h-.1c-.1 0-.1-.1-.2-.1h-.1-.1-.1-.1-.1c-.4-.3-.4-.3-.5-.2.1 0 0-.1 0 0zm-53.6 106.5l-7.7-50.9 58.6-50.6-50.9 101.5zm1.6 1.3l52.9-105.5 78 51.1-130.9 54.4zm32.4-91l-41.4 35.8 3-23.5 52.4-24.3-14 12zM324.5 163l-.8 6.6-2.2 17.5-55.1 9.9-16.6 3 74.7-37zm-78.3 39.6l75.3-13.5 7.8 51.8-83.1-38.3zm142 70.6l-55.4-30.5L462.1 189l-73.9 84.2zM432.3 24.5L475 160.2c0 .1 0 .1.1.1 0 0 0 .1.1.1.1.1.1.2.2.2.1.1.2.1.3.2l72 19.3h.6c.1 0 .1-.1.2-.1h.1l.2-.2c.1-.2.2-.4.2-.6l-2.5-90.7c0-.1 0-.3-.1-.4-.1-.1-.1-.2-.2-.3h-.1l-.1-.1-112.2-64.4h-.1c-.1 0-.1 0-.2-.1h-.4c-.1 0-.1 0-.2.1h-.1c-.1 0-.1.1-.2.1l-.1.1s0 .1-.1.1c0 .1-.1.1-.1.2V24.5zm56.4 74.8l56.8 78.2-68.4-18.3 11.6-59.9zm-16.1-21.5L487.1 97l-11.4 58.8L436 29.4l36.6 48.4zm74.3 98.2L490 97.6l46.5-6.7 8.1-1.2 2.3 86.3zm-4.5-88.1l-53.8 7.8L437 27.5l105.4 60.4zM336.9 276v-.2c0-.1 0-.1-.1-.2 0-.1-.1-.1-.1-.1l-.1-.1-.1-.1h-.1l-179.9-93.9h-.1-.1-.1H155.9h-.1-.1-.1s-.1 0-.1.1h-.1l-77.6 68.8-.1.1-.1.1c0 .1-.1.1-.1.2v.5c0 .1 0 .2.1.2v.1c0 .1.1.1.1.1s.1 0 .1.1l.1.1 49.7 33.4c.1 0 .1.1.2.1H128.1l207.8-8.3H336.2c.1 0 .1 0 .2-.1l.1-.1.1-.1.1-.1.1-.1v-.1-.1-.1c.1-.1.1-.1.1-.2zm-9.2-3l-96.5-24.9-66.3-17.1-4.2-26.1-3.4-20.8L327.7 273zm-172.4-88.8l7.6 46.8-17.6 4L82 249.2l73.3-65zm-3.3 51.3l9.7-2.2-33.9 49.7-47-31.6 71.2-15.9zm-22 47.9l34.4-50.4 62.7 16.2 102 26.3-199.1 7.9zM65.6 121v.2c0 .1 0 .1.1.2v.2s0 .1.1.1l.1.1s.1 0 .1.1c.1 0 .2.1.2.1l126 34h.3c.1 0 .3 0 .4-.1h.1c.1-.1.2-.1.3-.3.1-.1.1-.2.1-.2 0-.1 0-.2.1-.3v-.1c0-.1 0-.2-.1-.3v-.1c0-.1-.1-.1-.1-.2L107.1 52.7l-.2-.2h-.1c-.1 0-.1-.1-.2-.1h-.5-.1-.1s-.1 0-.1.1c-.1 0-.1.1-.1.1l-.1.1c0 .1-.1.1-.1.2v.1L91.7 92.3l-25.8 28-.1.1c0 .1-.1.1-.1.2V120.9l-.1.1zm5.2 0l35.8-8 76.6 38.5L70.8 121zm36.9-9.7l-.4-55.2 81.2 95.8-80.8-40.6zm-2.3-52.1l.3 49.7-8.3-11.2-3.7-5 11.7-33.5zM92.5 94.4l1.4 1.8 11.2 15.1-35.5 8 22.9-24.9zM658.5 122.9l-53.4 220.3v.6c0 .1.1.1.1.2v.1c.1.1.2.2.3.2h.1c.1.1.3.1.4.1.1 0 .2 0 .3-.1h.2l201.5-125c.2-.1.3-.3.4-.4v-.2-.1-.2-.1c0-.1 0-.1-.1-.2 0 0 0-.1-.1-.1l-.1-.1-.1-.1-148-95.4c-.1 0-.2-.1-.2-.1H659.5h-.1-.1c-.1 0-.1 0-.2.1s-.2.1-.3.2v.1c0 .1-.1.1-.1.2-.1-.1-.2 0-.2 0zm73.4 88.3l72.7 7.9-192.5 119.5 119.8-127.4zm-1.7-1.1L608 340l52-214.6 41.4 50 28.8 34.7zm73.3 6.9l-71.5-7.8-2-2.4-65.6-79.2L803.5 217zM760.1 178.7l.1.1c.1 0 .1.1.2.1s.1.1.2.1.1 0 .1.1l76.1 8.3h.1c.3 0 .6-.1.8-.4.2-.3.3-.6.1-1L796.7 77.8c0-.1-.1-.2-.1-.3l-.2-.2c-.1 0-.1-.1-.2-.1H795.9h-.1-.1l-106.9 13c-.4 0-.7.3-.8.6-.1.3-.1.7.2 1l71.9 86.9zm2.1-1.5L795.8 81l39.7 104.1-73.3-7.9zm32.1-97.9l-32.5 93.2-1.3 3.6-69.7-84.2 103.5-12.6zM1140 196.6l106.5-47c.1-.1.2-.1.3-.2.1-.1.1-.1.1-.2v-.1c0-.1.1-.2.1-.3v-.3-.1c0-.1-.1-.1-.1-.2l-79.4-102-.1-.1-.2-.2h-.1c-.1 0-.1-.1-.2-.1H1166.6h-.1-.1-.1s-.1 0-.1.1c-.1 0-.1.1-.2.1l-.1.1s-.1.1-.1.2v.1L1152 75.6l-39-16.4c-.1 0-.2-.1-.3-.1H1112.4s-.1 0-.1.1c0 0-.1 0-.1.1h-.1l-.1.1c-.1 0-.1.1-.1.2v.1c0 .1-.1.1-.1.2v.4l27.1 135.5c0 .1 0 .1.1.2v.1c.1.1.1.2.2.2.1.1.2.1.3.2H1139.8c-.1.2.1.1.2.1zm27.7-93.1v-54l74.6 95.8-74.6-41.8zm-.4 2.1l76.6 42.9-102.7 45.4 26.1-88.3zm-1.6-54.5v49l-12.1-23.2 12.1-25.8zm-14 26.6l9.2 17.6 2.6 5-45-36.5 33.2 13.9zm13.9 26.8l-25.7 87-25.7-128.9 51.4 41.9zM1327.9 204.3v-.1-.1-.1s0-.1-.1-.1l-.1-.1-.1-.1-.1-.1-51-33.1c-.3-.2-.6-.2-.9-.1l-69.6 24.2c-.1 0-.2.1-.2.1-.1.1-.2.2-.2.3l-34.7 58.8v.1s0 .1-.1.1v.6s0 .1.1.1c0 0 0 .1.1.1v.1c.1.1.2.2.3.2l100.7 46.3c.1.1.3.1.4.1.4 0 .7-.2.9-.5l54.6-96.2v-.1-.1-.2-.1c.1.2.1.1 0 0zm-154 48.5l33-56 114.8 8.5-138.9 44.7-8.9 2.8zm102-80.2l47.3 30.7-111.8-8.3 64.5-22.4zm-3.9 126.9l-97.5-44.9 17.1-5.5 133.3-42.9-52.9 93.3zM600.5 141.2c0 .1.1.2.1.2s0 .1.1.1c0 .1.1.1.1.1l.1.1.1.1.1.1h.4c.1 0 .2 0 .3-.1h.1c.1 0 .2-.1.3-.2v-.1l.1-.1 31.1-47v-.1-.1-.2-.1-.2-.1c0-.1 0-.2-.1-.2L620.1 62c0-.1-.1-.2-.1-.2-.1 0-.1-.1-.2-.1h-.1c-.1 0-.1 0-.2-.1h-.4c-.1 0-.2.1-.3.1l-27.4 15.7c-.1 0-.1.1-.2.2l-.1.1s-.1.1-.1.2v.1c0 .1 0 .1-.1.2V78.5l9.6 62.7zm4.4-54.6L619 64.5l11.9 28.1-26-6zm-2.6 1.1l-1.4 42.6-7.7-49.9 9.1 7.3zm2 .8l26.7 6.2-28.3 42.9 1.6-49.1zm11.8-23.2L603 85.8l-9.5-7.6 22.6-12.9zM1008.2 109.8v-.1-.2-.1c0-.1 0-.1-.1-.1 0 0 0-.1-.1-.1l-.1-.1-.1-.1-73.2-52.4c-.1-.1-.2-.1-.3-.1H934h-.1c-.1 0-.1 0-.2.1 0 0-.1 0-.1.1h-.1l-.1.1-.1.1c0 .1-.1.1-.1.2 0 0 0 .1-.1.1 0 .1-.1.2-.1.3l-4.6 88.5V146.3c0 .1 0 .1.1.2v.1c0 .1.1.1.1.2l.1.1.1.1 64.4 36.9h.2c.1.1.2.1.4.1h.5c.1-.1.2-.1.3-.2v-.1c0-.1.1-.1.1-.2v-.1-.1l13.4-73.1v-.1l.1-.3zm-15 70.8l-38.1-45.5 50.8-23.6-12.7 69.1zm12-71l-49.8 23.1-1.3.6-18.5-73.5 69.6 49.8zm-70.5-45.5l17.6 70.1-21.8 10.1 4.2-80.2zm-3.1 81.9l21.6-10 36.2 43.2-57.8-33.2zM559.3 301.8h.4c.1 0 .1-.1.2-.1l.1-.1.1-.1s0-.1.1-.1l.1-.1v-.1-.1-.2-89.1-.3-.1c0-.1-.1-.1-.1-.2 0 0 0-.1-.1-.1l-.1-.1s-.1 0-.1-.1c0 0-.1 0-.1-.1h-.1H559.4h-.1l-71.1-2.5h-.2c-.2 0-.4.1-.6.3-.1.1-.1.1-.1.2V209.5l29.9 92s0 .1.1.1c0 .1.1.1.1.2v.1h.1c.1.1.1.1.2.1h.1c.1 0 .2.1.3.1l41.2-.3zm-32.1-46.2l-7.7-10.5 38.8-31.3v83.9l-31.1-42.1zm-10.1-10.3V295l-26.3-81.1 26.3 31.4zm1.1-1.7l-27.8-33.2 66.2 2.3-38.4 30.9zm.9 4.4l8.9 12.1 29.3 39.8-38.3.4V248zM889.4 57.3l-39 28.5-.1.1-.1.1c0 .1-.1.1-.1.2 0 0 0 .1-.1.1V86.6l4.2 74.7v.4c0 .1.1.1.1.2 0 0 0 .1.1.1.1.1.2.2.3.2.1 0 .2.1.2.1h.1c.1 0 .3 0 .4-.1h.1l.3-.3 46.6-62s0-.1.1-.1c0-.1.1-.1.1-.2v-.2-.2-.2-.1l-11.8-41.2c0-.1 0-.1-.1-.2 0 0 0-.1-.1-.1l-.1-.1c-.2-.2-.4-.3-.7-.3-.1 0-.2 0-.3.1 0 0-.1 0-.1.1.1.1 0 .1 0 .1zm-33.5 99L852 87.4l30.9-6.6-19.5 54.5-7.5 21zm10.7-23.8l18.3-51 15.7 17.9-42.2 56.1 8.2-23zm19-53.3l4.5-17.3 9.6 33.4-14.1-16.1zm-2-.5l-28.3 6 33-24.1-4.7 18.1zM265.4 170.5l-15.5-32.9c-.1-.2-.3-.4-.6-.5l-24.6-9h-.1-.1-.1-.1-.1-.1-.1-.1s-.1 0-.1.1h-.1l-.1.1h-.1l-10.9 12.1c-.3.3-.3.8-.1 1.2l10.9 18.8v.1s0 .1.1.1l.1.1s.1 0 .1.1c.1 0 .2.1.2.1l40.1 11h.7c.1 0 .1-.1.2-.1l.2-.2.1-.1s0-.1.1-.1c0 0 0-.1.1-.1v-.2-.1c.1-.3 0-.4 0-.5zm-17.2-31.7l12.7 27-32.9-34.3 20.2 7.3zm-24.8-7.2v24.6l-8.7-15 8.7-9.6zm2 27.5v-27.7l35.9 37.5-35.9-9.8zM312.3 329.4v-.1-.1-.1s0-.1-.1-.1l-12.9-19.5c-.1-.2-.3-.4-.6-.4l-35.9-9.1h-.3-.1c-.1 0-.2 0-.3.1l-39.6 20.8h-.1c-.1 0-.1.1-.1.1l-.1.1-.1.1c0 .1-.1.1-.1.2v.5c0 .1.1.2.1.3v.1l.2.2s.1 0 .1.1c.1 0 .1.1.2.1l60.6 18.3h.3c.1 0 .2 0 .4-.1l27.9-10.5h.1c.1 0 .1-.1.2-.1l.1-.1s0-.1.1-.1v-.1-.1-.1-.1-.1-.2zm-49.8-27.3l37.9 22.1 6.7 3.9-80.6-7.1 36-18.9zm35.3 8.8l10.3 15.5-39-22.8 28.7 7.3zM283.4 339l-51-15.4 74.5 6.5-23.5 8.9zM760.6 7.5s-.1 0-.1.1c-.1 0-.1 0-.2.1l-.1.1c-.1 0-.1.1-.1.1v.2c0 .1-.1.1-.1.2v.4c0 .1 0 .1.1.2V9c0 .1.1.1.1.2l.1.1 70.4 66.3c.1.1.2.1.2.2h.1c.1 0 .2.1.3.1h.4c.1 0 .1-.1.2-.1l.2-.2v-.1L872.8 0h-2.3l-39.3 72.8-26.1-45.6L855.3 0h-4.2l-47.4 25.7-39.4-16.8L810.7 0H800l-39.4 7.5c.1 0 .1 0 0 0zm42.5 20.1l23.3 40.7.7 1.3-61.4-57.9 37.4 15.9zM1003.4 70.9V71.2c0 .1.1.1.1.2 0 0 0 .1.1.1l67.4 74h.1l.2.2s.1 0 .1.1c.1 0 .2.1.3.1h.5c.1 0 .1-.1.2-.2l.1-.1c.1-.1.1-.2.1-.2l18.2-57.6v-.1-.2l-4.4-61.5c0-.1 0-.1-.1-.2v-.1c0-.1-.1-.1-.1-.2l-.1-.1c-.1 0-.1-.1-.2-.1l-.1-.1h-.1L1014.8 0h-6.1l69.3 24.2-49.3-3.7-3.2-.2L1008.7 0h-4.1l-1.2 70.9zm68.3 70.9l-37-98-7-18.5 7.4 7.5 53.8 54.7-17.2 54.3zm12.9-115.1l4.2 57.9-52.3-53.2-8.8-9 56.9 4.3zM1069 140.3l-63.4-69.6L1025 24l44 116.3zM1006.6.6l17.3 20.8-18.4 44.3 1.1-65.1zM1101.2 8.5c0 .3.2.6.4.8l38.7 25.9c.1.1.2.1.3.1H1140.9c.1 0 .2 0 .3-.1h.1c.1 0 .1-.1.2-.1V35l.1-.1s0-.1.1-.1v-.1l11.5-25.9c.2-.5 0-1.1-.5-1.3L1138.2 0h-4.4l17.3 8.9-10.2 22.9L1127 0h-2.2l13.9 31.6L1104 8.4l11.4-8.4h-3.4l-10.4 7.7c-.3.2-.4.5-.4.8zM1210.1 24.2s0 .1.1.1l23.8 36.3v.1l31.9 37.5.1.1v.1l57.6 52.3c.1.1.1.1.2.1h.1c.1 0 .2.1.3.1h.2l42.6-7.1v-2l-39.7 6.6 18.5-17.8 9.6-9.2 11.6 6.6v-2.3l-9.8-5.6 9.8-6.5v-2.4l-10.4 6.9 9.2-56 1.2 1.1v-4.9l-1.6.6-39.3-43.1 40.9 13.3V27l-43.9-14.3h-.1-.1-.1-.1l-38.8 10-38-22.7h-6.4l-28 22.2L1203 0h-2.1l9.2 24.2zm51.5 34.9h-24.7l1-1.2 18.3-22.6 5.4 23.8zm-3.3-23.6l32 23.6h-26.6l-5.4-23.6zM1237 61.1h25l3.4 33.4-28.4-33.4zm27 0h27.3l-23.9 33.7-3.4-33.7zm16.7 18.6l12.8-18 58.4 56.6-83.5-21.3 12.3-17.3zm43.6 68.8l-53.9-48.9 82.9 21.1-29 27.8zm30.5-31.4l-26.4-48.8-3.9-7.1h39.5l-9.2 55.9zm-31-100.8l39.1 42.8h-39.1V16.3zm3.9 55l23.6 43.6-55.5-53.8h26.4l5.5 10.2zm-5.9-12.2h-26.7l12.1-19 14.6-23v42zm-1.2-43.8l-9.2 14.5-17.7 27.8-8.9-33.1 35.8-9.2zm-29 42.3l-32.8-24.2 24.1-8.3 8.7 32.5zm-10.4-34l-13.4 4.6-10.6 3.6-12.8-30.4 36.8 22.2zm-39.3-23l13.1 31.1-17.5-3.6-24.1-4.9L1241.9.6zm-11.4 28.2l24.4 5-20 24.7-21.7-33.2 17.3 3.5z" class="st1"/>
  <path d="M1211.1 320.4s-.1 0 0 0h-.1-.1c-.1 0-.2 0-.3.1h-.1c-.1.1-.2.1-.3.2l-33.1 38.8h2.6l31.3-36.7 40.8 36.7h3l-38.5-34.6-2.5-2.3 74.4 5.2 2 31.7h2l-2-31 64 31h4.6l-68-32.9 76.1-71.3v-2.7l-78.2 73.3-77.6-5.5zM1113.5 328.3l-22.1-59.1-39-115.5c0-.1-.1-.1-.1-.2s-.1-.1-.1-.1l-.1-.1c-.1 0-.1-.1-.2-.1h-.1c-.1 0-.1-.1-.2-.1H1051.3h-.1c-.1 0-.1.1-.2.1 0 0-.1 0-.1.1-.1 0-.1.1-.2.2 0 0 0 .1-.1.1 0 .1-.1.1-.1.2l-29.1 118.3v.2l-7.9 87.2h2l7.6-84.6 46.4 58-30.1 26.6h3l28.3-25.1 20.3 25.1h2.6l-20.8-25.7 37.3-4 1.6-.2 4 29.8h2l-4.2-31v-.1zm-61-168.2l35.5 105-11.3-12.9-24.2-27.6v-64.5zm-2 2.2v62.5l-25.6 41.6 25.6-104.1zm-26.9 110l27.3-44.5 18.3 101.5-45.6-57zm29.5-43.9l36.3 41.4-18.2 59-18.1-100.4zm19.2 103.5l18.2-59.2 20.6 55.1-38.8 4.1zM993.6 293.1c0-.1 0-.1-.1-.2 0 0 0-.1-.1-.1l-98.6-149.2c-.1-.2-.3-.3-.5-.4h-.3-.1-.1c-.1 0-.2 0-.2.1 0 0-.1 0-.1.1-.1 0-.1.1-.2.1l-.1.1-.1.1c0 .1 0 .1-.1.2v.1l-14.7 100.7-64.1 114.9h2.3l63.1-113.1 45.1 28.3-98.3 84.9h3.1l95.4-82.3-16.7 82.3h2l17-83.7 63.5 18.1-42.9 42.6-23.2 23h2.8l57.9-57.5 6.3-6.3v63.7h2v-66.1c.1-.2.1-.3 0-.4zm-113.2-48.6l13.9-95.2 3.9 15.6 26.7 107.5-44.5-27.9zm46.9 29.2l-30.9-124.2 93.9 142.1-63-17.9zM793.4 327.7c.1-.2.1-.3 0-.4v-.1c0-.1 0-.1-.1-.2 0 0 0-.1-.1-.1 0 0 0-.1-.1-.1l-.1-.1-.1-.1s-.1-.1-.2-.1c0 0-.1 0-.1-.1h-.2-.1l-84.4-2c-.3 0-.6.1-.8.4-.2.3-.2.6-.1.9l8.5 26.1v.1c0 .1.1.1.1.2 0 0 0 .1.1.1l.1.1.1.1 12 7.1h3.9l-13-7.7 71.3-22.7-16.5 30.4h2.3l17.2-31.6c.3-.1.3-.1.3-.2zm-76.1 22.6l-7.8-23.8 77 1.8-69.2 22zM678.3 339.5c-.1-.1-.2-.1-.2-.1H677.8 677.5h-.1c-.1 0-.1 0-.2.1h-.1-.1l-22.8 19.9h3l19.8-17.3 3.5 17.3h2l-3.5-16.9 24.3 16.9h3.5l-28.5-19.9zM560 335.5c0-.1 0-.1-.1-.2 0 0 0-.1-.1-.1l-.1-.1-.1-.1s-.1 0-.1-.1c0 0-.1 0-.1-.1h-.2-.1-.1c-.1 0-.2 0-.3.1h-.1l-30.3 19.9-.1.1-.1.1c0 .1-.1.1-.1.2 0 0 0 .1-.1.1v4.1h2v-2.9l12.2-2 10.4-1.7-2.8 6.6h2.2l2.5-6 4.7 6h2.5l-6.3-8.1 2.9-9.2.8-2.6 4.5 19.9h2l-5.5-23.9c0 .1 0 .1 0 0zm-5.7 12.2l-1 3-20 3.3 24-15.8-3 9.5zM466.7 260.3c0-.3-.2-.6-.5-.8-.3-.2-.6-.2-.9 0l-128.4 65.1s-.1 0-.1.1c0 0-.1 0-.1.1l-.1.1-25.7 34.7h2.5l24.2-32.7 50.5 32.7h3.7l-51.5-33.3 129-12.4-13.8 45.7h2.1l13.1-43.6 15.2 43.6h2.1l-16.4-47.1-4.9-52.2zm-124.2 63.6l122.4-62 4.7 49.8-127.1 12.2zM224.4 345.6l.1-.1.1-.1.1-.1c0-.1.1-.1.1-.2v-.1-.2-.1c0-.1 0-.1-.1-.2v-.1c-.1-.1-.1-.2-.2-.3-.1-.1-.2-.1-.2-.1l-157-58c-.1 0-.3-.1-.4-.1h-.1c-.1 0-.2 0-.3.1 0 0-.1 0-.1.1-.1 0-.1.1-.2.2l-.1.1L10.3 355s0 .1-.1.1l-.1.1c0 .1 0 .1-.1.2v.4c0 .1.1.2.1.3 0 .1.1.1.2.2l.1.1c.1 0 .1.1.2.1l7.9 3.2H24l-9.4-3.8 101.7-20.2 1.6 24h2l-1.6-24.1 102.2 10.1-25.9 14h4.2l25.6-14.1c0 .1 0 .1 0 0zm-210.7 8.2L67 288.2l48.2 45.4-101.5 20.2zm153.1-15.6l-49.1-4.9-41.1-38.8-5.4-5.1 145 53.6-49.4-4.8zM101.7 189.9L0 248.4v2.3l100-57.6L0 317.9v3.2l104.9-130.9v-.1c0-.1.1-.1.1-.2v-.1-.2-.1-.2-.1c0-.1-.1-.2-.2-.3l-.2-.2s-.1 0-.1-.1c0 0-.1 0-.1-.1L0 153.9v2.1l101.7 33.9zM81.3 50.8l-21 5.5-3.9-3.3L0 4.9v2.6l52 44.3 4.8 4.1L0 48v2l59.1 8.3v49.4L0 59.3v2.6l56.7 46.4L0 100.4v2l59.9 8.4H60.7l.1-.1.1-.1v-.1l.1-.1v-.1l23.9-58.7v-.2-.1c0-.2 0-.4-.1-.6v-.1c0-.1-.1-.1-.1-.2l-.1-.1s-.1-.1-.2-.1L0 2.5v2.3l81.3 46zm-20.2 53.9V58.2l21.2-5.6-21.2 52.1zM92.6 24.1c.1.1.1.2.1.3 0 0 0 .1.1.1 0 .1.1.1.1.1l.1.1s.1 0 .1.1c0 0 .1 0 .1.1h.5L221.3 0h-10.5L103.6 20.8 155.2 0h-5.3L94.6 22.3V0h-2v24.1zM172.7 72.8c.1.4.3.7.7.8l173.5 55.9h.6s.1 0 .1-.1c.1 0 .1-.1.2-.1 0 0 .1 0 .1-.1 0 0 0-.1.1-.1 0-.1.1-.1.1-.2v-.1-.2V33c0-.3-.1-.6-.3-.7L312 0h-3l37.2 33.4v89.8L298.3 0h-2.1l49.4 126.9-169.8-54.6L268.2 0H265l-91.9 71.9c-.3.2-.4.6-.4.9zM533.6 27.8H533.9s.1 0 .1-.1c0 0 .1 0 .1-.1h.1c.1 0 .1-.1.2-.2l.1-.1c0-.1 0-.1.1-.2 0-.1 0-.1.1-.2v-.3-.1c0-.1 0-.2-.1-.2L519.4 0h-2.3l11.5 20.1L509.5 0h-2.8l23.7 24.9L438.8 0h-7.6l102.1 27.7c.1.1.2.1.3.1zM561 19.5l43.2 23.9c.1 0 .1 0 .2.1H604.7c.1 0 .3 0 .4-.1.1-.1.2-.1.3-.2l.1-.1.1-.1c0-.1 0-.1.1-.2v-.1-.3L595.5 0h-2.1l8.9 37.1-24-37.1h-2.4l25.8 39.7L562.3 18 557 0h-2l5.5 18.9c.1.3.3.5.5.6z" class="st1"/>
</svg>
