<svg xmlns="http://www.w3.org/2000/svg" id="Layer_1" viewBox="0 0 1366 2248">
  <g id="footer">
    <path d="M281.2 2145.5v.1c0 .1.1.2.1.2.1.1.1.2.2.2h.1c.1 0 .1.1.2.1l73.5 19.7h.4l76.2-9.8h.1c.1 0 .1 0 .2-.1 0 0 .1 0 .1-.1.1 0 .1-.1.2-.1l.1-.1c0-.1.1-.1.1-.2 0 0 0-.1.1-.1V2155c0-.1 0-.2-.1-.3 0-.1-.1-.2-.2-.2 0 0-.1 0-.1-.1-.1 0-.1-.1-.2-.1l-92.8-50.7c-.3-.2-.7-.2-1.1.1l-57 40.8-.1.1-.2.2s0 .1-.1.1c0 .1-.1.1-.1.2v.2c.3.1.4.1.4.2zm74.5 18.6l-63.5-17.1 129.4 8.6-65.9 8.5zm-16.5-58.3l88.3 48.2-66.5-4.4-76-5 54.2-38.8zM1008.6 2139.8v-.2-.2s0-.1-.1-.1c0-.1-.1-.1-.1-.2l-.1-.1c-.1 0-.1-.1-.2-.1l-104.4-57.7h-.1c-.1 0-.1 0-.2-.1h-.5l-43.4 14.9c-.1 0-.1.1-.2.1 0 0-.1 0-.1.1l-.2.2v.1c0 .1-.1.1-.1.2V2097.3s0 .1.1.1c0 .1.1.1.1.2l45 57c.1.1.2.2.3.2h.1c.1 0 .2.1.3.1h.1l102.7-14.2h.1c.1 0 .1 0 .2-.1 0 0 .1 0 .1-.1.1 0 .1-.1.2-.1l.1-.1c0-.1.1-.1.1-.2 0 0 0-.1.1-.1v-.1c.1 0 .1 0 .1-.1zm-7.6-2.6l-65.7-14.9-1.1-.2-27.4-36.9 94.2 52zm-138.2-38.1l23.7 8.4 45.3 16-26.9 29-42.1-53.4zm40.1-15.9l28 37.7-67.9-24 39.9-13.7zm4.6 69.4l26.4-28.5 38.2 8.7 29.9 6.8-94.5 13zM676.5 2235l88.8-61.4 6.1 14.5L787 2225l-36.4 10h7.5l29.5-8.1 2.1 8.1h2.1l-2.3-8.9 9.8-6.1 51.5-32.2-26.3 47.2h2.3l27.6-49.6c0-.1 0-.1.1-.2v-.1V2184.8c0-.1 0-.1-.1-.1v-.1c0-.1-.1-.2-.2-.2-.1-.1-.2-.1-.3-.2H853.6l-87.8-12.8h-.3c-.1 0-.2.1-.4.1l-92.2 63.7h3.6v-.2zm174.2-49.5l-3.1 1.9-58.9 36.8-21.4-50.8 83.4 12.1zM415.2 2235l20.5-46.7 53.6 7.7-49.4 38.9h3.2l48.8-38.4 85.8 36.7-9.4 1.8H579l2.3-.4h.1c.1 0 .1 0 .1-.1.1 0 .1-.1.2-.1h.1v-.1l.1-.1s.1-.1.1-.2v-.1c0-.1 0-.1.1-.2v-.1V2233.3l-21.2-82.3v-.2c0-.1-.1-.1-.1-.2 0 0 0-.1-.1-.1-.1-.1-.2-.2-.3-.2h-.6L435 2186.2h-.1c-.1 0-.1.1-.2.1l-.1.1-.1.1-.1.1s0 .1-.1.1L413 2235h2.2zm164.3-3.1l-85.8-36.6 65.5-42.3 20.3 78.9zm-25.9-77.8l-62.2 40.2-51.6-7.4 113.8-32.8zM234.4 2235l55-38 8.9 21.1 7.2 16.9h2.2l-5.2-12.2-11-26 83.4 12.1-41.3 25.9-.4.3h3.8l11.8-7.4 26.3-16.5-13.3 23.8h2.3l14.6-26.3c0-.1 0-.1.1-.2v-.1V2208.1c0-.1 0-.1-.1-.1v-.1c0-.1-.1-.2-.2-.2-.1-.1-.2-.1-.3-.2h-.1c-.1 0-.1 0-.2-.1l-87.8-12.8h-.3c-.1 0-.3.1-.4.2l-58.4 40.3 3.4-.1zM0 2005l197.5 156.2L0 2138.6v2l197.6 22.5L65.7 2235h4.2l131.5-71.6.1-.1.1-.1.1-.1.1-.1v-.1-.2V2162.4c0-.1 0-.1-.1-.2 0 0 0-.1-.1-.1l-.1-.1-.1-.1L0 2002.4v2.6z" class="st0"/>
  </g>
  <g id="Bottom-right">
    <path d="M1163.5 1094.6V1094.9s0 .1.1.1c0 0 0 .1.1.1l123.9 163.4.3.3h.1c.1.1.3.1.4.1h.2c.1 0 .1 0 .2-.1h.1l.1-.1c.1 0 .1-.1.2-.1l.1-.1c0-.1.1-.1.1-.2v-.2l21.2-140.4v-.1-.4c0-.1-.1-.3-.2-.4h-.1c-.1-.1-.2-.1-.3-.2h-.2l-145.2-23H1164.3c-.1 0-.1 0-.2.1-.1 0-.2.1-.3.2l-.1.1s0 .1-.1.1c0 .1-.1.1-.1.2V1094.6zm67.3 31.2l16.8 39.2 36.7 85.9-116.6-153.8 63.1 28.7zm57.2 128.6l-24.6-57.4-30.4-71.1 75.5-7.2-20.5 135.7zm13.8-137.1l-70 6.7-60.1-27.3 130.1 20.6zM1115.6 1486.6v-.1-.2s0-.1-.1-.1v-.1l-26.4-36.1-.1-.1-.1-.1s-.1 0-.1-.1c-.2-.1-.4-.2-.6-.2l-63.8 3.1h-.2-.1c-.1 0-.2.1-.3.2l-.1.1c-.1.1-.1.1-.1.2 0 0 0 .1-.1.1 0 0 0 .1-.1.1v.5c0 .1 0 .1.1.2v.1l45.4 85.6.1.1s0 .1.1.1l.1.1s.1 0 .1.1c.1 0 .1.1.2.1H1070.3s.1 0 .1-.1c.1 0 .2-.1.2-.2h.1l44.8-52.6v-.1l.1-.1v-.1V1486.7c.1 0 .1 0 0-.1zm-22.9.2l-23.5 1.2 19.2-35.4 24.4 33.3-20.1.9zm-24.2 3.2l43.9-2.1-41.7 49-2.2-46.9zm-1.4-2.5l-28.6-23.5-11.4-9.4 59.4-2.9-19.4 35.8zm-39.4-29.8l38.8 31.9 2.2 45.4-41-77.3zM1366 1461.8l-47.8 41.5 4.7-118.4 6.4 2.4 36.6 13.8v-2.1l-29.4-11.1-13.1-4.9 42.5-74.2v-4l-44.6 77.8-193 4.6 237.6-116.7v-2.2l-242.6 119.1-.1.1c-.1 0-.1.1-.2.1l-.1.1-.1.1s0 .1-.1.1v.7c0 .1 0 .1.1.2 0 0 0 .1.1.1l.1.1.1.1 193.2 117.5c.1.1.3.1.4.1s.2 0 .3-.1h.2c.1 0 .1-.1.1-.1l48.2-41.9v-2.8h.5zm-49.8 42.1l-188.9-114.8 130.8-3.1 62.9-1.5-4.8 119.4z" class="st0"/>
  </g>
  <g id="Bottom-left">
    <path id="Path_2621" d="M237 1360.9l281.3 163.3-268.8-77-12.5-86.3z" class="st1"/>
    <path id="Path_2622" d="M115.4 1480.4L237 1360.9l12.5 86.3-134.1 33.2z" class="st2"/>
    <path id="Path_2623" d="M193.4 1538.7l-77.9-58.3 134.1-33.2-56.2 91.5z" class="st0"/>
    <path id="Path_2624" d="M518.3 1524.1l-324.9 14.6 56.1-91.6 268.8 77z" class="st3"/>
    <path id="Path_2631" d="M176.5 1628.7l-39.4-1.5-43.8 38.6 83.2-37.1z" class="st1"/>
    <path id="Path_2632" d="M168.2 1675.4l8.2-46.7-86.7 108.7 78.5-62z" class="st0"/>
    <path id="Path_2633" d="M93.3 1665.8l-3.5 71.6 86.7-108.7-83.2 37.1z" class="st2"/>
    <path d="M0 1241.1v162.7l160.9-103.1z" class="st2"/>
    <path d="M0 1403.8v120.3l160.9-223.4z" class="st3"/>
  </g>
  <g id="Middle-right">
    <path d="M1366 740.3l-64.5-26.5 64.5 67.4z" class="st1"/>
    <path d="M1366 799.5l-151.7 33.6 151.7 68.4z" class="st0"/>
    <path d="M1366 781.2l-64.5-67.4-87.2 119.3 151.7-33.6z" class="st2"/>
  </g>
  <g id="Middle-left">
    <path id="Path_2592" d="M126.6 736.4l25.7 111.3-118-21 92.3-90.3z" class="st3"/>
    <path id="Path_2594" d="M265.1 812l-47.3 85.9 66.9-37.4-19.6-48.5z" class="st2"/>
    <path id="Path_2595" d="M307.7 909.7l-89.9-11.8 66.9-37.4 23 49.2z" class="st0"/>
    <path id="Path_2596" d="M384.2 806l-76.6 103.7-23-49.2 99.6-54.5z" class="st3"/>
    <path id="Path_2597" d="M265.1 812l19.6 48.5 99.6-54.5-119.2 6z" class="st1"/>
    <path id="Path_2598" d="M507 719.7l-11.9 30.5 77.4 10.4-65.5-40.9z" class="st1"/>
    <path id="Path_2599" d="M382.9 740.8L507 719.7l-11.9 30.5-112.2-9.4z" class="st2"/>
    <path id="Path_2600" d="M537.6 794.7l-154.7-53.9 112.2 9.4 42.5 44.5z" class="st0"/>
    <path id="Path_2601" d="M572.6 760.6l-77.4-10.4 42.5 44.5 34.9-34.1z" class="st3"/>
    <path d="M0 740.5v67.6l34.3 18.6 92.3-90.3z" class="st2"/>
    <path d="M0 808.1v103.2l34.3-84.6z" class="st1"/>
    <path d="M0 929.3l152.2-81.7-117.9-20.9L0 911.3z" class="st0"/>
  </g>
  <g id="Top-right">
    <path d="M726.5 28.2V27.9v-.2s0-.1-.1-.1c0-.1-.1-.1-.1-.2l-.1-.1-.1-.1c-.1 0-.1-.1-.2-.1h-.4L667 32.6c-.1 0-.2 0-.3.1 0 0-.1 0-.1.1-.1 0-.1.1-.2.1L590 99.2l-.1.1c0 .1-.1.1-.1.2v.9l.2.2c.1.1.2.1.2.1h.5l101.2-27.1s.1 0 .1-.1h.1c.1-.1.3-.2.3-.3L726 28.5v-.1c0-.1.1-.1.1-.2h.4zm-58.6 6.2l53.2-5-56.7 33.1 2.1-17.4 1.4-10.7zm23.6 37.1L665.8 64l56-32.7-30.3 40.2zm-28.8-10.9l-.4 3.1-19.9 9.7L597 95.5l68.7-59.6-3 24.7zm-62.3 35.6l42.8-20.9 20.2-9.8 24.8 7.2-87.8 23.5zM1366 109l-47 50.6-17.5-127.3 64.5 16v-2.1l-64.9-16.1-8.1-25.8-.4-1.3h-2.1l8.7 27.7-71.2 62.8 34.1-90.4h-2.1l-35.3 93.5c0 .1-.1.3-.1.4v.1c0 .1 0 .2.1.3 0 0 0 .1.1.1.1.1.1.2.3.3l92.7 65c.1.1.2.1.3.1h.3c.1 0 .2 0 .3-.1h.2c.1 0 .1-.1.2-.1l47-50.6-.1-3.1zm-138.8-12.2l68.2-60.1 4.2-3.7 17.4 126.7-89.8-62.9zM1366 22.7L1339.3 3h-3.3l30 22.2zM1212.6 3l-65.9 101.2-69.2-61.7 71.8-30.3L1171 3h-5.1l-13.1 5.5-76.5 32.3L1065.6 3h-2.1l10.9 38.5L915 84.3 999.6 3h-2.9l-85.9 82.5s0 .1-.1.1l-.1.1c0 .1-.1.1-.1.2V86.5s0 .1.1.1c0 .1.1.2.2.2l.2.2h.1c.1 0 .1 0 .2.1h.1l235.4 19.5h.2c.3 0 .5-.2.6-.4l67.3-103.3h-2.3V3zM917.2 85.7l158.1-42.4 68.7 61.2-226.8-18.8zM889.2 3l-53 105.9-37.7-47.2-4.6-5.7 75.3-53h-3.5l-73.5 51.6-36.7-12.7 91.6-39H842l-89.7 38.2s-.1 0-.1.1l-.3.3c-.1.1-.1.2-.1.4l-9.4 93.1v.4c0 .1 0 .1.1.2 0 0 0 .1.1.1.1.1.2.2.3.2 0 0 .1 0 .1.1h.1c.1 0 .2.1.3.1h.3l92.9-24.4s.1 0 .1-.1c0 0 .1 0 .1-.1 0 0 .1 0 .1-.1 0 0 .1 0 .1-.1l.1-.1s0-.1.1-.1L891.3 2.9l-2.1.1zM753.8 43.4l37.3 12.9-8.2 13.3L745 131l8.8-87.6zm-8.1 90.2l47-76.1 42 52.7-89 23.4z" class="st0"/>
  </g>
</svg>
