<?xml version="1.0" encoding="utf-8"?>
<!-- Generator: Adobe Illustrator 22.0.1, SVG Export Plug-In . SVG Version: 6.00 Build 0)  -->
<svg version="1.1" id="Layer_1" xmlns="http://www.w3.org/2000/svg" xmlns:xlink="http://www.w3.org/1999/xlink" x="0px" y="0px"
	 viewBox="0 0 1242 2208" style="enable-background:new 0 0 1242 2208;" xml:space="preserve">
<style type="text/css">
	.st0{fill:none;}
	.st1{fill:#016848;}
</style>
<g>
	<polygon class="st0" points="705.6,901.7 475.1,709.1 535,876.7 	"/>
	<polygon class="st0" points="532,877.2 275.7,694 357.5,925.4 	"/>
	<polygon class="st0" points="472.2,707 277.2,692.6 532.3,875 	"/>
	<polygon class="st0" points="274.3,696 238.2,1113.1 355.8,926.5 	"/>
	<polygon class="st0" points="0,1067.5 0,1201.5 85.7,1208.5 	"/>
	<polygon class="st0" points="1005.1,1216.9 984.3,1260.6 1088,1165.8 1036.3,1151.3 	"/>
	<polygon class="st0" points="239,1117.8 347.5,1226.3 336.4,1105.7 	"/>
	<polygon class="st0" points="107.1,1207.2 220.5,1122.7 117,1099.2 	"/>
	<path class="st0" d="M440,1237.3l271.2-332.7l-0.7-0.1c-0.2,0.2-0.5,0.4-0.8,0.4c0,0-0.1,0-0.1,0l-174.5-26L440,1237.3z"/>
	<polygon class="st0" points="1034.1,1151.5 1012.5,1155.4 901,1176 980.9,1263 1018.1,1184.9 	"/>
	<polygon class="st0" points="358.1,927.3 437.8,1237.5 532.9,879.1 	"/>
	<polygon class="st0" points="349.7,1228.1 435.6,1240.2 338.6,1108.1 	"/>
	<polygon class="st0" points="1021.2,1114.6 988.3,1028.7 901.1,1174 1034.4,1149.4 	"/>
	<polygon class="st0" points="263.8,396.7 67.2,537.8 322.1,463.2 	"/>
	<path class="st0" d="M450,354.7l-60.6,2.9c-1.7,0.1-3.5,0.4-5.1,0.9l-113.6,34.7c-1.8,0.6-3.6,1.4-5.2,2.4l58.4,66.7L450,354.7z"/>
	<polygon class="st0" points="591.7,350.6 647.7,338.5 508.4,322.9 529.5,364 	"/>
	<polygon class="st0" points="213.6,1217 221.7,1124.3 108.6,1208.5 	"/>
	<path class="st0" d="M506.3,323.2L463.9,351c-3.2,2.1-6.8,3.3-10.6,3.5L325.1,463.9l48,90.9l81.8-43.9l72.9-145.8L506.3,323.2z"/>
	<path class="st0" d="M63,541.1l5.7,25.9l101.8-21.3c3.3-0.7,6.7-0.9,10-0.7l180.2,12.6c3.7,0.2,7.3-0.5,10.5-2l-48-90.9L63,541.1z"
		/>
	<polygon class="st0" points="573.3,694.7 686.3,518.4 555.4,593.6 	"/>
	<path class="st0" d="M351.3,605.3l-68.7-4.8l-6.6,76.4l294.3,19.3l-126-134.4l-73.2,39.3C365.1,604.3,358.2,605.8,351.3,605.3
		C351.3,605.3,351.3,605.3,351.3,605.3z"/>
	<polygon class="st0" points="325.3,1226.1 236.1,1136.9 229.1,1218.3 	"/>
	<polygon class="st0" points="683.8,517.5 448.8,560.8 554.2,592 	"/>
	<polygon class="st0" points="571.2,694.3 553.4,593.9 447.8,562.6 546.3,667.7 	"/>
	<polygon class="st0" points="3.4,343.2 0,348.6 0,567 45.6,534.2 	"/>
	<polygon class="st0" points="584.1,202.3 362.2,0 356.9,0 325,227.6 	"/>
	<polygon class="st0" points="95.1,31.4 0,2 0,152.8 55.3,82.2 	"/>
	<polygon class="st0" points="0,156.1 0,225.1 91.6,39.1 	"/>
	<polygon class="st0" points="197.8,1388.5 97.4,1223.2 0,1215.3 0,1495.6 136.5,1478.6 	"/>
	<path class="st0" d="M203.5,277.8l63.4,100.3L381.6,343c1.7-0.5,3.4-0.8,5.1-0.9l65.7-3.1c1,0,1.9-0.3,2.7-0.9l45.8-30.5
		l-177.1-77.9L203.5,277.8z"/>
	<polygon class="st0" points="322.9,228 354.9,0 354.5,0 204.2,275.3 	"/>
	<path class="st0" d="M59.3,524.4l196.2-140.8c2.9-2.1,6-3.7,9.4-4.8l-63.7-100.9l0,0c-0.2-0.3-0.2-0.7,0-1L352.2,0h-0.3L16.6,337
		L59.3,524.4z"/>
	<path class="st0" d="M58.4,664.1c0.1-0.8,0-1.7-0.2-2.5l-9.8-44.2L0,627.6v38l53.7,53.9L58.4,664.1z"/>
	<path class="st0" d="M115.4,994.3l108.1,108.1l19.8-228.8l-86.5-28.8c-0.1,0-0.3-0.1-0.4-0.2L0,687.5v294.1l103,7.1
		C107.7,989,112.1,991,115.4,994.3z"/>
	<path class="st0" d="M197.9,1391.9l-59.5,87.4l69.8,43.3l-10.5-106.7c-0.5-4.7-0.5-9.5-0.1-14.3L197.9,1391.9z"/>
	<polygon class="st0" points="136.8,1480.6 0,1497.6 0,1512.9 205.6,1523.3 	"/>
	<polygon class="st0" points="80.5,0 0.4,0 94.8,29.2 	"/>
	<polygon class="st0" points="493.3,438.9 458.2,509 624.7,405.9 529.5,366.5 	"/>
	<polygon class="st0" points="3.8,1642.9 207,1538.9 0,1528.5 0,1638.3 	"/>
	<polygon class="st0" points="2.3,1644.1 0,1641.4 0,1646.8 	"/>
	<polygon class="st0" points="713.2,0 582.4,0 542,27 	"/>
	<polygon class="st0" points="1036.6,1149.3 1058.9,1155.6 1087.5,1163.6 992.1,1033.1 1018.1,1101.1 	"/>
	<path class="st0" d="M216,1602.1l-6.1-62.5L6.3,1643.9l308.1,90.5l-86.7-104.4C221.1,1622,217,1612.3,216,1602.1z"/>
	<polygon class="st0" points="327.7,229.4 502.7,306.3 584.1,204.3 	"/>
	<polygon class="st0" points="859.7,40.9 827.1,25.5 772.8,0 726.1,0 547.8,28.1 	"/>
	<path class="st0" d="M10,1008.9c4.1,4.9,5.9,11.3,4.8,17.6c-1,6.1-4.5,11.3-9.9,14.8l100.2,164.9l10-108.3c0-0.3,0.2-0.5,0.4-0.7
		c0.2-0.2,0.5-0.2,0.8-0.2l103.3,23.5l-115.2-115.2c-0.7-0.7-1.5-1.1-2.5-1.1l-101.7-7L10,1008.9z"/>
	<polygon class="st0" points="587,201.9 665.8,181.5 773.2,153.8 564.3,132.7 572,156.1 	"/>
	<polygon class="st0" points="868.2,0 777.5,0 863.8,40.6 	"/>
	<polygon class="st0" points="587,204 533.6,270.9 507,304.2 771.6,156.3 615.5,196.6 	"/>
	<polygon class="st0" points="310.3,1735.2 3.9,1645.3 0,1649.9 0,1735.2 	"/>
	<polygon class="st0" points="584.3,199.8 562,132.2 367.3,2 	"/>
	<path class="st0" d="M337.2,1103.6c0.4,0,0.7,0.1,0.9,0.4l97.4,132.7l-79-307.6l-117.7,186.7L337.2,1103.6L337.2,1103.6z"/>
	<polygon class="st0" points="609.8,2098 680.8,2088.3 632.4,2027 	"/>
	<polygon class="st0" points="658.5,1203.5 439,1257.6 517.6,1586.7 758.2,1178.9 	"/>
	<polygon class="st0" points="419.9,1534.4 515.7,1587.3 438.3,1263.5 	"/>
	<polygon class="st0" points="630.9,2025.1 587.4,1958.9 557,1912.7 608.4,2095.7 627.1,2037 	"/>
	<polygon class="st0" points="677.3,2004.4 558.5,1911.3 632.4,2023.7 	"/>
	<polygon class="st0" points="520.4,1585.7 944.2,1282.1 760.7,1178.7 	"/>
	<polygon class="st0" points="852.4,1093.1 923.4,1029.2 447.3,1253.5 759.8,1176.4 	"/>
	<polygon class="st0" points="545.7,371 626.4,404.4 652.3,339.5 532.3,365.5 	"/>
	<polygon class="st0" points="376.4,1367 418.3,1528.8 436.5,1261.2 	"/>
	<polygon class="st0" points="225.3,1524.3 417.5,1533.9 374.8,1368.8 	"/>
	<path class="st0" d="M436.2,1257.7l-208.4-23.9L213,1404.2c-0.3,2.9-0.2,5.9,0,8.8l10.8,109.9l150.7-156.7L436.2,1257.7z"/>
	<polygon class="st0" points="764,1178.2 808.9,1203.6 940.2,1277.6 839.3,1176.4 	"/>
	<polygon class="st0" points="953.3,2104.5 1026.9,2063 937.3,2059.8 	"/>
	<polygon class="st0" points="633.6,2025.3 681.5,2086.1 678.3,2006.2 	"/>
	<polygon class="st0" points="897.6,2088.7 951.2,2104.5 935.4,2060.3 	"/>
	<polygon class="st0" points="1242,1385.1 1242,1359.9 1073.7,1388.3 	"/>
	<polygon class="st0" points="1242,1443.4 1242,1387.1 1066.6,1390.5 	"/>
	<polygon class="st0" points="934.9,2028.4 899.1,2085 934.9,2058.2 	"/>
	<polygon class="st0" points="731.2,2089.3 759.9,2130.6 782.2,2044.7 	"/>
	<polygon class="st0" points="761.9,2130.8 829.6,2088.9 784.5,2043.8 	"/>
	<polygon class="st0" points="936.9,2026.4 936.9,2057.7 1024.6,2060.9 	"/>
	<polygon class="st0" points="821,1174.8 839.2,1174.4 924.9,1030.5 763,1176.3 	"/>
	<polygon class="st0" points="9.1,579.5 53.6,570.2 49.3,550.7 	"/>
	<polygon class="st0" points="784.3,325.9 709.8,338.3 778.1,353.9 	"/>
	<polygon class="st0" points="778.9,356.2 768,361.6 688,401.6 918.5,421.1 851.4,389.9 	"/>
	<polygon class="st0" points="914.5,417 786.3,326.3 780,354.5 	"/>
	<polygon class="st0" points="705.3,339.3 686,400.4 775.9,355.4 	"/>
	<path class="st0" d="M73.7,662l184.8,13.6l-93.7-82.5L63.7,614.3l9.2,41.6C73.3,657.9,73.6,659.9,73.7,662z"/>
	<polygon class="st0" points="263.8,637.9 267.1,599.4 168,593.3 260.6,674.8 	"/>
	<polygon class="st0" points="258.5,691.2 72.8,677.5 68,733.8 164.4,830.5 	"/>
	<polygon class="st0" points="244.8,857.7 258.9,694.1 166.1,831.5 	"/>
	<polygon class="st0" points="404.9,1700.2 416.8,1550.4 318.8,1614.2 	"/>
	<polygon class="st0" points="200.9,1363.7 212.3,1232.5 116.4,1224.7 	"/>
	<polygon class="st0" points="406.7,1702.2 504.2,1859.7 418.5,1554.1 	"/>
	<polygon class="st0" points="336.7,1736.4 503.4,1862.2 405.3,1703.7 	"/>
	<path class="st0" d="M225.6,1541l5.5,56c0.9,9.5,4.7,18.4,10.8,25.8l91.4,110.1l-17-118.3L225.6,1541z"/>
	<polygon class="st0" points="404,1702.1 318.6,1616.9 335.6,1734.7 374.7,1716.1 	"/>
	<polygon class="st0" points="414.8,1549.3 304.1,1543.8 227.4,1539.9 317.3,1612.8 	"/>
	<path class="st1" d="M48.5,617.5l9.8,44.2c0.2,0.8,0.2,1.7,0.2,2.5l-4.7,55.3L0,665.5v2.8l53.8,54c0.2,0.2,0.4,0.3,0.7,0.3
		c0.1,0,0.2,0,0.3-0.1c0.4-0.1,0.6-0.5,0.7-0.9l4.9-57.4c0.1-1,0-2.1-0.2-3.1l-10-45.1c-0.1-0.5-0.6-0.9-1.2-0.8L0,625.5v2
		L48.5,617.5z"/>
	<path class="st1" d="M50.3,548.1c-0.3-0.1-0.7-0.1-0.9,0.1L4.1,580.7c-0.4,0.3-0.5,0.8-0.3,1.2c0.2,0.4,0.5,0.6,0.9,0.6
		c0.1,0,0.1,0,0.2,0L55,572c0.3-0.1,0.5-0.2,0.6-0.4c0.1-0.2,0.2-0.5,0.1-0.8l-4.9-22C50.8,548.5,50.6,548.2,50.3,548.1z M9.1,579.5
		l40.2-28.8l4.3,19.5L9.1,579.5z"/>
	<path class="st1" d="M235,1133.7c-0.4,0.1-0.6,0.5-0.7,0.9l-7.3,84.5c0,0.3,0.1,0.5,0.2,0.7s0.4,0.3,0.7,0.4l100,8.1
		c0,0,0.1,0,0.1,0c0.4,0,0.7-0.2,0.9-0.6c0.2-0.4,0.1-0.8-0.2-1.1L236,1134C235.8,1133.7,235.3,1133.6,235,1133.7z M325.3,1226.1
		l-96.3-7.8l7.1-81.4L325.3,1226.1z"/>
	<path class="st1" d="M156.5,844.6c0.1,0.1,0.2,0.2,0.4,0.2l86.5,28.8l-19.8,228.8L115.4,994.3c-3.3-3.3-7.7-5.3-12.4-5.6L0,981.6v2
		l102.9,7c4.2,0.3,8.1,2.1,11.1,5.1l109.6,109.6c0.2,0.2,0.4,0.3,0.7,0.3c0.1,0,0.2,0,0.3-0.1c0.4-0.1,0.6-0.5,0.7-0.9L245.4,873
		c0-0.5-0.2-0.9-0.7-1l-87-29L0,684.7v2.8L156.5,844.6z"/>
	<path class="st1" d="M163.8,832.8C163.8,832.8,163.8,832.8,163.8,832.8c0.1,0.1,0.2,0.2,0.4,0.2l81.1,27c0.1,0,0.2,0.1,0.3,0.1
		c0.2,0,0.4-0.1,0.5-0.2c0.3-0.2,0.4-0.4,0.4-0.7l14.6-168.7c0-0.1,0-0.2,0-0.4c0,0,0-0.1,0-0.1c0-0.1-0.1-0.2-0.1-0.2c0,0,0,0,0,0
		c0,0,0,0-0.1,0c-0.1-0.1-0.1-0.1-0.2-0.1c0,0-0.1,0-0.1-0.1c0,0,0,0-0.1,0c-0.1,0-0.1,0-0.2,0c0,0-0.1,0-0.1,0L72,675.5
		c-0.6,0-1,0.4-1.1,0.9L66,733.7c-0.2,0.4-0.1,0.8,0.2,1.1L163.8,832.8z M244.8,857.7l-78.6-26.2l92.8-137.4L244.8,857.7z
		 M72.8,677.5l185.6,13.7l-94.1,139.3L68,733.8L72.8,677.5z"/>
	<path class="st1" d="M70.9,656.4c0.5,2.1,0.7,4.3,0.8,6.6c0,0.5,0.4,0.9,0.9,1l188.7,13.9c0,0,0,0,0.1,0c0,0,0,0,0,0c0,0,0,0,0,0
		c0,0,0,0,0,0c0.1,0,0.3,0,0.4-0.1c0,0,0,0,0,0c0.1,0,0.2-0.1,0.3-0.2c0,0,0,0,0.1-0.1c0.1-0.1,0.1-0.1,0.1-0.2c0,0,0-0.1,0-0.1
		c0-0.1,0.1-0.2,0.1-0.3l6.8-78.4c0-0.1,0-0.3,0-0.4c0,0,0-0.1-0.1-0.1c0-0.1-0.1-0.2-0.1-0.2c0,0,0,0,0,0c0,0,0,0,0,0
		c0,0-0.1-0.1-0.1-0.1c-0.1-0.1-0.1-0.1-0.2-0.1c0,0-0.1,0-0.2,0c-0.1,0-0.1-0.1-0.2-0.1l-97.1-6.8c-2.1-0.1-4.3,0-6.3,0.4l0,0
		c0,0,0,0,0,0L62.3,612.5c-0.3,0.1-0.5,0.2-0.6,0.4c-0.1,0.2-0.2,0.5-0.1,0.8L70.9,656.4z M267.1,599.4l-3.3,38.4l-3.2,37L168,593.3
		L267.1,599.4z M164.8,593.2l93.7,82.5L73.7,662c-0.1-2.1-0.4-4.2-0.8-6.1l-9.2-41.6L164.8,593.2z"/>
	<path class="st1" d="M348.6,1230l89.1,12.5c0,0,0.1,0,0.1,0c0,0,0,0,0,0c0,0,0,0,0,0s0,0,0,0c0,0,0,0,0,0s0,0,0,0c0,0,0,0,0,0
		c0.1,0,0.3,0,0.4-0.1c0,0,0,0,0,0c0,0,0,0,0,0c0,0,0,0,0.1-0.1c0.1,0,0.1-0.1,0.2-0.1c0,0,0.1-0.1,0.1-0.1c0,0,0,0,0,0l275.2-337.7
		c0.2-0.3,0.3-0.7,0.2-1c-0.1-0.3-0.4-0.6-0.8-0.6l-3.8-0.6l-235.8-197c0,0,0,0,0,0c-0.1-0.1-0.2-0.1-0.3-0.1c0,0,0,0,0,0
		c-0.1,0-0.2-0.1-0.3-0.1l-199.2-14.7c0,0,0,0,0,0c-0.2,0-0.5,0.1-0.6,0.2c0,0,0,0,0,0c0,0,0,0-0.1,0.1c-0.1,0.1-0.1,0.1-0.2,0.2
		c0,0,0,0.1-0.1,0.1c0,0.1-0.1,0.2-0.1,0.2c0,0,0,0,0,0.1L235.8,1117c0,0.3,0.1,0.6,0.3,0.8L348,1229.7
		C348.2,1229.9,348.4,1230,348.6,1230z M349.7,1228.1l-11-120l96.9,132.1L349.7,1228.1z M437.8,1237.5l-79.7-310.2l174.8-48.2
		L437.8,1237.5z M709.5,904.8c0,0,0.1,0,0.1,0c0.3,0,0.6-0.1,0.8-0.4l0.7,0.1L440,1237.3L535,878.8L709.5,904.8z M705.6,901.7
		l-170.6-25l-59.9-167.6L705.6,901.7z M472.2,707l60,168l-255-182.4L472.2,707z M532,877.2l-174.5,48.2L275.7,694L532,877.2z
		 M274.3,696l81.5,230.5l-117.6,186.6L274.3,696z M356.5,929.1l79,307.6L338.1,1104c-0.2-0.3-0.6-0.4-0.9-0.4l0,0l-98.4,12.2
		L356.5,929.1z M239,1117.8l97.4-12.1l11.1,120.6L239,1117.8z"/>
	<path class="st1" d="M85.7,1208.5L0,1201.5v2l87.5,7.1c0,0,0.1,0,0.1,0c0.3,0,0.7-0.2,0.9-0.5c0.2-0.3,0.2-0.7,0-1L0,1063.6v3.9
		L85.7,1208.5z"/>
	<path class="st1" d="M114.6,1222.6c-0.4,0-0.7,0.2-0.9,0.5c-0.2,0.3-0.2,0.7,0,1l87.1,143.3c0.2,0.3,0.5,0.5,0.9,0.5
		c0.1,0,0.2,0,0.2,0c0.4-0.1,0.7-0.5,0.8-0.9l11.7-135.2c0-0.3-0.1-0.5-0.2-0.7s-0.4-0.3-0.7-0.4L114.6,1222.6z M200.9,1363.7
		l-84.5-139l95.8,7.8L200.9,1363.7z"/>
	<path class="st1" d="M97.4,1223.2l100.5,165.3l-61.4,90.1L0,1495.6v2l136.8-17l68.8,42.7L0,1512.9v2l209.4,10.5c0,0,0,0,0.1,0
		c0.3,0,0.5-0.1,0.7-0.3c0.2-0.2,0.3-0.5,0.3-0.8l-10.7-108.8c-0.5-4.6-0.5-9.3-0.1-13.9l0.4-13.1c0-0.2,0-0.4-0.1-0.5L98.8,1221.7
		c-0.2-0.3-0.5-0.5-0.8-0.5l-98-7.9v2L97.4,1223.2z M197.7,1415.8l10.5,106.7l-69.8-43.3l59.5-87.4l-0.3,9.6
		C197.2,1406.3,197.2,1411.1,197.7,1415.8z"/>
	<path class="st1" d="M94.8,29.2L0.4,0H0v2l95.1,29.4L55.3,82.2L0,152.8v3.2l91.6-117L0,225.1v4.5L97.6,31.3c0,0,0,0,0,0
		c0,0,0,0,0,0c0,0,0,0,0,0c0-0.1,0.1-0.1,0.1-0.2c0,0,0,0,0,0c0,0,0,0,0-0.1c0-0.1,0-0.1,0-0.2c0,0,0-0.1,0-0.1c0,0,0,0,0,0
		c0,0,0,0,0,0c0,0,0,0,0,0c0,0,0,0,0,0c0,0,0-0.1,0-0.1L82.7,0h-2.2L94.8,29.2z"/>
	<path class="st1" d="M584.1,202.3l-259,25.3L356.9,0h-2l-31.9,228l-118.7,47.3L354.5,0h-2.3L201.1,276.8c-0.2,0.3-0.1,0.7,0,1l0,0
		l63.7,100.9c-3.3,1.2-6.5,2.8-9.4,4.8L59.3,524.4L16.6,337L351.9,0h-2.8L14.8,336c-0.2,0.2-0.3,0.6-0.3,0.9l43.2,189.4
		c0.1,0.3,0.3,0.6,0.6,0.7c0.1,0,0.2,0.1,0.4,0.1c0.2,0,0.4-0.1,0.6-0.2l197.4-141.7c3-2.2,6.4-3.9,10-5L382.2,345
		c1.5-0.5,3.1-0.7,4.6-0.8l65.7-3.1c1.3-0.1,2.6-0.5,3.7-1.2l47.3-31.5l275.8-154.2c0,0,0,0,0,0c0.1,0,0.1-0.1,0.2-0.1
		c0,0,0.1-0.1,0.1-0.1c0,0,0.1-0.1,0.1-0.2c0,0,0.1-0.1,0.1-0.1c0-0.1,0-0.1,0-0.2c0-0.1,0-0.1,0-0.2c0,0,0,0,0,0c0-0.1,0-0.1,0-0.2
		c0,0,0-0.1,0-0.1c0,0,0,0,0,0c0-0.1-0.1-0.1-0.1-0.2c0,0,0-0.1-0.1-0.1c-0.1-0.1-0.1-0.1-0.2-0.2c0,0,0,0-0.1,0
		c-0.1,0-0.2-0.1-0.2-0.1c0,0-0.1,0-0.1,0c0,0,0,0,0,0l-215.8-21.8L368,0h-5.8L584.1,202.3z M455.1,338.2c-0.8,0.5-1.7,0.8-2.7,0.9
		l-65.7,3.1c-1.7,0.1-3.5,0.4-5.1,0.9l-114.8,35.1l-63.4-100.3l120.3-48l177.1,77.9L455.1,338.2z M502.7,306.3l-175-76.9l256.4-25.1
		L502.7,306.3z M507,304.2l26.6-33.3L587,204l28.5-7.4l156.1-40.3L507,304.2z M773.2,153.8l-107.4,27.7L587,201.9l-15-45.8
		l-7.7-23.4L773.2,153.8z M584.3,199.8L367.3,2L562,132.2L584.3,199.8z"/>
	<path class="st1" d="M3.4,343.2l42.2,191.1L0,567v2.5l47.3-34c0.3-0.2,0.5-0.6,0.4-1L4.8,340.3c-0.1-0.4-0.4-0.7-0.8-0.8
		c-0.4-0.1-0.8,0.1-1,0.5l-3,4.8v3.8L3.4,343.2z"/>
	<path class="st1" d="M229.2,1628.6c-6.3-7.6-10.2-16.9-11.2-26.7l-6.3-63.9c0,0,0,0,0-0.1c0,0,0,0,0-0.1c0,0,0-0.1-0.1-0.1
		c0,0,0-0.1-0.1-0.1c0-0.1-0.1-0.1-0.1-0.2c0,0-0.1-0.1-0.1-0.1c-0.1,0-0.1-0.1-0.2-0.1c0,0-0.1,0-0.1-0.1c-0.1,0-0.2-0.1-0.3-0.1
		L0,1526.5v2l207,10.4l-203.1,104l-3.8-4.6v3.1l2.3,2.7l-2.3,2.7v3.1l3.9-4.6l306.3,89.9H0v2h317.2c0.4,0,0.7-0.2,0.9-0.6
		c0.2-0.4,0.1-0.8-0.1-1.1L229.2,1628.6z M6.3,1643.9l203.6-104.3l6.1,62.5c1,10.3,5,19.9,11.6,27.8l86.7,104.4L6.3,1643.9z"/>
	<path class="st1" d="M863.8,40.6L777.5,0h-4.7l54.3,25.5l32.6,15.4L547.8,28.1L726.1,0h-12.9L542,27l40.3-27h-3.6l-41.6,27.8
		c-0.1,0-0.1,0.1-0.1,0.1c0,0-0.1,0.1-0.1,0.1c-0.1,0.1-0.1,0.2-0.1,0.2c0,0,0,0,0,0.1c0,0.1-0.1,0.2,0,0.3c0,0,0,0,0,0
		c0,0,0,0.1,0,0.1c0,0.1,0,0.1,0,0.2c0,0,0,0,0,0c0,0,0,0.1,0.1,0.1c0,0.1,0.1,0.1,0.1,0.2c0,0,0.1,0.1,0.1,0.1
		c0.1,0,0.1,0.1,0.2,0.1c0,0,0.1,0,0.1,0.1c0.1,0,0.2,0,0.3,0.1c0,0,0,0,0.1,0l326.9,13.4c0,0,0,0,0,0c0.1,0,0.2,0,0.3-0.1
		c0,0,0.1,0,0.1,0c0,0,0.1,0,0.1,0c0,0,0.1,0,0.1-0.1c0,0,0,0,0.1,0c0.1-0.1,0.1-0.1,0.2-0.2c0,0,0,0,0,0c0-0.1,0.1-0.2,0.1-0.3
		c0,0,0,0,0,0c0,0,0,0,0,0c0,0,0-0.1,0-0.1L870.3,0h-2L863.8,40.6z"/>
	<path class="st1" d="M508,1866C508,1866,508,1866,508,1866l-89.1-317.8c0,0,0,0,0,0c0,0,0-0.1,0-0.1c0-0.1-0.1-0.1-0.1-0.2
		c0,0,0,0,0-0.1c0,0,0,0,0,0c0,0,0,0-0.1,0c0,0-0.1-0.1-0.1-0.1c0,0-0.1,0-0.1-0.1c0,0,0,0,0,0c0,0-0.1,0-0.1-0.1c0,0-0.1,0-0.1,0
		c0,0-0.1,0-0.1,0c0,0-0.1,0-0.1,0l-193.6-9.7c-0.1,0-0.3,0-0.4,0.1c0,0-0.1,0-0.1,0.1c-0.1,0-0.2,0.1-0.2,0.2c0,0,0,0-0.1,0
		c0,0,0,0,0,0c-0.1,0.1-0.1,0.2-0.2,0.3c0,0,0,0,0,0c0,0,0,0,0,0.1c0,0.1,0,0.2,0,0.3c0,0,0,0,0,0.1l5.7,58.3
		c1,9.9,4.9,19.2,11.2,26.9l93.7,112.8c0,0,0,0,0,0c0,0.1,0.1,0.1,0.1,0.1l172.3,130c0,0,0,0,0,0c0.1,0,0.1,0.1,0.2,0.1
		c0,0,0.1,0,0.1,0c0.1,0,0.2,0,0.3,0c0,0,0,0,0,0c0,0,0,0,0,0c0,0,0,0,0,0c0,0,0,0,0,0c0.1,0,0.3,0,0.4-0.1c0,0,0,0,0,0
		c0.1,0,0.1-0.1,0.2-0.1c0,0,0.1,0,0.1-0.1c0,0,0,0,0,0c0,0,0.1-0.1,0.1-0.1c0,0,0.1-0.1,0.1-0.1c0,0,0-0.1,0-0.1
		c0-0.1,0-0.1,0.1-0.2c0,0,0-0.1,0-0.1C508,1866.1,508,1866.1,508,1866z M304.1,1543.8l110.7,5.6l-97.6,63.5l-89.9-72.9
		L304.1,1543.8z M416.8,1550.4l-11.9,149.8l-86.1-86L416.8,1550.4z M241.9,1622.8c-6.1-7.4-9.8-16.3-10.8-25.8l-5.5-56l90.7,73.6
		l17,118.3L241.9,1622.8z M318.6,1616.9l85.4,85.3l-29.4,14l-39.1,18.6L318.6,1616.9z M336.7,1736.4l68.7-32.7l98,158.5
		L336.7,1736.4z M406.7,1702.2l11.8-148l85.6,305.5L406.7,1702.2z"/>
	<path class="st1" d="M946.8,1282.6C946.8,1282.6,946.8,1282.6,946.8,1282.6C946.8,1282.6,946.8,1282.6,946.8,1282.6
		c0.1-0.1,0.1-0.2,0.2-0.3c0,0,0-0.1,0-0.1c0-0.1,0-0.2,0-0.3c0,0,0,0,0,0c0,0,0,0,0,0c0-0.1,0-0.2-0.1-0.3c0,0,0,0,0-0.1
		c0-0.1-0.1-0.2-0.2-0.2c0,0,0,0,0,0l0,0c0,0,0,0,0,0L841,1175.2l89-149.3c0,0,0,0,0,0c0-0.1,0-0.1,0.1-0.2c0-0.1,0-0.1,0-0.2
		c0-0.1,0-0.1,0-0.2c0-0.1,0-0.1,0-0.2c0-0.1,0-0.1-0.1-0.2c0-0.1,0-0.1-0.1-0.2c0,0,0,0,0,0c0,0-0.1-0.1-0.1-0.1
		c0,0-0.1-0.1-0.1-0.1c0,0,0,0,0,0c-0.1,0-0.1-0.1-0.2-0.1c0,0-0.1-0.1-0.1-0.1c-0.1,0-0.1,0-0.2,0c-0.1,0-0.1,0-0.2,0
		c-0.1,0-0.1,0-0.2,0c-0.1,0-0.1,0-0.2,0c0,0,0,0,0,0l-491.1,231.4l-210.7-24.2c-0.3,0-0.5,0-0.7,0.2c-0.2,0.2-0.3,0.4-0.4,0.7
		L211,1404c-0.3,3-0.2,6.1,0.1,9.2l11,112.1c0,0,0,0,0,0l0,0c0,0,0,0,0,0c0,0.1,0,0.2,0.1,0.2c0,0,0,0,0,0c0,0,0,0.1,0.1,0.1
		c0,0.1,0.1,0.1,0.1,0.2c0,0,0.1,0.1,0.1,0.1c0.1,0,0.1,0.1,0.2,0.1c0,0,0.1,0,0.1,0c0.1,0,0.2,0.1,0.3,0.1l195.6,9.8l98.1,54.2
		c0,0,0,0,0,0c0,0,0,0,0.1,0c0,0,0,0,0.1,0c0,0,0.1,0,0.1,0c0,0,0,0,0,0c0,0,0.1,0,0.1,0c0,0,0,0,0,0c0,0,0,0,0,0c0,0,0,0,0,0
		c0.1,0,0.2,0,0.3,0c0,0,0,0,0,0c0,0,0,0,0.1,0c0.1,0,0.1-0.1,0.2-0.1c0,0,0,0,0,0l428.9-307.3
		C946.7,1282.8,946.8,1282.7,946.8,1282.6z M940.2,1277.6l-131.3-74l-45-25.3l75.4-1.9L940.2,1277.6z M839.2,1174.4l-18.2,0.5
		l-58,1.5l161.9-145.7L839.2,1174.4z M923.4,1029.2l-71.1,64l-92.6,83.3l-312.5,77.1L923.4,1029.2z M213,1413
		c-0.3-2.9-0.3-5.9,0-8.8l14.8-170.4l208.4,23.9l-61.7,108.5l-150.7,156.7L213,1413z M225.3,1524.3l149.5-155.5l42.8,165.1
		L225.3,1524.3z M418.3,1528.8L376.4,1367l60.1-105.8L418.3,1528.8z M419.9,1534.4l18.5-271l77.3,323.9L419.9,1534.4z M517.6,1586.7
		L439,1257.6l219.5-54.1l99.7-24.6L517.6,1586.7z M520.4,1585.7l240.2-407.1l183.5,103.4L520.4,1585.7z"/>
	<path class="st1" d="M1091,1165.1c0,0,0-0.1,0-0.1c0-0.1,0-0.1-0.1-0.2c0,0,0,0,0-0.1l-101.5-138.9c0,0,0,0,0,0
		c-0.1-0.1-0.1-0.2-0.2-0.2c0,0-0.1,0-0.1,0c-0.1,0-0.1-0.1-0.2-0.1c0,0-0.1,0-0.1,0c0,0-0.1,0-0.1,0c-0.1,0-0.1,0-0.2,0
		c0,0-0.1,0-0.1,0c-0.1,0-0.2,0.1-0.3,0.1c0,0,0,0,0,0c0,0,0,0,0,0c-0.1,0-0.1,0.1-0.2,0.2c0,0,0,0.1-0.1,0.1c0,0,0,0.1-0.1,0.1
		l-89.5,148.9c0,0,0,0.1,0,0.1c0,0,0,0.1-0.1,0.1c0,0,0,0,0,0c0,0,0,0.1,0,0.1c0,0,0,0.1,0,0.1c0,0,0,0.1,0,0.1c0,0,0,0.1,0,0.1
		c0,0,0,0.1,0,0.1c0,0,0,0.1,0.1,0.1c0,0,0,0,0,0.1c0,0,0,0,0.1,0.1c0,0,0,0,0,0l82.1,89.4c0,0,0,0,0.1,0c0,0,0,0.1,0.1,0.1
		c0,0,0.1,0,0.1,0.1c0,0,0.1,0,0.1,0.1c0.1,0,0.2,0.1,0.4,0.1c0,0,0.1,0,0.1,0c0.1,0,0.1,0,0.2,0c0,0,0,0,0,0c0.1,0,0.2-0.1,0.3-0.2
		c0,0,0,0,0,0l108.9-99.4c0,0,0,0,0.1-0.1c0,0,0.1-0.1,0.1-0.1c0,0,0,0,0,0c0.1-0.1,0.1-0.2,0.1-0.3c0,0,0,0,0,0c0-0.1,0-0.2,0-0.3
		c0,0,0-0.1,0-0.1C1091,1165.2,1091,1165.2,1091,1165.1C1091,1165.1,1091,1165.1,1091,1165.1z M1087.5,1163.6l-28.6-8l-22.4-6.3
		l-18.4-48.2l-26-68L1087.5,1163.6z M988.3,1028.7l32.8,85.9l13.3,34.8L901.1,1174L988.3,1028.7z M980.9,1263l-79.9-87l111.5-20.5
		l21.6-4l-15.9,33.4L980.9,1263z M984.3,1260.6l20.8-43.7l31.3-65.6l51.7,14.5L984.3,1260.6z"/>
	<path class="st1" d="M680.2,2004.6c0,0,0-0.1,0-0.1c0,0,0-0.1,0-0.1c0,0,0-0.1,0-0.1c0,0,0-0.1-0.1-0.1c0,0,0-0.1-0.1-0.1
		c0,0-0.1-0.1-0.1-0.1c0,0,0,0,0,0L554.9,1906c0,0,0,0,0,0c-0.1,0-0.1-0.1-0.2-0.1c0,0-0.1-0.1-0.1-0.1c0,0-0.1,0-0.1,0
		c-0.1,0-0.1,0-0.2,0c0,0-0.1,0-0.1,0c-0.1,0-0.1,0-0.2,0.1c0,0,0,0,0,0c0,0-0.1,0.1-0.1,0.1c0,0-0.1,0-0.1,0.1c0,0,0,0,0,0
		c0,0-0.1,0.1-0.1,0.1c0,0-0.1,0.1-0.1,0.1c0,0,0,0.1,0,0.2c0,0.1,0,0.1,0,0.2c0,0,0,0.1,0,0.1c0,0.1,0,0.1,0,0.2c0,0,0,0,0,0
		l54,192.5c0,0,0,0,0,0.1c0,0.1,0.1,0.1,0.1,0.2c0,0,0,0.1,0.1,0.1c0,0,0,0,0,0.1c0,0,0,0,0.1,0c0.1,0.1,0.1,0.1,0.2,0.2
		c0,0,0.1,0,0.1,0c0.1,0,0.2,0.1,0.4,0.1c0,0,0,0,0,0c0,0,0.1,0,0.1,0l74.3-10.1c0.1,0,0.1,0,0.2,0c0,0,0,0,0,0c0,0,0,0,0,0
		c0.1,0,0.2-0.1,0.3-0.1c0,0,0,0,0,0c0.1-0.1,0.1-0.1,0.2-0.2c0,0,0-0.1,0-0.1c0,0,0-0.1,0.1-0.1c0,0,0,0,0-0.1c0,0,0-0.1,0-0.1
		c0-0.1,0-0.1,0-0.2c0,0,0,0,0-0.1L680.2,2004.6C680.3,2004.6,680.2,2004.6,680.2,2004.6z M677.3,2004.4l-45,19.3l-73.9-112.4
		L677.3,2004.4z M608.4,2095.7L557,1912.7l30.4,46.2l43.5,66.2l-3.8,12L608.4,2095.7z M609.8,2098l22.6-71l48.4,61.3L609.8,2098z
		 M633.6,2025.3l44.7-19.2l3.2,79.9L633.6,2025.3z"/>
	<path class="st1" d="M784.6,2041.1c0,0-0.1-0.1-0.1-0.1c0,0,0,0,0,0c0,0,0,0,0,0c-0.1-0.1-0.2-0.1-0.3-0.1c0,0-0.1,0-0.1,0
		c-0.1,0-0.1,0-0.2,0c0,0-0.1,0-0.1,0c0,0-0.1,0-0.1,0c0,0,0,0-0.1,0c0,0-0.1,0-0.1,0c-0.1,0-0.1,0.1-0.2,0.1c0,0,0,0-0.1,0
		l-54,47.3c-0.4,0.3-0.5,0.9-0.2,1.3l30.4,43.9c0,0,0,0,0,0c0,0,0,0,0,0c0,0.1,0.1,0.1,0.2,0.2c0,0,0,0,0,0c0,0,0,0,0,0
		c0.1,0,0.1,0.1,0.2,0.1c0,0,0,0,0.1,0c0.1,0,0.2,0,0.3,0c0.1,0,0.1,0,0.2,0c0,0,0,0,0,0c0,0,0.1,0,0.1,0c0,0,0.1,0,0.1-0.1
		c0,0,0,0,0,0l70.9-43.9c0.3-0.2,0.4-0.4,0.5-0.7s-0.1-0.6-0.3-0.8L784.6,2041.1z M759.9,2130.6l-28.6-41.4l50.9-44.6L759.9,2130.6z
		 M761.9,2130.8l22.6-87.1l45.1,45.1L761.9,2130.8z"/>
	<path class="st1" d="M1031.4,2061.8c0,0,0-0.1-0.1-0.1c0,0,0-0.1-0.1-0.1c0-0.1-0.1-0.1-0.1-0.2c0,0-0.1-0.1-0.1-0.1
		c-0.1-0.1-0.2-0.1-0.2-0.1c0,0,0,0,0,0l0,0c0,0,0,0,0,0l-94.5-37.1c0,0,0,0-0.1,0c0,0,0,0,0,0c0,0,0,0-0.1,0c-0.1,0-0.1,0-0.2,0
		c0,0,0,0-0.1,0c-0.1,0-0.2,0-0.3,0.1c0,0,0,0,0,0c-0.1,0-0.1,0.1-0.2,0.1c0,0,0,0,0,0c0,0,0,0-0.1,0.1c-0.1,0-0.1,0.1-0.1,0.2
		c0,0,0,0,0,0l-40.5,64.2c0,0,0,0,0,0.1c0,0.1-0.1,0.1-0.1,0.2c0,0,0,0.1,0,0.1c0,0.1,0,0.1,0,0.2c0,0,0,0.1,0,0.1c0,0,0,0,0,0
		c0,0.1,0,0.2,0.1,0.3c0,0,0,0,0,0c0,0.1,0.1,0.2,0.2,0.2c0,0,0,0,0,0c0,0,0,0,0,0c0.1,0.1,0.1,0.1,0.2,0.1c0,0,0.1,0,0.1,0
		c0,0,0,0,0,0l57.4,16.9c0.1,0,0.2,0,0.3,0c0.1,0,0.2,0,0.3-0.1c0,0,0.1,0,0.1,0c0,0,0,0,0.1,0l77.7-43.9c0,0,0,0,0.1-0.1
		c0,0,0.1-0.1,0.1-0.1c0,0,0.1-0.1,0.1-0.1c0,0,0.1-0.1,0.1-0.1c0-0.1,0-0.1,0.1-0.2c0,0,0-0.1,0-0.1c0,0,0,0,0-0.1
		c0-0.1,0-0.1,0-0.2C1031.4,2062,1031.4,2061.9,1031.4,2061.8C1031.4,2061.9,1031.4,2061.9,1031.4,2061.8z M936.9,2026.4l87.7,34.5
		l-87.7-3.1V2026.4z M934.9,2028.4v29.8l-35.8,26.8L934.9,2028.4z M897.6,2088.7l37.8-28.4l15.8,44.1L897.6,2088.7z M953.3,2104.5
		l-16-44.8l89.5,3.2L953.3,2104.5z"/>
	<path class="st1" d="M281.8,598.5c-0.5,0-1,0.4-1.1,0.9l-6.8,78.4c0,0.3,0.1,0.5,0.2,0.7s0.4,0.3,0.7,0.3l297.9,19.6c0,0,0,0,0.1,0
		c0,0,0,0,0,0s0,0,0,0c0,0,0,0,0,0c0,0,0,0,0,0c0.1,0,0.2,0,0.3,0c0,0,0.1,0,0.1,0c0,0,0.1,0,0.1,0c0,0,0,0,0,0c0,0,0,0,0,0
		c0,0,0,0,0,0c0,0,0.1,0,0.1-0.1c0,0,0.1-0.1,0.1-0.1c0,0,0,0,0,0c0,0,0-0.1,0.1-0.1c0,0,0,0,0.1-0.1l116.6-182c0,0,0-0.1,0-0.1
		c0,0,0-0.1,0.1-0.1c0-0.1,0-0.1,0-0.2c0-0.1,0-0.1,0-0.1c0-0.1,0-0.1,0-0.2c0,0,0-0.1,0-0.1c0,0,0,0,0,0c0-0.1-0.1-0.1-0.1-0.2
		c0,0-0.1-0.1-0.1-0.1c0,0,0,0,0,0c0,0-0.1-0.1-0.1-0.1c0,0-0.1-0.1-0.1-0.1c-0.1,0-0.1-0.1-0.2-0.1c0,0-0.1,0-0.1,0
		c-0.1,0-0.2,0-0.3,0c0,0,0,0,0,0h0c0,0,0,0,0,0l-244.9,45.1c0,0,0,0,0,0l0,0c0,0-0.1,0-0.1,0c-0.1,0-0.1,0-0.1,0.1c0,0,0,0-0.1,0
		l-73.8,39.6c-5.7,3.1-12.2,4.5-18.8,4h0L281.8,598.5z M573.3,694.7l-17.9-101.1l130.9-75.3L573.3,694.7z M683.8,517.5L554.2,592
		l-105.4-31.2L683.8,517.5z M553.4,593.9l17.8,100.4l-24.9-26.6l-98.5-105.1L553.4,593.9z M371.1,601.1l73.2-39.3l126,134.4
		L276,676.9l6.6-76.4l68.7,4.8c0,0,0,0,0,0C358.2,605.8,365.1,604.3,371.1,601.1z"/>
	<path class="st1" d="M924.1,423.6C924.1,423.6,924.1,423.6,924.1,423.6C924.1,423.6,924.1,423.6,924.1,423.6
		C924.1,423.6,924.1,423.6,924.1,423.6C924.1,423.6,924.1,423.6,924.1,423.6c0.1,0,0.2,0,0.3,0c0,0,0.1,0,0.1,0
		c0.1,0,0.1-0.1,0.2-0.1c0,0,0.1,0,0.1-0.1c0,0,0.1-0.1,0.1-0.1c0,0,0-0.1,0.1-0.1c0,0,0,0,0,0c0,0,0-0.1,0-0.1
		c0-0.1,0.1-0.1,0.1-0.2c0,0,0,0,0-0.1c0-0.1,0-0.1,0-0.2c0-0.1,0-0.1,0-0.2c0-0.1,0-0.1,0-0.2c0-0.1,0-0.1-0.1-0.2
		c0,0-0.1-0.1-0.1-0.1c0-0.1-0.1-0.1-0.1-0.1c0,0,0,0-0.1-0.1l-138.5-97.9c0,0,0,0,0,0c0,0-0.1,0-0.1-0.1c0,0-0.1,0-0.1-0.1
		c0,0-0.1,0-0.1,0c0,0-0.1,0-0.1,0c0,0-0.1,0-0.1,0c0,0-0.1,0-0.1,0c0,0,0,0,0,0l-81,13.5c-0.2,0-0.5,0.2-0.6,0.3c0,0,0,0.1-0.1,0.1
		c0,0.1-0.1,0.1-0.1,0.2c0,0,0,0,0,0L683.4,402c0,0,0,0.1,0,0.1c0,0,0,0.1,0,0.1c0,0.1,0,0.1,0,0.2c0,0,0,0.1,0,0.1c0,0,0,0,0,0
		c0,0.1,0,0.1,0.1,0.2c0,0,0,0.1,0,0.1c0,0.1,0.1,0.1,0.1,0.2c0,0,0,0,0.1,0.1c0,0,0,0,0,0c0,0,0.1,0,0.1,0c0.1,0,0.1,0.1,0.2,0.1
		c0,0,0.1,0,0.1,0c0,0,0.1,0,0.1,0L924.1,423.6C924,423.6,924.1,423.6,924.1,423.6z M786.3,326.3L914.5,417L780,354.5L786.3,326.3z
		 M784.3,325.9l-6.2,28l-68.4-15.5L784.3,325.9z M705.3,339.3l70.7,16.1l-89.9,45L705.3,339.3z M688,401.6l80.1-40l10.9-5.4
		l72.5,33.7l67.2,31.2L688,401.6z"/>
	<path class="st1" d="M654.9,337.8C654.9,337.8,654.8,337.8,654.9,337.8c-0.1-0.1-0.1-0.2-0.2-0.3c0,0,0,0,0,0c0,0,0,0-0.1-0.1
		c-0.1-0.1-0.1-0.1-0.2-0.1c0,0-0.1,0-0.1,0c-0.1,0-0.2-0.1-0.2-0.1c0,0,0,0-0.1,0l-147.2-16.5c-0.1,0-0.2,0-0.3,0c0,0,0,0,0,0
		c-0.1,0-0.2,0.1-0.3,0.1c0,0,0,0,0,0l-43.4,28.4c-3,1.9-6.4,3.1-10,3.2l-63.5,3c-1.9,0.1-3.8,0.4-5.6,1l-113.6,34.7
		c-2.4,0.7-4.6,1.8-6.7,3.3L61.3,539.6c-0.1,0.1-0.2,0.1-0.2,0.2c0,0,0,0.1-0.1,0.1c0,0.1-0.1,0.1-0.1,0.2c0,0,0,0.1,0,0.1
		c0,0.1,0,0.1,0,0.2c0,0,0,0.1,0,0.1c0,0,0,0,0,0.1l6.1,27.8c0.1,0.5,0.5,0.8,1,0.8c0.1,0,0.1,0,0.2,0L171,547.8
		c3.1-0.6,6.3-0.9,9.5-0.6l180.2,12.6c4.4,0.3,8.7-0.6,12.5-2.7l83-44.5c0,0,0,0,0,0c0,0,0,0,0,0l171.2-106c0.1,0,0.1-0.1,0.1-0.1
		c0,0,0,0,0,0c0.1-0.1,0.1-0.2,0.2-0.3c0,0,0,0,0,0l27-67.5c0,0,0,0,0,0c0,0,0-0.1,0-0.1c0-0.1,0-0.2,0-0.2c0,0,0,0,0-0.1
		c0,0,0,0,0,0C654.9,338,654.9,337.9,654.9,337.8z M647.7,338.5l-56,12.1L529.5,364l-21.1-41.1L647.7,338.5z M270.7,393.2
		l113.6-34.7c1.7-0.5,3.4-0.8,5.1-0.9l60.6-2.9l-126,107.6l-58.4-66.7C267.1,394.5,268.8,393.7,270.7,393.2z M263.8,396.7l58.2,66.5
		L67.2,537.8L263.8,396.7z M360.8,557.8l-180.2-12.6c-3.4-0.2-6.7,0-10,0.7L68.8,567.1L63,541.1l260.3-76.3l48,90.9
		C368.1,557.3,364.5,558,360.8,557.8z M455,510.9l-81.8,43.9l-48-90.9l128.1-109.4c3.8-0.2,7.4-1.5,10.6-3.5l42.5-27.8l21.5,42
		L455,510.9z M458.2,509l35-70.1l36.2-72.4l95.3,39.4L458.2,509z M626.4,404.4L545.7,371l-13.4-5.5l120-25.9L626.4,404.4z"/>
	<path class="st1" d="M8.5,1010.1c3.7,4.5,5.3,10.3,4.4,16c-1,5.8-4.5,10.8-9.8,14c-0.2,0.1-0.4,0.4-0.5,0.6c-0.1,0.3,0,0.5,0.1,0.8
		L105,1209.8c0,0,0,0,0,0c0.1,0.1,0.2,0.2,0.3,0.3c0,0,0,0,0,0c0,0,0,0,0,0c0.1,0.1,0.2,0.1,0.4,0.1c0,0,0,0,0,0l108.6,8.8
		c0,0,0.1,0,0.1,0c0.5,0,1-0.4,1-0.9l8.3-95.9c0,0,0,0,0,0c0-0.1,0-0.2,0-0.3c0,0,0-0.1,0-0.1c0,0,0-0.1,0-0.1
		c-0.1-0.1-0.1-0.2-0.2-0.3c0,0,0,0,0,0l-117.7-117.7c-1-1-2.3-1.6-3.8-1.7c0,0,0,0,0,0L0,995.1v4.8L8.5,1010.1z M213.6,1217
		l-105-8.5l113-84.2L213.6,1217z M107.1,1207.2l9.9-108l103.5,23.5L107.1,1207.2z M104.5,1005.2l115.2,115.2L116.4,1097
		c-0.3-0.1-0.6,0-0.8,0.2c-0.2,0.2-0.4,0.4-0.4,0.7l-10,108.3L4.9,1041.3c5.3-3.5,8.8-8.7,9.9-14.8c1.1-6.3-0.7-12.7-4.8-17.6
		l-9.7-11.7l101.7,7C102.9,1004.2,103.8,1004.6,104.5,1005.2z"/>
	<path class="st1" d="M1066.6,1390.5l175.4-3.4v-2l-168.3,3.2l168.3-28.4v-2l-182,30.7c-0.5,0.1-0.8,0.5-0.8,0.9
		c0,0.5,0.3,0.9,0.7,1l182.1,54.9v-2.1L1066.6,1390.5z"/>
</g>
</svg>
