<svg xmlns="http://www.w3.org/2000/svg" id="Layer_1" viewBox="0 0 1369.1 363.5">
  <style>
    .st1{fill:#fff}
  </style>
  <path id="Rectangle_72-2" fill="#016948" d="M0 0h1369.1v363.5H0z"/>
  <path d="M385 136.4L325.5 164l-83 41c-.1.1-.2.1-.3.2-.1.1-.1.2-.2.2v.8s0 .1.1.1l.1.1.1.1.1.1h.1l87.8 40.4 58 31.9c.2.1.3.1.5.1.3 0 .6-.1.8-.3l77.4-88.2c.1-.1.1-.1.1-.2s.1-.2.1-.3v-.1-.2-.1c0-.1-.1-.1-.1-.2l-.2-.2-80.9-52.7h-.1c-.1 0-.1-.1-.2-.1h-.1-.1-.1-.1H385zm-63.4 54.4l-71.9 12.9 75-37-3.1 24.1zm2 1.3l54.7-47.2 4.1-3.5-51 101.7-3-20.1-4.8-30.9zm.2-2.9l3-23.6 52.5-24.4-55.5 48zm-77.6 17.2l75.5-13.5 2.2 14.4 5.6 37.5-83.3-38.4zM388.5 277L333 246.5l129.5-53.8-74 84.3zm-55.7-32.6l53-105.6 78.2 51.1-131.2 54.5zM432.7 28l42.7 135.9c0 .1 0 .1.1.1 0 0 0 .1.1.1 0 .1.1.1.2.2l.1.1c.1.1.2.1.3.1l72.2 19.3h.3c.1 0 .2 0 .3-.1.1 0 .2-.1.2-.1l.2-.2c.1-.2.2-.4.2-.6L547.1 92c0-.1 0-.3-.1-.4-.1-.1-.1-.2-.2-.3h-.1l-.1-.1-112.4-64.4h-.1c-.1 0-.1 0-.2-.1h-.4c-.1 0-.1 0-.2.1h-.1c-.1 0-.1.1-.2.1l-.1.1s0 .1-.1.1c0 .1-.1.1-.1.2V28zm54.9 72.7l-11.4 58.9-39.8-126.7 51.2 67.8zm-10 62.2l11.6-60 27.3 37.5 29.6 40.8-68.5-18.3zm69.9 16.8l-31.6-43.5-25.5-35.1 54.6-7.9 2.5 86.5zm-58.4-80.3L437.4 31 543 91.6l-53.9 7.8zM337 279.9v-.2c0-.1 0-.1-.1-.2 0-.1-.1-.1-.1-.2l-.1-.1s-.1-.1-.2-.1h-.1l-180.3-94h-.1-.1-.1H155.5 155.2h-.1s-.1 0-.1.1h-.1l-77.8 68.9c-.1.1-.1.1-.1.2l-.1.1c0 .1-.1.2-.1.3v.4c0 .1 0 .1.1.2 0 0 0 .1.1.1 0 0 0 .1.1.1l.1.1.1.1 49.9 33.5c.1 0 .1.1.2.1h.4l208.3-8.3h.1c.1 0 .2 0 .2-.1 0 0 .1 0 .1-.1.1 0 .1-.1.2-.1l.1-.1s.1-.1.1-.2c0 0 0-.1.1-.1v-.1-.1-.1c.1 0 .1 0 0-.1zm-172.4-45.1l-2.3-14.3-5.3-32.7 170.8 89.1-163.2-42.1zm-9.6-46.9l7.6 46.9-69.7 15.6-11.4 2.6 73.5-65.1zm-60.3 64.2l66.8-15-34 49.8-47.1-31.6 14.3-3.2zm69.5-15.3l165 42.5-199.5 8 34.5-50.5zM65.2 124.7v.2c0 .1 0 .1.1.1v.2s0 .1.1.1l.1.1s.1 0 .1.1c.1 0 .2.1.2.1L192 159.7h.3c.1 0 .3 0 .4-.1h.1c.1-.1.2-.1.3-.3.1-.1.1-.1.1-.2s0-.2.1-.3v-.1c0-.1 0-.2-.1-.3v-.1c0-.1-.1-.2-.1-.2L106.7 56.3l-.2-.2h-.1c-.1 0-.1-.1-.2-.1h-.4-.1-.1s-.1 0-.1.1c-.1 0-.1.1-.1.1l-.1.1c0 .1-.1.1-.1.2v.1L91.3 95.9l-25.9 28-.1.1c0 .1-.1.1-.1.2V124.5c-.1.1 0 .2 0 .2zm40.1-12.2l-12-16.2L105 62.7l.3 49.8zm-35 12.2l35.8-8h.1l64 32.1 12.8 6.4-112.7-30.5zm98.2 21L107.4 115l-.4-55.3 81.4 96-19.9-10zM92.1 98l12.5 16.9-35.6 8L92.1 98zM659.4 126.6l-53.5 220.6v.6c0 .1.1.1.1.2v.1c.1.1.2.2.3.2.1.1.3.1.4.1.1 0 .2 0 .3-.1h.2l202-125.2.1-.1.1-.1s0-.1.1-.1c0-.1.1-.1.1-.2v-.1-.2-.1-.1-.1-.1c0-.1-.1-.1-.1-.2l-.1-.1-.1-.1L660.9 126c-.1 0-.2-.1-.3-.1H660.3h-.1c-.1 0-.1 0-.2.1h-.1c-.1.1-.2.1-.3.2v.1c0 .1-.1.1-.1.2 0 0-.1 0-.1.1zm53.5 106.8L608.8 344l52.1-214.9 70.3 84.9-18.3 19.4zm7.8-5.4l12.2-13 72.9 7.9-193 119.6L720.7 228zm84-7.2L733 213l-67.8-81.8 139.5 89.6zM761.2 182.5l.1.1c.1 0 .1.1.2.1s.1.1.2.1c0 0 .1 0 .1.1l76.3 8.3h.1c.3 0 .6-.1.8-.4.2-.3.3-.6.1-1L797.9 81.4c0-.1-.1-.2-.1-.2l-.2-.2h-.1c-.1 0-.1-.1-.2-.1H797h-.1-.1l-107.2 13c-.4 0-.7.3-.8.6-.1.3-.1.7.2 1l72.2 87zm2.2-1.5l33.1-94.6.6-1.7L836.8 189l-73.4-8zm32.1-98.1l-29.2 83.5-4.7 13.4-69.9-84.3 103.8-12.6zM1248.8 153.2c.1-.1.2-.1.3-.2.1-.1.1-.1.1-.2v-.1c0-.1.1-.2.1-.3v-.1-.2-.1c0-.1-.1-.1-.1-.2v-.1l-79.6-102.2s-.1 0-.1-.1c-.1-.1-.1-.1-.2-.1h-.1c-.1 0-.1-.1-.2-.1H1168.7h-.1-.1-.1s-.1 0-.1.1c-.1 0-.1.1-.2.1l-.1.1c0 .1-.1.1-.1.2v.1L1154 79.2l-39.1-16.4c-.1 0-.2-.1-.3-.1H1114.3h-.1s-.1 0-.1.1h-.1l-.1.1c-.1 0-.1.1-.1.2v.2c0 .1-.1.1-.1.2v.4l27.1 135.7c0 .1 0 .1.1.2v.1c.1.1.1.2.2.2.1.1.2.1.3.2H1141.7c.1 0 .3 0 .4-.1l106.7-47zm-105.6 44.5l26.2-88.4 76.8 43-103 45.4zm31.9-87.5l-5.4-3V53.1l74.8 96-69.4-38.9zm-7.4-55.6v49l-12.2-23.2 12.2-25.8zm-13.9 26.7l11.9 22.6-45.1-36.6 33.2 14zm13.8 26.8l-25.8 87.2-25.8-129 51.6 41.8zM1330.4 208.2v-.1-.1s0-.1-.1-.1c0 0 0-.1-.1-.1l-.1-.1-.1-.1-51.1-33.1c-.3-.2-.6-.2-.9-.1l-69.8 24.2c-.1 0-.1.1-.2.1h-.1l-.2.2-34.8 58.9v.1s0 .1-.1.1v.6s0 .1.1.1c0 0 0 .1.1.1v.1c.1.1.2.2.3.2l100.9 46.4c.1.1.3.1.4.1.4 0 .7-.2.9-.5l54.7-96.4v-.1-.1-.1-.1-.1-.1c.2.2.2.2.2.1zm-52.2-31.8l47.4 30.7-112.1-8.3 64.7-22.4zm-69.1 24.1l3.7.3 111.4 8.2-148.2 47.6 33.1-56.1zm65.2 103l-97.8-44.9 150.7-48.4-52.9 93.3zM601.3 144.9c0 .1.1.2.1.2s0 .1.1.1c0 .1.1.1.1.1l.1.1s.1.1.2.1l.1.1h.4c.1 0 .2 0 .3-.1h.1c.1 0 .2-.1.3-.2l.1-.1.1-.1L634.5 98s0-.1.1-.1c.1-.2.1-.5 0-.8l-13.5-31.7c0-.1-.1-.1-.1-.2h-.1c-.1 0-.1-.1-.2-.1 0 0-.1 0-.1-.1-.1 0-.1 0-.2-.1H620.1c-.1 0-.2.1-.3.1L592 80.8c-.1 0-.2.1-.2.2v.1c0 .1-.1.1-.1.2v.1c0 .1 0 .1-.1.2V81.9l9.7 63zm18.5-76.8l12 28.1-26.1-6 4.6-7.1 9.5-15zm-16.7 23.2l-1.4 42.7-7.7-50 9.1 7.3zm1.9.8l26.8 6.2-28.4 43 1.6-49.2zm11.9-23.3l-10.5 16.5-2.6 4-9.5-7.6 22.6-12.9zM1009.9 113.3v-.1-.1s0-.1-.1-.1c0 0 0-.1-.1-.1l-.1-.1s0-.1-.1-.1l-73.4-52.4h-.1c-.1 0-.2-.1-.2-.1H935.5h-.1c-.1 0-.1 0-.2.1 0 0-.1 0-.1.1h-.1l-.1.1-.1.1c0 .1-.1.1-.1.2 0 0 0 .1-.1.1 0 .1-.1.2-.1.3l-4.6 88.6V150.1c0 .1 0 .1.1.2 0 0 0 .1.1.1l.1.1s.1 0 .1.1l.1.1 64.5 37h.2c.1.1.3.1.4.1h.4c.1-.1.2-.1.3-.2v-.1c0-.1.1-.1.1-.2v-.1-.1l13.5-73.2v-.1c.1-.4.1-.5.1-.5zm-25.7 10.5L955.7 137l-7.1-28.1-11.5-45.5 69.8 49.8-22.7 10.6zm-29.5 15.9L991 183l-58-33.2 21.7-10.1zm-18.5-72l15.2 60.3 2.5 9.9L932 148l4.2-80.3zm58.6 116.7l-38.2-45.6 24.2-11.2 26.8-12.4-12.8 69.2zM1005.1 74.7v.1c0 .1.1.1.1.2 0 0 0 .1.1.1l67.6 74.1h.1l.2.2h.1c.1 0 .2.1.4.1H1074s.1 0 .1-.1h.1c.1 0 .1-.1.2-.1 0 0 .1 0 .1-.1s.1-.1.1-.2v-.1l18.2-57.7v-.1-.2l-4.4-61.5v-.2c0-.1 0-.1-.1-.2l-.1-.1c0-.1-.1-.1-.1-.1l-.1-.1c-.1 0-.1-.1-.2-.1l-80.1-28h-.2H1007.2h-.1c-.3.1-.5.4-.6.7v.2l-1.2 73.1v.1c-.2-.1-.2-.1-.2 0zm68.5 70.8l-22.7-59.9-21.5-56.8 4.5 4.6 56.8 57.7-17.1 54.4zM1008.2 4.1l17.4 20.8-18.5 44.3 1.1-65.1zm-.9 70.1l19.5-46.8 44.1 116.6-63.6-69.8zm83.4 14l-61.3-62.3 57.1 4.3 4.2 58zm-10.8-60.4l-39.5-3-13.1-1-16.9-20.3 69.5 24.3zM559.9 305.8h.2s.1 0 .1-.1c0 0 .1 0 .1-.1l.1-.1.1-.1.1-.1v-.1-.1-.1-.2-89.3-.1-.2-.1c0-.1 0-.1-.1-.2l-.1-.1-.1-.1-.1-.1s-.1 0-.1-.1h-.1H559.7h-.1l-71.3-2.5h-.1-.1c-.2 0-.4.1-.6.3 0 .1-.1.1-.1.2V213.2l30 92.1s0 .1.1.1c0 .1.1.1.1.2v.1h.1c.1.1.1.1.2.1 0 0 .1 0 .1.1.1 0 .2.1.3.1l41.6-.2zm-27.7-40.2L520 249l19.4-15.6 19.6-15.7v84l-26.8-36.1zm25-49.1l-38.5 30.9-27.9-33.3 66.4 2.4zm-61.1 7l21.5 25.6v49.7l-26.4-81.2 4.9 5.9zm23.5 28.3l.5.7 37.9 51.3-38.3.4v-52.4zM890.8 60.9l-39.1 28.5-.1.1-.1.1c0 .1-.1.1-.1.2 0 0 0 .1-.1.1V90.2l4.2 74.8V165.3c0 .1.1.1.1.2 0 0 0 .1.1.1.1.1.2.2.3.2.1 0 .2.1.3.1h.1c.1 0 .3 0 .4-.1h.1l.3-.3 46.7-62.1s0-.1.1-.1c0-.1.1-.1.1-.2v-.2-.2-.2-.1l-11.9-41.2c0-.1 0-.1-.1-.2 0 0 0-.1-.1-.1l-.1-.1-.1-.1s-.1 0-.1-.1l-.1-.1h-.2-.1c-.1 0-.2 0-.3.1 0 0-.1 0-.1.1 0 .2-.1.2-.1.2zm-33.6 99.2l-3.9-69 13.3-2.8 17.7-3.8-24 67.1-3.1 8.5zm32.5-95.9L885 82.3l-28.4 6 33.1-24.1zm-30 95l26.6-74.1 15.7 18-42.3 56.1zM887 82.9l4.5-17.3 9.6 33.4L887 82.9zM265.4 174.2l-15.6-32.9c-.1-.2-.3-.4-.6-.5l-24.6-9H224.3h-.1-.1-.1-.1-.1-.1s-.1 0-.1.1h-.1l-.1.1h-.1l-11 12.1c-.3.3-.3.8-.1 1.2l11 18.9v.1s0 .1.1.1l.1.1s.1 0 .1.1c.1 0 .2.1.2.1l40.2 11H264.6c.1 0 .1 0 .2-.1.1 0 .1-.1.2-.2l.1-.1s0-.1.1-.1c0 0 0-.1.1-.1v-.2-.1c.2-.4.1-.5.1-.6zm-4.4-4.7l-33-34.4 20.2 7.4 12.8 27zm-37.7-34.2v24.6l-8.7-15 8.7-9.6zm2-.2l36 37.6-36-9.9v-27.7zM312.4 333.4c0-.1 0-.1 0 0v-.1-.1-.1-.1-.1l-13-19.5c-.1-.2-.3-.4-.6-.4l-36-9.1h-.3-.1c-.1 0-.2 0-.3.1l-39.7 20.8-.1.1-.1.1c-.1 0-.1.1-.1.1l-.1.1c0 .1-.1.1-.1.2v.5c0 .1.1.2.1.3l.1.1c0 .1.1.1.2.2 0 0 .1 0 .1.1.1 0 .1.1.2.1l60.7 18.3h.3c.1 0 .2 0 .4-.1l27.9-10.6h.1c.1 0 .1-.1.2-.1 0 0 .1 0 .1-.1 0 0 0-.1.1-.1 0 0 0-.1.1-.1v-.1-.1-.1-.1l-.1-.1zm-4.2-3l-35.1-20.5-4-2.3 28.8 7.3 10.3 15.5zM262.5 306l9.3 5.4 35.3 20.6-80.8-7.1 36.2-18.9zm21 37l-51.1-15.4 12.8 1.1 61.8 5.4-23.5 8.9zM603.1 40.7L576.8 0h-2.4l28.1 43.3L563 21.5 556.7 0h-2.1l6.6 22.5c.1.3.2.5.5.6L605 47c.1 0 .1 0 .2.1H605.5c.1 0 .2 0 .3-.1h.1c.1-.1.2-.1.3-.2l.1-.1.1-.1c0-.1 0-.1.1-.2v-.1-.3L595.4 0h-2.1l9.8 40.7zM529.2 23.7L506.7 0h-2.8L531 28.4 426.3 0h-7.6L534 31.3h.7c.1 0 .1-.1.2-.1l.2-.2c.1-.1.1-.2.1-.3v-.3-.1c0-.1 0-.1-.1-.2L518 0h-2.3l13.5 23.7zM346.4 37v89.9L297 0h-2.1l50.9 130.6-170.2-54.7L272.7 0h-3.2l-96.6 75.5c-.3.2-.4.6-.4 1 .1.4.3.7.7.8l173.9 56h.6s.1 0 .1-.1c.1 0 .1-.1.2-.1 0 0 .1 0 .1-.1 0 0 0-.1.1-.1 0-.1.1-.1.1-.2v-.1-.2-95.8c0-.3-.1-.6-.3-.7L308.2 0h-3l41.2 37zM217.3 2.2L103.2 24.4 163.7 0h-5.3l-14.7 5.9-49.5 20V0h-2v27.6c0 .1.1.1.1.2 0 0 0 .1.1.1 0 .1.1.1.1.2h.1s.1 0 .1.1c0 0 .1 0 .1.1h.5L224.5 2.9c.5-.1.8-.5.8-1s-.4-.9-.9-.9l-9.5-1h-21.1l23.5 2.2zM59.6 114.4c.2 0 .3 0 .4-.1h.2l.1-.1v-.1l.1-.1v-.1l23.9-58.7V55v-.1-.3c0-.1 0-.2-.1-.2 0 0 0-.1-.1-.1l-.1-.1-.1-.1-.1-.1L0 6.3v2.3l80.9 45.7L69 57.5l-9.1 2.4L0 9v2.6l10.6 9.1 45.7 38.9-56.3-8v2l58.6 8.2v49.5L0 63.4V66l56.2 46L0 104.1v2l59.5 8.3h.1zm1-52.6l8.2-2.2 13.1-3.5-21.2 52.2V61.8zM104.6 194c0-.1.1-.1.1-.2v-.1-.2-.1-.2-.1c0-.1-.1-.2-.2-.3h-.1c-.1-.1-.1-.1-.2-.1 0 0-.1 0-.1-.1h-.1L0 157.9v2.1l101.3 33.7L0 251.9v2.3l99.6-57.3L0 321.1v3.2L104.6 194c-.1 0-.1 0 0 0zM224.3 349.6l.1-.1.1-.1.1-.1c0-.1 0-.1.1-.2v-.1-.2-.1c0-.1 0-.1-.1-.2v-.1c-.1-.1-.1-.2-.2-.3-.1-.1-.2-.1-.3-.2L66.8 289.7c-.1 0-.3-.1-.4-.1h-.1c-.1 0-.2 0-.3.1 0 0-.1 0-.1.1-.1 0-.1.1-.2.2l-.1.1-55.8 68.6s0 .1-.1.1l-.1.1c0 .1 0 .1-.1.2v.4c0 .1.1.2.1.3l.2.2.1.1c.1 0 .1.1.2.1l8 3.2h5.3l-9.4-3.8 102-20.2 1.6 24.1h2l-1.6-24.2 5.7.6 96.8 9.6-25.9 14h4.2l25.5-13.9c0 .1 0 0 0 0zm-115.2-10.8l-96 19.1 53.5-65.7 48.3 45.5-5.8 1.1zm21.2-.2l-13-1.3-46.6-44L216.1 347l-85.8-8.4zM467.1 264.1c0-.3-.2-.6-.5-.8-.3-.2-.6-.2-.9 0L337 328.5h-.1l-.1.1-.1.1-25.7 34.7h2.5l24.3-32.8 50.7 32.8h3.7L340.6 330l48.9-4.7 80.4-7.7-13.8 45.8h2.1l10.1-33.4 3.1-10.3 15.2 43.7h2.1l-16.4-47.1-5.2-52.2zM397 322.7l-54.3 5.2 122.6-62.1 4.7 49.9-73 7zM560.7 339.5c0-.1 0-.1-.1-.2 0 0 0-.1-.1-.1 0-.1-.1-.1-.1-.1l-.1-.1-.1-.1s-.1 0-.1-.1c-.1 0-.2 0-.2-.1h-.1-.1c-.2 0-.4 0-.5.1l-30.3 19.9-.1.1-.1.1s-.1.1-.1.2l-.1.1v4.1h2v-2.9l22.7-3.7-2.8 6.7h2.2l2.5-6 4.7 6h2.5l-6.4-8.1 3.7-11.8 4.5 19.9h2.1l-5.5-23.9zm-6.7 15.2l-20.1 3.3 24.1-15.8-4 12.5zM679.2 343.5c-.1-.1-.2-.1-.2-.1H678.7 678.4h-.1c-.1 0-.1 0-.2.1h-.1-.1l-22.9 20h3l19.9-17.3 3.5 17.3h2l-3.5-17 24.3 17h3.5l-28.5-20zM794.6 331.6v-.4-.1c0-.1 0-.2-.1-.2 0 0 0-.1-.1-.1 0 0 0-.1-.1-.1l-.1-.1-.1-.1c-.1 0-.1-.1-.2-.1h-.1c-.1 0-.2 0-.3-.1h-.1l-84.5-2c-.3 0-.6.1-.8.4-.2.3-.2.6-.1.9l8.5 26.2v.1c0 .1 0 .1.1.1l.1.1.1.1.1.1 12 7.1h3.9l-13-7.7 71.5-22.8-16.3 30.6h2.3l17.2-31.6c.1-.1.1-.2.1-.3zm-76.3 22.7l-7.8-23.9 77.2 1.8-69.4 22.1zM995.3 297.2v-.2-.1c0-.1 0-.1-.1-.2l-98.8-149.4c-.1-.2-.3-.3-.6-.4h-.4-.1c-.1 0-.2 0-.2.1 0 0-.1 0-.1.1-.1 0-.1.1-.2.1l-.1.1-.1.1c0 .1 0 .1-.1.2v.1l-14.8 100.8-64.2 115h2.3L881 250.2l45.2 28.3-98.5 85h3.1l95.6-82.4-16.7 82.4h2l17-83.8 63.7 18.1-45.2 44.8-21.1 20.9h2.8l8.8-8.7 55.5-55.1v63.8h2l.1-66.3zm-113.5-48.9l13.9-95.3 30.6 123.2-44.5-27.9zm62.3 33.6l-15.3-4.3-30.9-124.4L992 295.6l-47.9-13.7zM1115.4 332.3s0-.1 0 0l-22.1-59.2-39.1-115.7c0-.1-.1-.1-.1-.2s-.1-.1-.1-.2l-.1-.1-.1-.1s-.1 0-.1-.1c-.1 0-.1 0-.2-.1H1053.2h-.1c-.1 0-.1.1-.2.1l-.1.1c-.1 0-.1.1-.2.2 0 0 0 .1-.1.1 0 .1-.1.1-.1.2L1023.1 276v.2l-7.9 87.4h2l7.6-84.7 46.5 58.1-12.8 11.3-17.4 15.4h3l15.1-13.4 13.3-11.7 20.3 25.1h2.6l-20.9-25.7 38.9-4.1 4 29.9h2l-4.2-31.1c.2-.3.2-.4.2-.4zm-61.2-168.5l35.6 105.2-35.6-40.5v-64.7zm-2 2.2v62.6l-25.7 41.7 25.7-104.3zm-26.9 110.2l27.4-44.6 18.3 101.7-45.7-57.1zm29.6-44l36.4 41.5-18.2 59.1-18.2-100.6zm19.2 103.6l18.3-59.3 20.6 55.2-38.9 4.1z" class="st1"/>
  <path d="M1213.3 324.3c-.1 0-.1 0 0 0h-.1-.1c-.1 0-.2 0-.2.1h-.1c-.1.1-.2.1-.3.2l-33.1 38.8h2.6l31.4-36.7 40.9 36.7h3l-41.2-37 74.5 5.2 2 31.7h2l-2-31 64.2 31h4.6l-68.1-32.9 75.9-71v-2.7l-78 73-77.9-5.4zM1325.5 16.3c-.1 0-.1 0 0 0h-.2-.1-.1-.1l-38.9 10-41-24.6h-.1l-3.5-1.6h-4.8l6 2.8-29 23-9.9-25.9h-2.1l10.6 27.7v.1s0 .1.1.1l23.8 36.4v.1l31.9 37.5.1.1 57.7 52.3h.1c.1.1.1.1.2.1h.1c.1 0 .2.1.3.1h.2l42.3-7.1v-2l-39.4 6.6 28.2-27 11.2 6.4v-2.3l-9.5-5.4 9.5-6.3V115l-10 6.7 9.2-56.1.8.7V62l-1.2.5-39.4-43.2 40.6 13.2v-2.1l-43.6-14.1zm28.3 102.3l-46.6-45-9.1-8.8h26.5l29.2 53.8zm-29.6-55.9h-26.7l26.7-42v42zm-1.2-43.9l-24.6 38.8-2.3 3.7-8.9-33.2 35.8-9.3zm-29.1 42.4L1261 37l24.1-8.3 8.8 32.5zm-1.3 1.5H1266l-1.5-6.7-3.9-17 1.4 1.1 30.6 22.6zm-9.1-35.6l-24 8.3-.1-.2L1246.7 5l36.8 22.1zm-39.4-23l13.1 31.1-41.8-8.5 28.7-22.6zm-28.8 24.7l41.8 8.5-20 24.7-21.8-33.2zm43.1 10.1l5.5 23.8h-24.8l19.3-23.8zm-19.2 25.8h25.1l3.4 33.4-28.5-33.4zm27.1 0h27.4l-24 33.8-3.4-33.8zm29.5.5l4.5 4.4 54.1 52.3-83.7-21.3 25.1-35.4zm30.9 87l-54-49 11.2 2.9 71.9 18.3-29.1 27.8zm39.4-85.6l-8.9 54.2-30.4-56.1h39.6l-.3 1.9zm-39.9-46.8l39.2 42.9h-39.2V19.8zM761 12.2c0 .1 0 .1.1.2v.1c0 .1.1.1.1.2v.1l70.5 66.4c.1.1.2.1.3.2h.1c.1 0 .2.1.3.1.1 0 .2 0 .3-.1h.1c.1 0 .1-.1.2-.1l.2-.2V79l42.9-79h-2.3l-41.3 76.4-26.1-45.7L863.2 0H859l-54 29.2-39.6-16.8L830.3 0h-10.7l-57.8 11h-.1s-.1 0-.1.1c-.1 0-.1 0-.2.1l-.1.1-.1.1-.1.1v.1c0 .1-.1.1-.1.2v.4zm43.3 18.9l24 42-61.6-58 37.6 16zM1153.2 12.5l-10.3 23-14.8-33.8-.7-1.7h-2.2l2.6 5.8 12.9 29.3-34.9-23.1L1122 0h-3.4l-15.1 11.2c-.3.2-.4.5-.4.8 0 .3.2.6.4.8l38.8 25.9h.1c.2.1.3.1.5.1h.4c.1 0 .1-.1.2-.1v-.1l.1-.1s0-.1.1-.1v-.1l11.6-25.9c.2-.5 0-1.1-.5-1.3L1133.4 0h-4.4l24.2 12.5z" class="st1"/>
</svg>
