<svg xmlns="http://www.w3.org/2000/svg" id="Layer_1" viewBox="0 0 1366 1902">
  <style>
    .st0{fill:#016848}.st1{fill:#1a3a44}.st2{fill:#d0df63}.st3{fill:#c5e8f3}
  </style>
  <g id="Bottom-left">
    <path d="M881 1895.8c.1-.2.2-.4.2-.6 0-.1 0-.2-.1-.3 0-.1-.1-.1-.1-.2 0 0 0-.1-.1-.1l-66-76.4c-.2-.2-.4-.3-.6-.4-.2 0-.4 0-.6.1l-.1.1c-.1 0-.1.1-.1.1l-.1.1-30.2 48.8v.1c0 .1-.1.1-.1.2v.6s0 .1.1.1v.1c0 .1.1.1.2.2l21.7 17.8c.2.1.3.3.6.3l74.4 9.7H880.4c.1 0 .2 0 .2-.1.1 0 .1 0 .2-.1.1 0 .1-.1.2-.1-.1.1-.1.1 0 0zm-94.5-27.3l36.6-1.8-17.5 17.3-19.1-15.5zm27.2-47.2l10.7 43.3-38.7 1.8 28-45.1zm12.1 45.5l49.1 26.6-67.2-8.8 18.1-17.8zm.7-1.9l-10.4-42.3 59.7 69.1-49.3-26.8zM482.1 1835.3v.1c0 .1 0 .1.1.2 0 0 0 .1.1.1l54.1 66.3h2.6l-53.1-65.1 84.3 24.9 113.9 33.6-60.8 6.6h18.5l44.9-4.9-4.1 4.9h2.6l4.3-5.2 7.6-.2 36.5-.9-9.5 6.3h3.6l9.9-6.5.1-.1.1-.1.1-.1s0-.1.1-.1V1894.8v-.2-.1c-.1-.2-.2-.4-.4-.5l-97.6-70.6c-.1 0-.1-.1-.2-.1h-.4l-156.4 11h-.1c-.1 0-.1 0-.2.1 0 0-.1 0-.1.1-.1 0-.1.1-.2.1l-.1.1-.1.1v.1s0 .1-.1.1c0 .1 0 .1-.1.2v.2c.1-.2.1-.2.1-.1zm252.1 58.5l-32.3.8-12.2.3-42.9-62.2-3-4.4 90.4 65.5zm-95.1-68.6l13.8 20 33.9 49-198-58.4 150.3-10.6zM0 1844.1l70.3 58h3.1L0 1841.5zM0 1816.5l184.7-4.4-100.7 90h3l100.7-89.8 93.7 39.4-184.9 50.4h7.6l176.8-48.3-34.3 33.5-15.1 14.8h2.9l40.5-39.5 10-9.7 130.4-13.8-149.1 63h5.1l151-63.8c.1 0 .1-.1.2-.1l.1-.1.1-.1.1-.1v-.2-.2V1837.2v-.1c0-.1 0-.1-.1-.2 0-.1-.1-.1-.1-.2l-.1-.1-.1-.1c-.1 0-.1-.1-.2-.1s-.1 0-.2-.1h-.1l-234.3-26.2h-.2L0 1814.5v2zm412.6 20.8l-128.1 13.5-90.3-38 218.4 24.5zM0 1645.3l97.3-20.7-56.7 34.2-25 15.1-15.6-7.4v2.2l14.9 7.1 9.6 18.6 18.9 36.7L0 1685.7v2.9l46.6 48.9c.1.1.2.2.3.2h.1c.1 0 .2.1.4.1h.3c.1 0 .2-.1.3-.1l.2-.2s0-.1.1-.1v-.1l55.5-114.4v-.1-.2-.2-.2V1621.9v-.1c0-.1-.1-.1-.1-.2l-.1-.1s-.1 0-.1-.1l-.1-.1c-.1 0-.1 0-.2-.1h-.4-.1L0 1643.2v2.1zm47.3 89.3l-29.7-57.8-.7-1.4 6.9-4.2 76.7-46.2-53.2 109.6z" class="st0"/>
  </g>
  <g id="Bottom-right">
    <path id="Path_2255" d="M1136.6 1526.8l47.5-63.4-20.8 8.5-26.7 54.9z" class="st1"/>
    <path id="Path_2256" d="M1151.2 1451.8l-14.6 75 26.8-54.8-12.2-20.2z" class="st2"/>
    <path id="Path_2257" d="M1183.5 1421.3l-32.3 30.5 12.1 20.2 20.2-50.7z" class="st3"/>
    <path id="Path_2258" d="M1184.1 1463.5l-.6-42.1-20.2 50.7 20.8-8.6z" class="st0"/>
    <path id="Path_2259" d="M1196.1 1512l102.7-154.4 23.6 86.1-126.3 68.3z" class="st3"/>
    <path id="Path_2261" d="M1196.1 1512.1l90.1 21.4 36.2-89.7-126.3 68.3z" class="st0"/>
    <path d="M1366 1335.5l-67.2 22.2 23.6 86.1 43.6-62.9z" class="st2"/>
    <path d="M1366 1380.9l-43.6 62.9 43.6-8.3z" class="st0"/>
    <path d="M1366 1435.5l-43.6 8.3-36.2 89.6 79.8-52z" class="st1"/>
  </g>
  <g id="Middle-right">
    <path id="Path_2211" d="M1225.3 619.5l116 50.9-93.3 65.7-22.7-116.6z" class="st2"/>
    <path id="Path_2212" d="M1292.3 592.9l49 77.5-116-50.9 67-26.6z" class="st3"/>
    <path id="Path_2219" d="M1222.5 974.1l120.3 52.9-84.8-100-35.5 47.1z" class="st2"/>
    <path id="Path_2220" d="M1350.4 892.3l-7.7 134.7-84.8-100 92.5-34.7z" class="st1"/>
    <path id="Path_2221" d="M1202.3 746.5l20.2 227.5 35.5-47-55.7-180.5z" class="st3"/>
    <path id="Path_2222" d="M1350.4 892.3l-148.1-145.8 55.6 180.5 92.5-34.7z" class="st0"/>
    <path d="M1366 635l-73.7-42.1 48.9 77.5 24.8-2.2z" class="st0"/>
    <path d="M1366 668.2l-24.8 2.2-93.2 65.7 118-50.6z" class="st1"/>
  </g>
  <g id="Middle-left">
    <path id="Path_2227" d="M162 769.9L322.5 877l-149.2-29.2-11.3-77.9z" class="st2"/>
    <path id="Path_2228" d="M52.3 877.8L162 769.9l11.3 77.9-121 30z" class="st3"/>
    <path id="Path_2229" d="M122.6 930.5l-70.4-52.7 121-30-50.6 82.7z" class="st0"/>
    <path id="Path_2230" d="M322.5 877l-199.9 53.4 50.7-82.7L322.5 877z" class="st1"/>
    <path id="Path_2236" d="M220.1 1021.9L39.7 1130.8l-7.8-129.6 188.2 20.7z" class="st1"/>
    <path d="M0 581.6V726l142.8-91.5z" class="st3"/>
    <path d="M0 726v106.8l142.8-198.3z" class="st0"/>
    <path d="M0 967.9v40.4l31.9-7.1z" class="st3"/>
    <path d="M0 931.6v36.3l31.9 33.3 188.2 20.7z" class="st2"/>
    <path d="M0 1112.9l39.8 17.9-7.8-129.7-32 7.2z" class="st0"/>
  </g>
  <g id="Top-left">
    <path d="M294 185.9V185.6c0-.1-.1-.1-.1-.2 0 0 0-.1-.1-.1l-.2-.2-152-87.4h-.1c-.1 0-.1 0-.2-.1H140.6L29 138.9h-.1c-.1 0-.1.1-.2.1l-.1.1-.1.1c0 .1-.1.1-.1.2V140.1c0 .1.1.1.1.2 0 0 0 .1.1.1.1.1.2.2.3.2l189.6 95h.5c.3 0 .5-.1.7-.3l73.9-48.8.1-.1.1-.1s0-.1.1-.1c0-.1.1-.1.1-.3 0 .1 0 .1 0 0v-.2c.1.3.1.2 0 .2zm-7.3-2.5l-99.8-23.2-42.3-58.5 142.1 81.7zm-146-83.7l43.4 60.1-150.6-20.4 107.2-39.7zm44.9 62.3l31.4 70.7-181.7-91.1L185.6 162zm33.9 71.3L188 162.5l102.6 23.9-71.1 46.9zM484.3 195.8v-.2-.1c0-.1 0-.1-.1-.2v-.1c0-.1-.1-.1-.1-.2l-.1-.1-.1-.1c-.1 0-.1-.1-.2-.1L369 148.4h-.8l-42.7 20.9c-.1 0-.1.1-.2.1h-.1c-.2.1-.3.3-.3.6v.4c0 .1 0 .1.1.2 0 0 0 .1.1.1 0 .1.1.1.1.2l53.6 53c.1.1.2.1.3.2h.1c.1 0 .2.1.3.1h.2l103.9-27.7c.1 0 .1-.1.2-.1 0 0 .1 0 .1-.1.1 0 .1-.1.1-.1l.1-.1c0-.1.1-.1.1-.2.1 0 .1-.1.1-.1zm-7.9-2l-71-7.1-33-34.7 104 41.8zm-108-43.2l33.7 35.4-73.2-16.1 39.5-19.3zm34.9 37.7l-24 33.4L329 172l74.3 16.3zm-21.5 33.2l23.6-32.8 72.3 7.3-95.9 25.5zM227.7 96.4L201.2.1h-2.1l25.4 92.5L146.3.1h-2.6l75.6 89.4-72.9-58.3L129.2.1H127l17.9 32.2c.1.1.1.2.2.3l81.1 64.8s.1 0 .1.1c0 0 .1 0 .1.1.1 0 .2.1.4.1.1 0 .2 0 .3-.1h.2c.1 0 .1-.1.2-.1h.1c.1-.1.1-.2.2-.3v-.1c0-.1 0-.2.1-.2v-.2c-.1-.2-.1-.2-.2-.3zM121.3 56.1s0-.1 0 0c-.1-.2-.1-.2-.2-.3L81.1.1h-2.5L118 54.7l-31.7-7.9-65.2-16.2L34.1 0h-2.2L19.2 29.9 0 18.6v2.3l18.3 10.8L0 61.9v3.9l20.1-33.1 38.7 9.6 57.5 14.3L0 87.5v2.1l120.6-32.2c.1 0 .2-.1.2-.1l.1-.1c.1 0 .1-.1.2-.2l.1-.1s0-.1.1-.1c0 0 0-.1.1-.1v-.3c0-.1-.1-.2-.1-.3z" class="st0"/>
  </g>
</svg>
