<svg xmlns="http://www.w3.org/2000/svg" id="Group_608" data-name="Group 608" viewBox="0 0 147.464 275">
  <defs>
    <style>
      .cls-1{fill:#c5e8f3}.cls-2{fill:#016848}.cls-3{fill:#d0df63}.cls-4{fill:#1a3a44}
    </style>
  </defs>
  <path id="Path_2283" d="M65.566 117L12.4 173.883l42.057 4.11z" class="cls-1" data-name="Path 2283" transform="translate(4 38.135)"/>
  <path id="Path_2284" d="M109 173.883l-64.8 4.11L55.309 117z" class="cls-2" data-name="Path 2284" transform="translate(14.256 38.135)"/>
  <path id="Path_2285" d="M16.4 61.2L0 88.117h16.4z" class="cls-1" data-name="Path 2285" transform="translate(0 19.948)"/>
  <path id="Path_2286" d="M31.709 88.117L12.4 61.2v26.917z" class="cls-2" data-name="Path 2286" transform="translate(4 19.948)"/>
  <path id="Path_2287" d="M16.4 112.925L0 81.5h16.4z" class="cls-3" data-name="Path 2287" transform="translate(0 26.564)"/>
  <path id="Path_2288" d="M31.709 81.5L12.4 112.925V81.5z" class="cls-4" data-name="Path 2288" transform="translate(4 26.564)"/>
  <path id="Path_2289" d="M86.389 116.056L99.615 36.5H44.2z" class="cls-3" data-name="Path 2289" transform="translate(14.256 11.897)"/>
  <path id="Path_2290" d="M122.918 36.5L76.1 116.056 89.325 36.5z" class="cls-4" data-name="Path 2290" transform="translate(24.546 11.897)"/>
  <path id="Path_2291" d="M74.486 222.882L109 159.9l-64.8 4.11 8.6 58.872z" class="cls-4" data-name="Path 2291" transform="translate(14.256 52.118)"/>
  <path id="Path_2292" d="M77.9 0l10.845 48.4h33.593L85.571 0z" class="cls-2" data-name="Path 2292" transform="translate(25.126)"/>
  <path id="Path_2293" d="M76.073 0L44.2 48.4h55.415L88.77 0z" class="cls-1" data-name="Path 2293" transform="translate(14.256)"/>
  <path id="Path_2294" d="M63.053 222.882l-8.6-58.872L12.4 159.9l37.031 62.982z" class="cls-3" data-name="Path 2294" transform="translate(4 52.118)"/>
</svg>
