<svg xmlns="http://www.w3.org/2000/svg" id="Layer_1" viewBox="0 0 247.9 98">
  <path d="M160 63v-.1-.1s0-.1-.1-.1c0 0 0-.1-.1-.1 0-.1-.1-.1-.2-.2l-.1-.1c-.1-.1-.2-.1-.3-.2l-56.8-19.4c-.2-.1-.4-.1-.5 0h-.1c-.1 0-.1 0-.2.1-.1 0-.1.1-.2.1h-.1L66.5 74.6s0 .1-.1.1l-.1.1-.1.1V75.5c0 .1.1.2.1.2v.1c0 .1.1.2.2.2.1.1.1.1.2.1L112 97.9h.4c.2 0 .4-.1.6-.2l46.6-33.9.1-.1s.1-.1.1-.2c0 0 0-.1.1-.1 0-.1.1-.1.1-.2v-.1-.1c0 .1 0 .1 0 0zm-8.1-1.3l-45.7-2.4-2.7-14.1 48.4 16.5zm-50.3-16l2.6 14-32.3 12.7 29.7-26.7zm-32 29.7l35-13.8 6.4 33.6-41.4-19.8zm43.5 19.9l-6.5-33.9 49.6 2.6-43.1 31.3zM247.9 62.8v-.2-.2s0-.1-.1-.1c0-.1-.1-.1-.1-.2l-.1-.1c0-.1-.1-.1-.2-.1l-43.5-26.7h-.1H203.5h-.4-.1L175.6 44c-.1 0-.2.1-.3.1l-.2.2v.1c0 .1-.1.1-.1.2v.5c0 .1 0 .2.1.2 0 .1.1.3.2.4l20.5 23.1c.1.1.2.2.3.2h.1c.1 0 .2.1.4.1h.1l50.4-5.3h.1c.1 0 .1 0 .2-.1h.1c.1 0 .1-.1.2-.1 0 0 .1 0 .1-.1.1-.1.1-.1.1-.2v-.1-.1-.3zm-50.7 4.1L192 49l49.4 13.4-44.2 4.5zm-6.9-20.4l-10.2-1.9 19.2-6.1-9 8zm-.5 1.9l4.5 15.6-15.7-17.7 11.2 2.1zm2.8-1.4l10.9-9.7 37 22.7-47.9-13zM90.3 28.1V28c0-.1-.1-.2-.2-.3l-.2-.2c-.1-.1-.2-.1-.3-.1l-67.4-14L0 0v2.3l20.4 12.3L0 40.3v4.2L.6 43l82.8-12.8L0 73.1v2.2l89.8-46.2c.1 0 .1-.1.2-.1 0 0 .1 0 .1-.1s.1-.1.1-.2l.1-.1v-.1-.2c.1-.1 0-.1 0-.2zm-46 6.1L2.2 40.8l20-25.3 61.5 12.7-39.4 6z" class="st0"/>
</svg>
